{
    "asset" : {
        "generator" : "Khronos glTF Blender I/O v3.3.32",
        "version" : "2.0"
    },
    "scene" : 0,
    "scenes" : [
        {
            "name" : "Scene",
            "nodes" : [
                0
            ]
        }
    ],
    "nodes" : [
        {
            "mesh" : 0,
            "name" : "Curve.003",
            "scale" : [
                514.5616455078125,
                514.5616455078125,
                514.5616455078125
            ]
        }
    ],
    "materials" : [
        {
            "doubleSided" : true,
            "name" : "SVGMat.002",
            "pbrMetallicRoughness" : {
                "baseColorFactor" : [
                    1,
                    1,
                    1,
                    1
                ],
                "metallicFactor" : 0,
                "roughnessFactor" : 0.4000000059604645
            }
        }
    ],
    "meshes" : [
        {
            "name" : "Curve.019",
            "primitives" : [
                {
                    "attributes" : {
                        "POSITION" : 0,
                        "NORMAL" : 1,
                        "TEXCOORD_0" : 2
                    },
                    "indices" : 3,
                    "material" : 0
                }
            ]
        }
    ],
    "accessors" : [
        {
            "bufferView" : 0,
            "componentType" : 5126,
            "count" : 27180,
            "max" : [
                0.037061985582113266,
                0.000699999975040555,
                0.006100126076489687
            ],
            "min" : [
                -0.037105292081832886,
                -0.000699999975040555,
                -0.00590050732716918
            ],
            "type" : "VEC3"
        },
        {
            "bufferView" : 1,
            "componentType" : 5126,
            "count" : 27180,
            "type" : "VEC3"
        },
        {
            "bufferView" : 2,
            "componentType" : 5126,
            "count" : 27180,
            "type" : "VEC2"
        },
        {
            "bufferView" : 3,
            "componentType" : 5123,
            "count" : 48936,
            "type" : "SCALAR"
        }
    ],
    "bufferViews" : [
        {
            "buffer" : 0,
            "byteLength" : 326160,
            "byteOffset" : 0,
            "target" : 34962
        },
        {
            "buffer" : 0,
            "byteLength" : 326160,
            "byteOffset" : 326160,
            "target" : 34962
        },
        {
            "buffer" : 0,
            "byteLength" : 217440,
            "byteOffset" : 652320,
            "target" : 34962
        },
        {
            "buffer" : 0,
            "byteLength" : 97872,
            "byteOffset" : 869760,
            "target" : 34963
        }
    ],
    "buffers" : [
        {
            "byteLength" : 967632,
            "uri" : "space-news.bin"
        }
    ]
}
