<svg width="80" height="80" viewBox="0 0 80 80" fill="none" xmlns="http://www.w3.org/2000/svg">
<path d="M80 40C80 62.0914 62.0914 80 40 80C17.9086 80 0 62.0914 0 40C0 17.9086 17.9086 0 40 0C62.0914 0 80 17.9086 80 40Z" fill="#0E0E0E"/>
<path d="M29.9559 34.3182C28.0686 32.803 25.7696 32.0455 23.0588 32.0455H19.7647V34.3182H18.1176C17.8946 34.3182 17.7016 34.5964 17.5386 35.1527C17.3756 35.709 17.2941 36.3778 17.2941 37.1591C17.2941 37.7273 17.3542 38.3073 17.4743 38.8991C16.4792 38.9465 15.6513 39.0708 14.9908 39.272C14.3303 39.4732 14 39.7159 14 40C14 40.2841 14.3303 40.5268 14.9908 40.728C15.6513 40.9292 16.4792 41.0535 17.4743 41.1009C17.3542 41.6927 17.2941 42.2727 17.2941 42.8409C17.2941 43.6222 17.3756 44.291 17.5386 44.8473C17.7016 45.4036 17.8946 45.6818 18.1176 45.6818H19.7647V47.9545H23.0588C25.7696 47.9545 28.0686 47.197 29.9559 45.6818H58.5993C59.3199 45.5161 60.2335 45.303 61.3401 45.0426C62.4467 44.7822 63.1373 44.6165 63.4118 44.5455C64.9387 44.1903 66.2255 43.7109 67.2721 43.1072C68.3186 42.5035 69.0349 41.9413 69.421 41.4205C69.807 40.8996 70 40.4261 70 40C70 39.5739 69.807 39.1004 69.421 38.5795C69.0349 38.0587 68.3186 37.4964 67.2721 36.8928C66.2255 36.2891 64.9387 35.8097 63.4118 35.4545C63.1373 35.3835 62.4467 35.2178 61.3401 34.9574C60.2335 34.697 59.3199 34.4839 58.5993 34.3182H29.9559ZM58.7537 43.267C59.663 42.4148 60.1176 41.3258 60.1176 40C60.1176 38.6742 59.663 37.5852 58.7537 36.733L60.8382 35.6676C62.0049 36.804 62.5882 38.2481 62.5882 40C62.5882 41.7519 62.0049 43.196 60.8382 44.3324L58.7537 43.267ZM30.0846 33.75H56.2059C52.4828 32.8504 48.5711 31.9034 44.4706 30.9091C43.4926 30.9091 42.5233 30.625 41.5625 30.0568C40.6017 29.4886 39.8897 28.9205 39.4265 28.3523L38.7059 27.5L31.2941 17.2727C30.848 16.6572 30.2433 16.1245 29.4798 15.6747C28.7163 15.2249 27.9485 15 27.1765 15H24.7059L22.3125 31.4773H23.0588C25.7525 31.4773 28.0944 32.2348 30.0846 33.75ZM23.0588 48.5227H22.3125L24.7059 65H27.1765C27.9657 65 28.7377 64.7751 29.4926 64.3253C30.2475 63.8755 30.848 63.3428 31.2941 62.7273L38.7059 52.5C38.7745 52.4053 38.8689 52.281 38.989 52.1271C39.1091 51.9732 39.3707 51.701 39.7739 51.3104C40.1771 50.9197 40.5931 50.5765 41.0221 50.2805C41.451 49.9846 41.9786 49.7124 42.6048 49.4638C43.231 49.2152 43.8529 49.0909 44.4706 49.0909L56.2059 46.25H30.0846C28.0944 47.7652 25.7525 48.5227 23.0588 48.5227Z" fill="white"/>
</svg>
