<svg width="282" height="52" viewBox="0 0 282 52" fill="none" xmlns="http://www.w3.org/2000/svg">
<path d="M237.651 45.6794C237.651 46.5092 195.455 47.1819 143.404 47.1819C91.3528 47.1819 49.157 46.5092 49.157 45.6794C49.157 44.8496 91.3528 44.1769 143.404 44.1769C195.455 44.1769 237.651 44.8496 237.651 45.6794Z" fill="#606060"/>
<path d="M149 45.6802C149 48.6995 146.656 51.1471 143.764 51.1471C140.872 51.1471 138.528 48.6995 138.528 45.6802C138.528 42.6609 140.872 40.2133 143.764 40.2133C146.656 40.2133 149 42.6609 149 45.6802Z" fill="#C0C0C0"/>
<path d="M9.54061 30.9258C7.90577 31.1157 6.40777 30.9489 5.04661 30.4254C3.40994 29.787 2.30031 28.7204 1.7177 27.2256C1.62797 26.9948 1.63197 26.7584 1.7297 26.5163C1.83897 26.2834 2.01417 26.1215 2.25529 26.0306C2.48606 25.9408 2.72247 25.9448 2.96453 26.0426C3.19744 26.1518 3.35876 26.3219 3.44849 26.5526C3.85285 27.5963 4.6727 28.3348 5.90802 28.768C6.93473 29.1207 8.07408 29.2243 9.32608 29.0789C10.6816 28.9214 11.7951 28.3516 12.6668 27.3695C13.5385 26.3874 13.9326 25.2667 13.8493 24.0075C13.7861 23.1025 13.3832 22.3418 12.6404 21.7255C11.6285 20.8678 10.1377 20.5376 8.16815 20.7349C7.90947 20.7649 7.68136 20.697 7.48383 20.5312C7.2863 20.3654 7.17311 20.1583 7.14426 19.91C7.12456 19.6501 7.19762 19.4214 7.36344 19.2239C7.51891 19.0275 7.72598 18.9144 7.98466 18.8843C10.4728 18.6373 12.4261 19.113 13.8447 20.3115C14.9825 21.2595 15.5975 22.4464 15.6897 23.8724C15.8204 25.6295 15.2887 27.1908 14.0945 28.5565C12.9107 29.9209 11.3927 30.7107 9.54061 30.9258ZM8.07502 20.7457C5.58811 21.0031 3.63537 20.5325 2.21678 19.334C1.07777 18.3757 0.456984 17.1842 0.354414 15.7594C0.23408 14.0011 0.770994 12.4392 1.96515 11.0735C3.14897 9.70909 4.66694 8.9193 6.51907 8.70417C8.15391 8.51428 9.65252 8.68628 11.0149 9.22016C12.6503 9.84816 13.7594 10.9096 14.342 12.4044C14.4329 12.6455 14.4289 12.882 14.33 13.1137C14.2207 13.3466 14.0455 13.5085 13.8044 13.5994C13.5645 13.7007 13.3281 13.6967 13.0952 13.5874C12.8634 13.4885 12.7021 13.3185 12.6112 13.0774C12.2068 12.0337 11.3876 11.3004 10.1535 10.8775C9.12556 10.5145 7.9856 10.4057 6.7336 10.5511C5.37813 10.7086 4.26456 11.2784 3.39289 12.2605C2.52121 13.2426 2.12765 14.3685 2.21219 15.638C2.27416 16.5327 2.67651 17.2882 3.41925 17.9045C4.43122 18.7622 5.92198 19.0924 7.89154 18.8951C8.15142 18.8754 8.37952 18.9433 8.57585 19.0988C8.77339 19.2646 8.88718 19.4768 8.91722 19.7355C8.93572 19.9851 8.86723 20.208 8.71177 20.4043C8.54595 20.6019 8.33887 20.715 8.09054 20.7439L8.07502 20.7457Z" fill="white"/>
<path d="M30.6921 16.4338L29.9223 8.03149L36.0839 7.46692C37.3806 7.34811 38.5281 7.65615 39.5264 8.39104C40.5247 9.12594 41.0771 10.0743 41.1835 11.2361C41.2881 12.3771 40.9266 13.3987 40.0993 14.3009C39.2813 15.1918 38.241 15.7107 36.9783 15.8578L30.6921 16.4338ZM28.8176 6.24986C28.5583 6.27362 28.349 6.38694 28.1897 6.58981C28.0192 6.78326 27.9458 7.00966 27.9695 7.26899L29.8443 27.7302C29.8681 27.9895 29.9814 28.1988 30.1843 28.358C30.3777 28.5286 30.6041 28.602 30.8635 28.5782C31.1228 28.5544 31.3321 28.4411 31.4913 28.2382C31.6619 28.0448 31.7353 27.8184 31.7115 27.5591L30.8618 18.2854L36.9768 17.7251C37.04 17.7298 37.056 17.7335 37.0249 17.7364C37.0456 17.7345 37.0659 17.7274 37.0857 17.7151L37.2724 17.698C37.2932 17.6961 37.3347 17.6923 37.3969 17.6866C39.1103 17.4355 40.5154 16.6739 41.6123 15.4018C42.7082 14.1194 43.1824 12.6743 43.0351 11.0664C42.8821 9.39634 42.1135 8.02847 40.7292 6.96283C39.3336 5.88777 37.7282 5.43341 35.9129 5.59974L28.8176 6.24986Z" fill="white"/>
<path d="M60.8092 18.8851L64.9561 6.68091L70.663 18.2381L60.8092 18.8851ZM57.3564 26.1581C57.4741 26.2026 57.5954 26.2207 57.7201 26.2126C58.1359 26.1853 58.4091 25.9742 58.5397 25.5794L60.168 20.8062L71.5498 20.0589L73.7882 24.5782C73.9693 24.9526 74.2678 25.1261 74.6836 25.0988C74.8083 25.0906 74.9261 25.0568 75.0371 24.9973C75.27 24.8881 75.4254 24.7108 75.5032 24.4656C75.5915 24.2197 75.5758 23.9807 75.4561 23.7484L72.946 18.6676L72.945 18.652L65.6303 3.83374C65.6061 3.78314 65.5764 3.72768 65.5411 3.66736C65.5418 3.67775 65.5197 3.65833 65.4747 3.60909C65.4408 3.56956 65.4183 3.54494 65.4072 3.53522C65.3968 3.53591 65.3694 3.51682 65.3251 3.47798C65.2815 3.44952 65.2597 3.4353 65.2597 3.4353C65.151 3.36936 65.0336 3.33009 64.9075 3.31749C64.9179 3.31681 64.8919 3.31852 64.8295 3.32261C64.7769 3.31563 64.7453 3.31248 64.7349 3.31316C64.7246 3.31384 64.6885 3.32143 64.6268 3.33592C64.5749 3.33933 64.5489 3.34104 64.5489 3.34104C64.4359 3.36933 64.3298 3.42327 64.2307 3.50286C64.2404 3.49178 64.2206 3.50874 64.1714 3.55373C64.1318 3.58764 64.1072 3.61013 64.0975 3.62121C64.0878 3.63229 64.0687 3.65964 64.0403 3.70326C64.0014 3.74757 63.982 3.76972 63.982 3.76972C63.9549 3.83414 63.9327 3.89301 63.9153 3.94635L58.6009 19.5938L58.6019 19.6093L56.7776 24.9748C56.6894 25.2207 56.705 25.4597 56.8247 25.692C56.9339 25.9249 57.1112 26.0803 57.3564 26.1581Z" fill="white"/>
<path d="M98.2518 23.9341C101.156 23.8216 103.637 22.7508 105.696 20.7217C105.886 20.537 105.982 20.3144 105.982 20.0538C105.983 19.7932 105.891 19.5726 105.707 19.3921C105.522 19.2012 105.299 19.1056 105.039 19.1052C104.778 19.1049 104.558 19.1969 104.377 19.3811C102.66 21.0634 100.593 21.9513 98.1786 22.0449C95.6076 22.1444 93.376 21.3187 91.4839 19.5678C89.5918 17.8168 88.596 15.6558 88.4964 13.0848C88.3964 10.5034 89.2219 8.26663 90.9729 6.37452C92.7239 4.48241 94.8849 3.48656 97.4558 3.38697C99.5793 3.30472 101.504 3.87128 103.229 5.08665C103.433 5.24553 103.665 5.29912 103.923 5.2474C104.182 5.20609 104.386 5.07833 104.534 4.8641C104.682 4.66029 104.736 4.42887 104.695 4.16986C104.653 3.91085 104.526 3.70731 104.311 3.55924C102.242 2.08614 99.9328 1.39898 97.3827 1.49776C94.2912 1.61751 91.6951 2.81786 89.5943 5.0988C87.4827 7.36974 86.487 10.0561 86.6072 13.158C86.7269 16.2494 87.9273 18.8455 90.2082 20.9463C92.4791 23.0579 95.1603 24.0538 98.2518 23.9341Z" fill="white"/>
<path d="M132.583 23.0806C132.844 23.0771 133.061 22.9804 133.236 22.7906C133.421 22.611 133.512 22.391 133.508 22.1306C133.505 21.8702 133.408 21.6527 133.218 21.4782C133.039 21.2931 132.819 21.2023 132.558 21.2058L121.09 21.3597L120.978 12.9542L129.555 12.8391C129.815 12.8356 130.033 12.7389 130.207 12.549C130.393 12.3695 130.483 12.1495 130.48 11.8891C130.476 11.6287 130.38 11.4112 130.19 11.2367C130.01 11.0516 129.79 10.9607 129.53 10.9642L120.952 11.0794L120.84 2.67388L132.308 2.5512C132.568 2.5477 132.786 2.45623 132.96 2.27679C133.145 2.08679 133.236 1.86159 133.233 1.6012C133.229 1.35122 133.133 1.13375 132.943 0.948784C132.763 0.763677 132.543 0.672872 132.283 0.676367L119.877 0.811629C119.627 0.804569 119.409 0.901246 119.225 1.10166C119.04 1.28125 118.949 1.50123 118.952 1.76163L119.228 22.3223C119.232 22.5827 119.328 22.8001 119.518 22.9747C119.698 23.1598 119.918 23.2506 120.178 23.2471L132.583 23.0806Z" fill="white"/>
<path d="M177.888 23.2185C177.918 23.2506 177.949 23.2826 177.979 23.3147C178.01 23.3363 178.03 23.3525 178.04 23.3632C178.071 23.3849 178.107 23.4066 178.148 23.4286C178.179 23.4502 178.199 23.4664 178.209 23.4771C178.24 23.4883 178.281 23.505 178.333 23.5272C178.374 23.5387 178.395 23.5445 178.395 23.5445C178.457 23.5565 178.52 23.5634 178.582 23.565C178.634 23.5664 178.691 23.5627 178.754 23.5539C178.765 23.5542 178.786 23.5496 178.817 23.54C178.859 23.5307 178.896 23.5212 178.927 23.5116C178.948 23.5017 178.969 23.4919 178.991 23.482C179.022 23.4724 179.054 23.4576 179.086 23.4376C179.107 23.4278 179.123 23.4178 179.133 23.4076C179.176 23.3775 179.186 23.3673 179.165 23.3772C179.144 23.3975 179.16 23.3875 179.213 23.3472C179.245 23.3168 179.266 23.2965 179.277 23.2864C179.298 23.2661 179.32 23.2406 179.342 23.2099C179.363 23.1792 179.38 23.1536 179.391 23.133C179.412 23.1128 179.428 23.0871 179.439 23.0562C179.451 23.0252 179.462 22.9995 179.473 22.9789C179.484 22.9584 179.495 22.9274 179.506 22.886C179.518 22.855 179.524 22.8292 179.524 22.8083C179.535 22.7774 179.541 22.7463 179.542 22.715C179.544 22.6525 179.544 22.6317 179.544 22.6525L180.086 2.08155C180.092 1.82122 180.01 1.60021 179.837 1.41853C179.655 1.22616 179.433 1.12655 179.173 1.11969C178.923 1.11311 178.702 1.20107 178.51 1.38357C178.328 1.55593 178.234 1.77227 178.227 2.0326L177.757 19.8702L163.935 1.07791C163.673 0.716733 163.327 0.603416 162.896 0.737956C162.476 0.87277 162.26 1.16406 162.248 1.61182L161.706 22.1828C161.699 22.4431 161.787 22.6643 161.97 22.8462C162.142 23.0383 162.358 23.1378 162.619 23.1447C162.879 23.1515 163.1 23.0636 163.282 22.8808C163.474 22.7087 163.574 22.4925 163.581 22.2322L164.05 4.39461L177.857 23.1865C177.857 23.1865 177.862 23.1918 177.873 23.2025C177.883 23.2132 177.888 23.2185 177.888 23.2185Z" fill="white"/>
<path d="M207.937 24.8496C208.197 24.8633 208.421 24.7812 208.607 24.6033C208.804 24.4363 208.909 24.2228 208.923 23.9627C208.937 23.7027 208.854 23.4793 208.677 23.2926C208.51 23.096 208.296 22.9909 208.036 22.9772L196.583 22.3736L197.026 13.979L205.592 14.4304C205.852 14.4441 206.075 14.362 206.262 14.1841C206.459 14.0172 206.564 13.8036 206.577 13.5436C206.591 13.2835 206.509 13.0601 206.331 12.8734C206.164 12.6769 205.951 12.5717 205.69 12.558L197.124 12.1066L197.567 3.71197L209.018 4.34678C209.278 4.36049 209.501 4.28358 209.687 4.11607C209.884 3.93869 209.99 3.71998 210.003 3.45992C210.017 3.21027 209.934 2.98689 209.757 2.78978C209.59 2.59322 209.377 2.48809 209.117 2.47438L196.729 1.79023C196.48 1.76667 196.257 1.84878 196.059 2.03655C195.862 2.20352 195.757 2.41703 195.744 2.67709L194.661 23.2111C194.648 23.4711 194.73 23.6945 194.908 23.8812C195.075 24.0778 195.288 24.1829 195.548 24.1966L207.937 24.8496Z" fill="white"/>
<path d="M252.369 5.68247C252.137 5.5793 251.902 5.57517 251.664 5.67009C251.416 5.76413 251.24 5.92702 251.137 6.15875L243.298 23.6242L238.494 5.09242C238.512 5.12531 238.509 5.10931 238.483 5.0444C238.475 5.01239 238.462 4.97993 238.444 4.94704C238.435 4.92541 238.421 4.90333 238.402 4.88082C238.395 4.84881 238.381 4.82155 238.362 4.79904C238.343 4.77652 238.324 4.75401 238.305 4.7315C238.286 4.70899 238.267 4.68648 238.248 4.66397C238.219 4.64059 238.195 4.61764 238.176 4.59513C238.156 4.583 238.131 4.56524 238.102 4.54185C238.082 4.52972 238.057 4.51715 238.026 4.50415C238.017 4.49289 238.007 4.48683 237.997 4.48595C237.987 4.4747 237.982 4.46907 237.982 4.46907C237.992 4.48032 237.976 4.47901 237.936 4.46513C237.916 4.453 237.886 4.43999 237.845 4.42611C237.803 4.42261 237.778 4.41523 237.768 4.40397C237.748 4.40222 237.716 4.3996 237.675 4.39609C237.633 4.39259 237.602 4.38997 237.581 4.38822C237.56 4.39684 237.528 4.39941 237.487 4.39591C237.455 4.40366 237.423 4.41141 237.391 4.41917C237.348 4.42604 237.338 4.42517 237.36 4.41654C237.402 4.40966 237.386 4.41873 237.31 4.44374C237.278 4.45149 237.251 4.45968 237.23 4.46831C237.198 4.47607 237.165 4.48901 237.132 4.50714C237.11 4.52615 237.087 4.54516 237.065 4.56417C237.042 4.58318 237.02 4.60219 236.997 4.62119C236.976 4.62982 236.953 4.64883 236.93 4.67822C236.907 4.69723 236.884 4.72143 236.861 4.75082C236.849 4.7707 236.832 4.79015 236.809 4.80916C236.796 4.83942 236.783 4.86968 236.77 4.89995C236.734 4.9596 236.722 4.97429 236.735 4.94403L228.896 22.4095L224.108 3.87902C224.035 3.6324 223.889 3.44238 223.67 3.30894C223.451 3.1755 223.214 3.1398 222.958 3.20182C222.712 3.26472 222.522 3.41073 222.388 3.63983C222.254 3.85856 222.224 4.09642 222.296 4.35342L227.76 25.4654C227.761 25.4551 227.769 25.4767 227.786 25.5303C227.794 25.552 227.798 25.568 227.797 25.5784C227.814 25.6216 227.832 25.6597 227.85 25.6926C227.86 25.7039 227.865 25.7095 227.865 25.7095C227.864 25.7199 227.868 25.7255 227.879 25.7264C227.906 25.7705 227.939 25.8151 227.977 25.8601C227.968 25.8489 227.977 25.8601 228.006 25.8939C228.035 25.9173 228.065 25.9407 228.094 25.964C228.103 25.9753 228.118 25.987 228.138 25.9991C228.178 26.0234 228.218 26.0476 228.257 26.0719C228.257 26.0719 228.263 26.0723 228.273 26.0732C228.273 26.0732 228.278 26.0788 228.287 26.0901C228.278 26.0788 228.278 26.0788 228.287 26.0901C228.317 26.1031 228.353 26.1166 228.394 26.1304C228.435 26.1339 228.451 26.1353 228.44 26.1344C228.491 26.1491 228.538 26.1583 228.579 26.1618C228.631 26.1661 228.683 26.1653 228.736 26.1593C228.726 26.1585 228.741 26.1598 228.783 26.1633C228.825 26.1564 228.857 26.1486 228.879 26.14C228.9 26.1314 228.906 26.1318 228.894 26.1413C228.906 26.1318 228.911 26.1271 228.911 26.1271C228.922 26.1279 228.927 26.1284 228.927 26.1284C228.97 26.1111 229.013 26.0939 229.057 26.0766C229.068 26.0671 229.084 26.058 229.106 26.0494C229.139 26.0313 229.172 26.0131 229.205 25.995C229.238 25.9665 229.25 25.957 229.238 25.9665C229.283 25.9285 229.323 25.89 229.358 25.8511C229.358 25.8511 229.364 25.8464 229.375 25.8369C229.375 25.8369 229.375 25.8317 229.376 25.8213C229.41 25.7928 229.439 25.7586 229.463 25.7189C229.464 25.7085 229.471 25.6934 229.483 25.6735C229.508 25.6233 229.52 25.6034 229.519 25.6138L237.358 8.1484L242.162 26.6802C242.163 26.6698 242.166 26.691 242.172 26.7437C242.191 26.7663 242.2 26.7827 242.199 26.7931C242.216 26.8363 242.234 26.8744 242.252 26.9073C242.251 26.9177 242.256 26.9233 242.267 26.9242C242.266 26.9346 242.265 26.9398 242.265 26.9398C242.303 26.9848 242.341 27.0298 242.379 27.0748C242.37 27.0636 242.379 27.0748 242.408 27.1086C242.437 27.132 242.467 27.1554 242.496 27.1788C242.505 27.19 242.52 27.2017 242.54 27.2138C242.569 27.2372 242.609 27.2615 242.659 27.2866C242.67 27.2875 242.674 27.2931 242.674 27.3035C242.674 27.2931 242.68 27.2936 242.689 27.3048C242.719 27.3178 242.755 27.3313 242.796 27.3452C242.837 27.3487 242.853 27.35 242.842 27.3491C242.893 27.3638 242.94 27.373 242.981 27.3765C243.033 27.3809 243.085 27.38 243.138 27.374C243.128 27.3732 243.143 27.3745 243.185 27.378C243.227 27.3711 243.259 27.3634 243.281 27.3547C243.292 27.3452 243.297 27.3457 243.296 27.356C243.297 27.3457 243.303 27.3409 243.313 27.3418C243.324 27.3427 243.329 27.3431 243.329 27.3431C243.372 27.3258 243.41 27.3081 243.443 27.29C243.465 27.2814 243.481 27.2723 243.492 27.2628C243.536 27.2455 243.574 27.2279 243.607 27.2097C243.64 27.1812 243.652 27.1717 243.64 27.1812C243.685 27.1432 243.725 27.1047 243.76 27.0658C243.76 27.0658 243.766 27.0611 243.777 27.0516C243.777 27.0516 243.777 27.0464 243.778 27.036C243.812 27.0075 243.841 26.9734 243.865 26.9336C243.866 26.9232 243.873 26.9081 243.885 26.8882C243.91 26.838 243.922 26.8182 243.921 26.8285L252.844 6.92993C252.948 6.68782 252.958 6.44821 252.873 6.21109C252.779 5.96273 252.611 5.78652 252.369 5.68247Z" fill="white"/>
<path d="M272.814 30.3866C271.179 30.1967 269.759 29.691 268.554 28.8694C267.108 27.8729 266.272 26.5803 266.048 24.9918C266.013 24.7466 266.071 24.5174 266.222 24.3041C266.382 24.1025 266.589 23.985 266.845 23.9518C267.09 23.9173 267.319 23.9754 267.532 24.126C267.734 24.2858 267.852 24.4883 267.887 24.7335C268.041 25.842 268.67 26.7487 269.773 27.4536C270.691 28.0322 271.777 28.3942 273.029 28.5396C274.384 28.6971 275.599 28.3977 276.672 27.6415C277.746 26.8853 278.386 25.8849 278.594 24.6401C278.74 23.7447 278.522 22.9119 277.94 22.1417C277.152 21.0749 275.776 20.4118 273.814 20.1524C273.555 20.1223 273.349 20.004 273.195 19.7973C273.04 19.5906 272.978 19.3631 273.007 19.1148C273.047 18.8573 273.17 18.6514 273.377 18.4972C273.573 18.3417 273.801 18.279 274.06 18.309C276.538 18.6389 278.33 19.5496 279.437 21.0414C280.327 22.2249 280.653 23.5213 280.416 24.9304C280.141 26.6707 279.265 28.0686 277.79 29.1241C276.325 30.1809 274.666 30.6017 272.814 30.3866ZM273.721 20.1416C271.241 19.8221 269.448 18.9165 268.342 17.4247C267.453 16.2308 267.122 14.9287 267.349 13.5184C267.635 11.7793 268.515 10.382 269.991 9.32646C271.456 8.26968 273.114 7.84886 274.967 8.06399C276.601 8.25388 278.021 8.76479 279.224 9.59673C280.672 10.5829 281.509 11.8702 281.733 13.4588C281.766 13.7144 281.708 13.9436 281.559 14.1465C281.399 14.3481 281.191 14.4656 280.936 14.4988C280.679 14.5424 280.45 14.4843 280.248 14.3246C280.045 14.1752 279.927 13.9727 279.894 13.7171C279.74 12.6086 279.11 11.707 278.006 11.0125C277.089 10.4235 276.004 10.0564 274.752 9.91095C273.397 9.7535 272.182 10.0529 271.108 10.8091C270.035 11.5652 269.394 12.5709 269.185 13.826C269.04 14.7111 269.259 15.5387 269.84 16.3089C270.629 17.3757 272.004 18.0388 273.967 18.2982C274.224 18.3386 274.43 18.457 274.586 18.6533C274.74 18.86 274.802 19.0927 274.772 19.3513C274.733 19.5985 274.615 19.7998 274.419 19.9552C274.212 20.1095 273.985 20.1722 273.736 20.1434L273.721 20.1416Z" fill="white"/>
</svg>
