<svg width="1126" height="1126" viewBox="0 0 1126 1126" fill="none" xmlns="http://www.w3.org/2000/svg">
<g clip-path="url(#clip0_4_348)">
<path d="M582.91 1035.95C830.886 1035.95 1031.91 834.926 1031.91 586.95C1031.91 338.974 830.886 137.95 582.91 137.95C334.934 137.95 133.91 338.974 133.91 586.95C133.91 834.926 334.934 1035.95 582.91 1035.95Z" fill="#8E8E8E"/>
<path d="M187.91 562.95C242.586 562.95 286.91 518.626 286.91 463.95C286.91 409.274 242.586 364.95 187.91 364.95C133.234 364.95 88.91 409.274 88.91 463.95C88.91 518.626 133.234 562.95 187.91 562.95Z" fill="white"/>
<path d="M421.91 638.95C476.586 638.95 520.91 594.626 520.91 539.95C520.91 485.274 476.586 440.95 421.91 440.95C367.234 440.95 322.91 485.274 322.91 539.95C322.91 594.626 367.234 638.95 421.91 638.95Z" fill="white"/>
<path d="M674.91 659.95C729.586 659.95 773.91 615.626 773.91 560.95C773.91 506.274 729.586 461.95 674.91 461.95C620.234 461.95 575.91 506.274 575.91 560.95C575.91 615.626 620.234 659.95 674.91 659.95Z" fill="white"/>
<path d="M924.91 551.95C979.586 551.95 1023.91 507.626 1023.91 452.95C1023.91 398.274 979.586 353.95 924.91 353.95C870.234 353.95 825.91 398.274 825.91 452.95C825.91 507.626 870.234 551.95 924.91 551.95Z" fill="white"/>
<path d="M286.41 607.95C324.242 607.95 354.91 577.282 354.91 539.45C354.91 501.618 324.242 470.95 286.41 470.95C248.578 470.95 217.91 501.618 217.91 539.45C217.91 577.282 248.578 607.95 286.41 607.95Z" fill="white"/>
<path d="M814.41 600.95C852.242 600.95 882.91 570.282 882.91 532.45C882.91 494.618 852.242 463.95 814.41 463.95C776.578 463.95 745.91 494.618 745.91 532.45C745.91 570.282 776.578 600.95 814.41 600.95Z" fill="white"/>
<path d="M482.48 641.54C481.48 619.87 464.91 601.54 442.48 601.54C429.83 601.54 417.48 608.28 409.97 618.38C406.171 615.638 401.939 613.553 397.45 612.21C396.45 611.9 395.45 611.56 394.45 611.21C384.98 606.47 376.28 600.39 367.27 594.83C354.468 587.005 340.68 580.922 326.27 576.74C305.36 570.63 283.37 568.51 262.87 561.03C259.109 559.177 255.477 557.073 252 554.73L242.44 550.73C237.284 549.067 231.775 548.818 226.49 550.01L225.78 550.12C225.91 548.18 226.07 546.23 226.27 544.29L226.48 542.96C228.34 532.08 228.21 521.96 222.48 512.14C217.62 503.84 208.11 495.93 198.57 493.76C188.33 491.42 176.84 491.93 167.75 497.76C159.5 503.08 151.09 511.57 149.37 521.66C145.7 543.21 144.17 564.66 146.55 586.39C148.775 608.122 153.16 629.578 159.64 650.44C172.09 689.74 190.93 726.7 209.44 763.44C218.44 781.2 227.23 799.03 235.17 817.27C237.389 822.593 239.195 828.079 240.57 833.68C240.57 833.76 240.57 833.84 240.57 833.92C240.31 834.77 240.04 835.62 239.71 836.47C240 835.8 240.28 835.13 240.57 834.47C240.57 834.53 240.57 834.59 240.57 834.64C237.73 842.59 236.57 850.45 239.03 859.31C241.59 868.59 248.76 878.64 257.41 883.21C266.7 888.12 277.94 890.58 288.24 887.21C297.52 884.21 307.98 878.13 312.14 868.82C313.45 865.89 314.66 862.95 315.74 860C346.07 837.71 366.16 804.34 387.97 774.21L424.14 724.21C430.501 720.801 435.896 715.837 439.82 709.78C443.333 706.835 446.316 703.311 448.64 699.36C451.78 695.142 454.261 690.472 456 685.51C459.634 682.33 462.681 678.536 465 674.3C475.66 667 483.08 654.88 482.48 641.54Z" fill="white"/>
<path d="M985.22 546C977.22 531.71 962.12 523.82 946.1 523.42C935.98 523.16 925.72 524.04 915.61 524.42C902.47 524.84 889.61 525.14 876.56 527.17C861.9 529.45 848.19 537.74 837.99 548.34C832.99 553.49 828.9 559.34 823.85 564.34C821.547 565.018 819.211 565.575 816.85 566.01C812.28 566.44 807.71 566.74 803.16 567.27C789.96 568.81 779.59 570.77 767.69 577.15C754 584.49 744.5 596.35 735.31 608.37C729.12 616.164 722.176 623.329 714.58 629.76L713.9 630.24C712.391 627.937 710.652 625.792 708.71 623.84C705.511 620.122 702.117 616.576 698.54 613.22C690.92 606.05 680.84 601.5 670.26 601.5C665.776 601.306 661.304 602.112 657.17 603.86C652 587.51 637.55 575.22 619.17 575.22C618.28 575.22 617.4 575.22 616.52 575.33C617.231 572.451 617.49 569.479 617.29 566.52C616.15 551.34 614.61 536.17 612.98 520.98C616.983 520.538 620.828 519.168 624.21 516.98C637.62 508.33 643.77 490.24 634.98 475.93C632.403 471.681 630.072 467.287 628 462.77C624.653 453.686 622.256 444.279 620.85 434.7C619.47 423.18 618.39 411.62 616.38 400.19C614.337 389.066 610.819 378.264 605.92 368.07C606.19 365.14 606.48 362.22 606.83 359.29C607.62 352.52 604.59 344.29 600.45 337.79C600.917 317.679 600.373 297.557 598.82 277.5C598.4 272.233 597.917 266.977 597.37 261.73C596.44 252.95 596.21 243.9 591.69 236.04C590.446 233.868 588.945 231.854 587.22 230.04L587.87 223.47C588.57 216.26 584.01 207.19 579.08 202.25C573.88 197.05 565.34 193.13 557.87 193.47C550.11 193.82 542.06 196.36 536.65 202.25C530.98 208.44 528.65 215.13 527.87 223.47L524.87 254.32C523.97 263.49 529.87 272.58 536.69 277.88C537.44 278.45 538.19 278.97 538.95 279.46C540.183 295.947 540.73 312.463 540.59 329.01C539.9 329.64 539.22 330.29 538.59 331.01L532.34 339.1C528.752 345.223 526.867 352.193 526.88 359.29C520.11 416.86 528.32 474.29 534.25 531.6H532.72C510.6 532.6 493.27 549.17 492.72 571.6L491.72 611.29C491.521 613.437 491.467 615.596 491.56 617.75C492.05 628.31 495.69 638.45 503.28 646.04C510.22 652.98 521.6 658.2 531.56 657.75C540.996 657.411 550.053 653.951 557.31 647.91C563.5 650.39 569.59 653.25 575.51 655.61C582.51 658.38 592.29 657.26 600.09 654.44C602.51 654.9 604.967 655.132 607.43 655.13C609.376 655.129 611.319 654.972 613.24 654.66C615.245 654.97 617.271 655.127 619.3 655.13C622.903 655.114 626.486 654.585 629.94 653.56C631.725 660.159 634.642 666.398 638.56 672C636.098 671.246 633.502 671.035 630.951 671.38C628.399 671.726 625.953 672.619 623.78 674C615.1 679.59 610.42 692 616.61 701.36L641.48 738.84C647.26 747.54 659.41 752.1 668.84 746.02C677.52 740.42 682.21 728.02 676.02 718.65C670.513 710.35 665.007 702.053 659.5 693.76C663.34 697.633 667.04 701.633 670.6 705.76C674.451 712.67 678.973 719.185 684.1 725.21C684.607 726.168 685.178 727.09 685.81 727.97C722.663 778.27 759.507 828.573 796.34 878.88C800.34 884.42 804.65 889.7 810.69 893.23C818.415 897.632 827.398 899.305 836.19 897.98C852.26 895.82 864.48 884.7 869.45 869.33C869.67 868.63 869.92 867.95 870.16 867.26C873.223 861.313 876.768 855.627 880.76 850.26C892.76 835.26 905.76 821 916.64 805.06C928.9 787.16 938.16 767.74 946.15 747.61C949.38 744.948 952.031 741.654 953.94 737.93C973.34 698.93 977.67 655.46 984.67 613.04C986.37 602.77 988.21 592.52 989.73 582.22C991.62 569.44 991.78 557.77 985.22 546Z" fill="white"/>
<path d="M393.74 256.92C387.31 256.92 387.3 266.92 393.74 266.92C400.18 266.92 400.19 256.92 393.74 256.92Z" fill="white"/>
<path d="M327.49 356.31C321.05 356.31 321.04 366.31 327.49 366.31C333.94 366.31 333.93 356.31 327.49 356.31Z" fill="white"/>
<path d="M451.17 327.6C444.73 327.6 444.72 337.6 451.17 337.6C457.62 337.6 457.61 327.6 451.17 327.6Z" fill="white"/>
<path d="M669.81 230.42C663.38 230.42 663.37 240.42 669.81 240.42C676.25 240.42 676.26 230.42 669.81 230.42Z" fill="white"/>
<path d="M656.56 358.52C650.13 358.52 650.12 368.52 656.56 368.52C663 368.52 663 358.52 656.56 358.52Z" fill="white"/>
<path d="M749.32 316.55C742.89 316.55 742.87 326.55 749.32 326.55C755.77 326.55 755.77 316.55 749.32 316.55Z" fill="white"/>
<path d="M837.66 338.64C831.23 338.64 831.22 348.64 837.66 348.64C844.1 348.64 844.11 338.64 837.66 338.64Z" fill="white"/>
<path d="M190.91 744.45C231.503 744.45 264.41 711.543 264.41 670.95C264.41 630.357 231.503 597.45 190.91 597.45C150.317 597.45 117.41 630.357 117.41 670.95C117.41 711.543 150.317 744.45 190.91 744.45Z" fill="#8E8E8E"/>
<path d="M314.41 738.95C355.003 738.95 387.91 706.043 387.91 665.45C387.91 624.857 355.003 591.95 314.41 591.95C273.817 591.95 240.91 624.857 240.91 665.45C240.91 706.043 273.817 738.95 314.41 738.95Z" fill="#8E8E8E"/>
<path d="M404.41 649.95C445.003 649.95 477.91 617.043 477.91 576.45C477.91 535.857 445.003 502.95 404.41 502.95C363.817 502.95 330.91 535.857 330.91 576.45C330.91 617.043 363.817 649.95 404.41 649.95Z" fill="#8E8E8E"/>
<path d="M972.91 679C972.912 663.401 967.951 648.206 958.744 635.614C949.537 623.022 936.562 613.686 921.697 608.958C906.832 604.229 890.848 604.353 876.059 609.312C861.269 614.27 848.44 623.807 839.43 636.54C832.947 625.396 823.647 616.154 812.464 609.741C801.28 603.327 788.606 599.968 775.714 600C762.822 600.033 750.165 603.455 739.014 609.925C727.863 616.395 718.609 625.684 712.183 636.86C705.756 648.036 702.382 660.706 702.399 673.598C702.416 686.49 705.824 699.151 712.281 710.31C718.737 721.469 728.015 730.733 739.184 737.173C750.352 743.613 763.018 747.002 775.91 747C777.07 747 778.23 747 779.38 746.91C778.49 754.43 779.89 763.03 783.82 769.13C793.48 784.13 815.57 792.77 831.71 781.68C841.67 774.84 851.67 768.08 861.71 761.4C858.9 764.25 856.05 767.05 853.21 769.83C852.79 770.25 852.38 770.67 851.99 771.1C827.09 791.02 805.88 814.3 789.57 842.1C780.28 857.9 785.44 881.17 802.12 889.99C818.8 898.81 840.12 894.3 850.01 877.43C853.997 870.647 858.333 864.075 863 857.74C873.442 844.877 885.293 833.224 898.33 823C899.903 821.898 901.382 820.668 902.75 819.32C912.67 809.62 924.42 799.08 931.23 786.91C939.06 772.91 938.55 757.05 937.98 741.55C948.659 734.974 957.475 725.773 963.59 714.823C969.704 703.874 972.913 691.541 972.91 679Z" fill="#8E8E8E"/>
<path d="M685.91 657.95C726.503 657.95 759.41 625.043 759.41 584.45C759.41 543.857 726.503 510.95 685.91 510.95C645.317 510.95 612.41 543.857 612.41 584.45C612.41 625.043 645.317 657.95 685.91 657.95Z" fill="#8E8E8E"/>
<path d="M184.45 742.16C182.95 761.21 191.69 782.28 199.21 799.42C202.967 808.228 208.436 816.202 215.3 822.88C223.1 830.25 232.46 835.74 241.25 841.75L234.17 836.28C235.466 837.304 236.655 838.457 237.72 839.72L232.24 832.63C234.81 835.96 237.24 839.4 239.78 842.73C242.78 846.55 246.29 849.11 249.36 852.73L243.88 845.65L244.59 846.87L241.07 838.51C242.93 843.28 243.83 847.51 246.39 852.3C247.62 854.6 249.23 856.63 250.39 858.94L246.86 850.58C248.43 855.58 249.18 860.29 252.48 864.89C260.88 876.6 272.48 883.61 287.36 881.6C300.61 879.82 313.22 870.03 316.46 856.53C316.869 854.764 317.394 853.027 318.03 851.33L314.5 859.7C315.194 858.118 316.062 856.619 317.09 855.23L311.62 862.31C312.541 861.256 313.544 860.276 314.62 859.38C321.13 853.87 324.87 842.86 324.87 834.63C324.87 826.05 321.06 815.8 314.62 809.89C307.95 803.76 299.19 799.22 289.87 799.63C280.16 800.07 272.54 803.63 265.12 809.89C256.85 816.89 251.47 827.52 248.98 837.89L312.98 829.53L312.18 828.42L315.7 836.78C313.88 831.9 313.87 829.09 310.88 823.58C309.64 821.29 308.02 819.26 306.88 816.94L310.4 825.3C308.09 818.71 305.97 812.36 301.63 806.74C298.63 802.87 295.27 800.31 292.06 796.74L297.53 803.83C291.07 795.34 285.69 787.3 276.62 781.28C271.03 777.57 265.5 773.93 260.1 769.9L267.19 775.38C264.828 773.435 262.686 771.239 260.8 768.83L266.28 775.91C263.65 772.219 261.442 768.244 259.7 764.06L263.22 772.42C259.02 762.16 254.99 751.1 253.41 740.1L254.66 749.4C254.374 746.988 254.317 744.553 254.49 742.13C255.16 733.61 250.11 723.25 244.24 717.38C238.17 711.31 228.24 706.74 219.49 707.13C199.3 708.04 186.03 722.53 184.49 742.13L184.45 742.16Z" fill="#8E8E8E"/>
<path d="M230.68 722.35C230.68 736.68 231.77 751.52 229.87 765.74L231.12 756.44C229.12 769.12 223.12 782.12 227.65 795.03C231.38 805.6 237.48 813.31 247.91 817.72C257.28 821.67 270.35 822.42 279.06 815.95C284.006 812.483 288.64 808.591 292.91 804.32C295.313 801.669 297.888 799.18 300.62 796.87L293.53 802.34C300 797.68 307.19 794.17 313.86 789.83C320.07 785.83 326.15 781.63 332.49 777.83C347.6 768.66 361.6 758.22 375.38 747.15C380.973 742.65 386.44 738.007 391.78 733.22C397.4 728.15 402.55 722.46 408.39 717.63C415.139 712.147 420.89 705.54 425.39 698.1C429 692 432.44 685.71 436.66 680L431.19 687.08C434.19 683.51 438.08 681.08 441.36 677.8C444.64 674.52 447.6 670.89 451.18 667.8L444.1 673.28C449.69 668.96 456.2 665.69 460.96 660.34C463.974 657.1 466.516 653.451 468.51 649.5C469.443 647.243 470.595 645.082 471.95 643.05L466.47 650.13C468.707 647.426 471.217 644.96 473.96 642.77L466.88 648.24L468.02 647.46L415.36 617.24C415.41 618.096 415.36 618.955 415.21 619.8L416.46 610.49C416.053 612.325 415.488 614.122 414.77 615.86L418.3 607.5C410.69 625.03 402.36 644.5 408.36 663.96C411.98 675.73 420.76 685.09 432.81 688.41C444.64 691.67 458.29 688.41 466.86 679.41C469.55 676.59 471.86 673.46 474.67 670.73C487.79 657.92 488.48 633.91 474.67 621.23C460.45 608.18 439.3 607.69 425.17 621.23C422.31 623.97 419.17 626.48 416.42 629.3C412.36 633.44 409.31 638.39 405.99 643.1L411.46 636.01C410.558 637.125 409.554 638.153 408.46 639.08L415.54 633.6C408.49 639.03 402.91 642.8 398.23 650.5C396.579 653.511 394.773 656.435 392.82 659.26L398.3 652.18C390.04 662.43 382.09 672.81 374.24 683.37L379.71 676.29C370.34 688.03 360.45 699.59 350.33 710.71C345.4 716.14 340.46 721.58 335.17 726.71C328.162 733.617 321.715 741.07 315.89 749L321.36 741.92C316.69 747.92 311.98 753.83 307.36 759.87L312.84 752.78C311.958 753.843 310.988 754.83 309.94 755.73L317 750.3L315.91 751L358.32 756.48L358.12 756.3L363.59 763.38L363.46 763.13L366.99 771.49L366.93 771.18L368.18 780.49V780.12L366.93 789.42C367.048 788.73 367.253 788.058 367.54 787.42L364 795.79C365.282 793.222 366.834 790.799 368.63 788.56L363.15 795.64C365.672 792.312 368.575 789.292 371.8 786.64L364.72 792.11C365.605 791.432 366.564 790.858 367.58 790.4L359.22 793.93C359.519 793.814 359.831 793.736 360.15 793.7L350.85 794.95H351.26L316.26 759.95V760.95L317.51 751.64C317.273 752.845 316.918 754.024 316.45 755.16L319.98 746.8C318.541 750.116 316.8 753.293 314.78 756.29L320.25 749.2C316.35 753.79 311.08 756.92 307.08 761.48C301.3 768.08 297.38 775.27 292.24 782.16L297.71 775.07C292.57 781.54 287.91 788.29 282.96 794.85L288.44 787.77C284.83 792.3 280.9 796.67 277.82 801.58C274.61 806.72 273.06 812.5 271.04 818.11L274.57 809.75C274.144 810.765 273.557 811.704 272.83 812.53L278.3 805.45C271.88 812.37 266.76 820.18 261.06 827.68L266.53 820.59C261.295 827.556 255.204 833.835 248.4 839.28L255.48 833.81C253.77 835.07 252.02 836.26 250.21 837.38C234.66 847.03 227.21 869.09 237.66 885.27C247.71 900.86 268.9 908.15 285.54 897.83C303.75 886.53 316.99 870.29 328.85 852.73L323.37 859.82C326.88 855.3 331.18 851.44 334.26 846.54C337.34 841.64 338.47 835.88 340.65 830.54L337.12 839C338.109 837.2 339.24 835.481 340.5 833.86L335 840.91C339.83 834.91 344.08 828.53 348.7 822.4L343.22 829.49C347.03 824.72 351.22 820.09 354.48 814.95C356.38 811.95 358.03 808.95 360.18 806.14L354.7 813.22C360.12 806.56 367.21 801.98 372.45 795.22C380.27 785.1 385.82 772.92 386.27 759.98C386.92 741.16 369.7 724.85 351.27 724.98C335.84 725.08 322.88 734.55 313.67 746.17C307.93 753.41 302.81 759.87 300.04 768.85C296.19 781.32 298.66 796.97 308.82 806C320.06 816 337.76 820.2 351.24 811.48C360.31 805.61 365.6 797.85 372.04 789.48L366.57 796.57C371.12 791.28 375.28 785.7 379.52 780.16L374.04 787.24C379.04 780.99 385.28 775.83 390.77 770C396.26 764.17 401.94 758 407.32 751.8C419.45 737.85 430.71 723.32 441.87 708.61L436.4 715.69C444.05 705.83 452.22 696.61 458.64 685.86L453.17 692.95C453.98 691.915 454.903 690.972 455.92 690.14L448.83 695.62C452.83 692.62 457.12 689.88 460.44 686.13C463.678 682.281 466.667 678.229 469.39 674L463.92 681.08C467 677.23 471.11 674.16 474.67 670.75L425.17 621.25C422.37 623.98 420.06 627.11 417.36 629.93L475.86 645.38C475.522 644.496 475.3 643.571 475.2 642.63L476.45 651.93C476.345 650.431 476.365 648.926 476.51 647.43L475.26 656.74C475.992 651.43 477.335 646.222 479.26 641.22L475.73 649.58C480.41 638.79 485.37 629.35 485.36 617.26C485.31 592.14 455.13 571.76 432.69 587.04C426.85 590.814 421.569 595.388 417 600.63C414.19 604.01 411.22 607.5 409.28 611.49C408.327 613.703 407.235 615.854 406.01 617.93L411.48 610.85C410.898 611.597 410.227 612.268 409.48 612.85L416.56 607.38C410 612.38 402.92 616.57 397.13 622.54C393.32 626.46 389.64 630.09 385.51 633.67C374.69 643.03 369.92 656.78 361.45 667.88L366.93 660.79C363.87 664.37 359.99 666.92 356.55 670.07C352.38 673.88 348.48 678 344.31 681.82C336.14 689.3 327.6 696.34 318.85 703.12L325.93 697.65C312 708.35 296.83 716.76 282.41 726.71C275.25 731.71 267.48 735.57 260.27 740.42C255.121 743.77 250.338 747.651 246 752C243.433 754.818 240.708 757.489 237.84 760L244.93 754.52L243.69 755.44L295.11 776.36L294.9 775.77L296.15 785.07C296.05 784.21 296.05 783.34 296.15 782.48L294.9 791.79C295.56 788.263 296.398 784.772 297.41 781.33C299.137 773.999 300.185 766.524 300.54 759C301.22 746.85 300.67 734.53 300.68 722.36C300.68 704.05 284.58 686.51 265.68 687.36C246.78 688.21 230.68 702.74 230.68 722.36V722.35Z" fill="#8E8E8E"/>
<path d="M215.64 713.49C213.64 717.89 211.24 722.49 210.16 727.22C209.358 730.939 208.834 734.713 208.59 738.51C208.508 739.726 208.532 740.948 208.66 742.16C209.047 751.361 212.678 760.129 218.91 766.91C221.98 770.255 225.862 772.749 230.18 774.15C234.327 776.33 238.98 777.366 243.66 777.15C252.72 776.75 262.1 773.77 268.41 766.9L273.89 759.82C277.023 754.459 278.67 748.359 278.66 742.15C278.5 740.714 278.5 739.266 278.66 737.83L277.41 747.14C277.731 745.326 278.258 743.555 278.98 741.86L275.46 750.23C275.66 749.75 275.86 749.23 276.08 748.81C278.592 744.921 280.024 740.435 280.23 735.81C281.046 731.267 280.853 726.599 279.664 722.139C278.475 717.678 276.32 713.534 273.35 710C270.897 706.212 267.517 703.114 263.53 701C255.41 696.71 245.53 694.56 236.53 697.48L228.17 701C222.98 704.046 218.656 708.37 215.61 713.56L215.64 713.49Z" fill="#8E8E8E"/>
<path d="M495.81 613.06C494.96 594.06 480.43 578.06 460.81 578.06C442.5 578.06 424.96 594.16 425.81 613.06C426.66 631.96 441.19 648.06 460.81 648.06C479.12 648.06 496.66 632 495.81 613.06Z" fill="#8E8E8E"/>
<path d="M342.66 836C334.2 851.45 318.57 861.48 308.66 876C305.59 880.45 307.83 887.1 312.24 889.68C317.24 892.58 322.85 890.56 325.93 886.09C335.93 871.56 351.36 861.87 359.93 846.09C366.12 834.84 348.85 824.73 342.66 836Z" fill="white"/>
<path d="M495.33 681.08C494.687 679.403 493.942 677.766 493.1 676.18C492.91 675.81 492.73 675.44 492.54 675.08C495.98 664.8 478.98 657.74 474.13 667.79L468.46 679.54C467.384 680.316 466.518 681.347 465.94 682.54C465.243 683.985 464.445 685.379 463.55 686.71L463.23 687.2L462.73 687.71C462.17 688.29 461.63 688.88 461.05 689.43L460.47 689.96C457.758 690.594 455.294 692.017 453.39 694.05C450.6 695.48 449.06 698.77 448.92 702.05C448.313 703.95 447.865 705.896 447.58 707.87C446.966 708.061 446.368 708.299 445.79 708.58C442.682 710.163 439.96 712.41 437.819 715.163C435.677 717.917 434.169 721.108 433.4 724.51C433.395 724.583 433.395 724.657 433.4 724.73C432.876 725.072 432.381 725.456 431.92 725.88C427.145 730.285 422.743 735.078 418.76 740.21C417.731 741.523 416.946 743.01 416.44 744.6C413.072 749.625 409.437 754.465 405.55 759.1C404.138 759.976 402.969 761.194 402.15 762.64C401.55 763.64 400.93 764.64 400.33 765.64C398.548 766.529 397.031 767.871 395.93 769.53C390.733 777.259 384.995 784.611 378.76 791.53C378.302 792.037 377.893 792.586 377.54 793.17C377.31 793.43 377.09 793.71 376.88 794C370.6 802.667 364.043 811.097 357.21 819.29C357.05 819.47 356.92 819.66 356.78 819.85C354.629 820.795 352.865 822.446 351.78 824.53C351.28 824.89 350.73 825.33 350.56 825.45C348.12 826.99 346.04 829.036 344.46 831.45C340.96 837.13 341.71 843.45 345.96 848.45C346.883 849.415 348 850.173 349.238 850.673C350.476 851.173 351.806 851.404 353.14 851.35C346.606 859.369 339.396 866.813 331.59 873.6C330.687 874.381 329.965 875.349 329.475 876.437C328.984 877.525 328.737 878.707 328.75 879.9C320.16 877.08 310.75 888.67 318.57 896.55C335.027 913.027 355.24 925.261 377.47 932.2C381.82 933.57 386.47 931.26 388.77 927.61C396.93 914.86 402.72 900.83 408.83 887.04C415.25 872.567 421.667 858.103 428.08 843.65L466.52 757C467.435 754.995 467.81 752.785 467.61 750.59C472 744.69 475.71 738.39 476.76 731.15C480.53 725.512 483.95 719.648 487 713.59C490.36 706.83 494.1 699.42 495.8 692.03C496.692 688.41 496.529 684.61 495.33 681.08V681.08Z" fill="white"/>
<path d="M665.09 951.42L605.33 749.24C605.771 747.516 605.733 745.704 605.22 744C603.113 736.48 601 728.957 598.88 721.43C596.88 714.43 595.88 705.49 591.88 699.33C588.49 694.12 581.45 692.78 576.88 688.7C572.984 685.245 569.999 680.883 568.19 676C567.353 673.605 565.746 671.554 563.62 670.17C563.446 667.463 562.987 664.781 562.25 662.17C558.75 649.81 539.45 655.06 542.97 667.49C544.373 672.41 543.78 677.684 541.32 682.17C540.335 682.405 539.384 682.764 538.49 683.24C536.874 684.092 535.395 685.181 534.1 686.47C530.193 689.503 526.538 692.847 523.17 696.47C519.29 696.47 515.56 698.6 514.31 703.63L492.11 792.84C490.329 793.602 488.888 794.989 488.06 796.74C481.339 811.215 477.763 826.951 477.57 842.91C475.372 844.917 474.026 847.691 473.81 850.66C473.37 854.902 472.669 859.114 471.71 863.27C470.04 868.57 468.58 873.93 467.36 879.39C465.6 885.19 463.76 890.95 462.18 896.64C458.98 908.08 455.783 919.52 452.59 930.96C451.169 931.81 449.996 933.018 449.191 934.465C448.385 935.911 447.974 937.544 448 939.2C448.09 940.56 448.17 941.92 448.26 943.28C444.94 948.34 445.82 956.63 453.36 959.06C486.17 969.65 520.52 977.83 555.21 977.06C572.31 976.68 588.93 973.52 605.53 969.66C622.13 965.8 638.4 962.15 655.44 964.08C662 964.82 666.77 957.1 665.09 951.42Z" fill="white"/>
<path d="M797.64 886.68C791.703 881.503 786.195 875.855 781.17 869.79C780.57 869.06 779.36 867.45 779.3 867.37C778.3 865.94 777.22 864.5 776.23 863.03C774.19 860.003 772.267 856.897 770.46 853.71C766.98 847.55 764.32 841 760.96 834.79C756.634 826.61 750.316 819.652 742.59 814.56C742.37 814.42 742.15 814.31 741.93 814.18L684.58 737.8C682.477 734.988 679.849 732.611 676.84 730.8C675.69 723.8 672.39 717.59 667.01 711.69C665.01 709.45 662.56 707.6 660.4 705.49L659.91 704.99C659.428 701.941 658.283 699.036 656.555 696.479C654.827 693.921 652.559 691.774 649.91 690.19C649.22 689.32 648.5 688.47 647.78 687.62C647.73 686.651 647.382 685.722 646.784 684.958C646.187 684.194 645.368 683.632 644.44 683.35C642.44 679.98 640.59 676.57 638.81 673.1C635.88 667.37 627.25 672.42 630.17 678.1C630.38 678.52 630.61 678.93 630.82 679.34C630.447 679.774 630.168 680.28 629.998 680.826C629.828 681.372 629.772 681.947 629.833 682.516C629.894 683.084 630.07 683.634 630.352 684.132C630.634 684.63 631.014 685.065 631.47 685.41C632.617 686.39 633.743 687.39 634.85 688.41C626.43 690.86 620.11 698.17 620.06 707.53C620.01 716.43 623.68 724.17 629.32 730.74C629.708 731.941 630.2 733.105 630.79 734.22C647.55 766.053 663.293 798.387 678.02 831.22C681.627 839.287 685.173 847.38 688.66 855.5C689.53 857.5 690.39 859.5 691.24 861.5L692.55 864.62C694.257 868.7 695.947 872.783 697.62 876.87C704.553 893.81 711.22 910.863 717.62 928.03C720.46 935.67 725.84 941.23 734.25 942.35C742.1 943.41 748.85 939.95 753.46 933.79H753.52C751.71 936.44 752.76 934.85 753.65 933.73C754.2 933.43 754.75 933.08 755.27 932.73C759.37 931.55 763.45 930.47 767.6 929.51C778.69 926.94 789.44 923.03 797.6 914.81C804.91 907.69 805.8 893.83 797.64 886.68ZM747.06 893.58C746.29 891.58 745.51 889.58 744.73 887.64C746.04 889.47 747.38 891.29 748.73 893.07C748.177 893.23 747.62 893.4 747.06 893.58V893.58Z" fill="white"/>
<path d="M627.27 586.46C626.97 581.168 624.76 576.165 621.05 572.38C620.325 571.577 619.338 571.06 618.265 570.92C617.193 570.781 616.106 571.029 615.2 571.62C611.65 569.62 606.04 572.22 607.8 576.98C608.8 579.64 610.04 581.98 611.1 584.36C610.357 584.428 609.634 584.645 608.977 584.998C608.319 585.352 607.74 585.834 607.273 586.417C606.806 586.999 606.462 587.67 606.26 588.389C606.059 589.108 606.004 589.86 606.1 590.6C607.122 597.806 608.707 604.921 610.84 611.88C612.47 617.17 613.99 625.33 618.98 628.46C622.26 630.46 626.46 627.83 626.51 624.14C626.65 612.18 626.797 600.217 626.95 588.25C627.193 587.686 627.302 587.073 627.27 586.46V586.46Z" fill="white"/>
<path d="M718.65 555.08C709.619 545.748 699.945 537.061 689.7 529.08C684.707 525.2 679.597 521.483 674.37 517.93C669.6 514.71 664.74 510.54 658.69 512.73C653.47 514.61 648.69 519.34 644.33 522.73C639.43 526.406 634.789 530.416 630.44 534.73C622.17 543.14 614.88 553.33 613.92 565.4C613.55 570.13 618.92 571.35 621.92 569.09C622.656 569.495 623.48 569.712 624.32 569.72C639.795 570.087 655.278 569.663 670.71 568.45C685.49 567.27 700.3 563.95 715.11 563.58C716.08 563.548 717.02 563.237 717.818 562.685C718.617 562.134 719.24 561.364 719.613 560.468C719.986 559.572 720.094 558.588 719.923 557.633C719.752 556.677 719.31 555.791 718.65 555.08V555.08Z" fill="white"/>
<path d="M458.28 550.74C458.43 549.3 458.53 547.92 458.66 546.74C459.66 537.36 459.91 528.16 458.33 518.82C458.166 517.917 457.716 517.091 457.046 516.465C456.376 515.838 455.522 515.443 454.61 515.34C454.87 511.53 449.7 507.9 445.97 511.34L398.23 554.72C395.23 557.48 397.42 563.72 401.76 563.26C410.645 562.33 419.577 561.91 428.51 562C436.63 562.12 445.44 562 452.76 565.9C454.91 567.06 458.51 566.67 459.6 564.11C461.9 558.74 459.92 555.09 458.28 550.74Z" fill="white"/>
<path d="M583.07 254.68C579.79 249.52 573.93 247.52 568.17 246.68C554.41 244.75 540.71 247 527.97 252.28L526.78 252.77C526.733 252.791 526.69 252.818 526.65 252.85C526.49 247.21 526.34 241.59 526.23 235.98C526.12 230.37 517.65 228.98 516.41 234.65C514.853 241.654 514.204 248.83 514.48 256C509.554 272.842 508.336 290.552 510.91 307.91C510.981 308.414 511.141 308.901 511.38 309.35C510.694 310.2 510.317 311.258 510.31 312.35C509.763 332.87 508.723 353.357 507.19 373.81C505.1 369.81 498.46 370.76 497.81 376.16C496.57 386.41 493.93 397.34 495.81 407.62C495.899 408.047 496.044 408.461 496.24 408.85C495.654 409.293 495.181 409.868 494.859 410.528C494.538 411.189 494.377 411.916 494.39 412.65C494.2 426.16 490.01 439.21 489.25 452.65C488.369 452.807 487.553 453.22 486.904 453.837C486.255 454.454 485.802 455.248 485.6 456.12C485.3 457.21 485.03 458.3 484.74 459.39C480.15 474.97 469.51 487.87 462.64 502.46C462.237 503.441 462.095 504.51 462.23 505.562C462.365 506.614 462.772 507.613 463.41 508.46C463.62 517.8 461.56 527.05 461.27 536.39C460.94 546.67 463.66 557.08 462.14 567.24C462.07 567.67 462 568.11 461.92 568.56C459.75 567.48 457.11 567.47 454.73 567.15C450.82 566.63 446.91 566.15 442.99 565.7C435.16 564.83 427.3 564.16 419.43 563.78C412.55 563.45 404.49 562.28 397.71 563.78C392.5 564.94 388.31 569.96 390.56 575.38C390.911 576.25 391.489 577.01 392.232 577.581C392.976 578.152 393.859 578.515 394.79 578.63C395.422 579.192 396.186 579.584 397.01 579.77C410.188 583.012 423.799 584.133 437.33 583.09C445.994 583.812 454.694 583.989 463.38 583.62C463.761 583.605 464.14 583.551 464.51 583.46C466.289 584.561 468.338 585.149 470.43 585.16C475.33 585.16 478.83 582.69 481.36 579.16C481.36 579.16 481.36 579.26 481.36 579.32C480.987 597.6 480.62 615.883 480.26 634.17C480.13 641.02 478.63 648.84 486.05 652.17C491.37 654.59 497.6 655.71 503.67 656.17C500.73 657.47 498.92 661.36 501.96 664.17C507.05 668.86 512.17 675.27 519.86 674.25L520.28 674.17C520.835 674.713 521.526 675.097 522.28 675.28C523.469 675.545 524.701 675.545 525.89 675.28C526.234 675.193 526.569 675.073 526.89 674.92C527.147 674.834 527.397 674.73 527.64 674.61L530.64 673.07C531.667 672.455 532.443 671.495 532.829 670.362C533.216 669.228 533.188 667.995 532.75 666.88C534.5 665.31 536.18 663.71 537.81 662.29C541.15 659.4 538.41 653.72 534.27 653.76C527.603 653.813 520.97 654.113 514.37 654.66C515.143 653.783 515.56 652.649 515.54 651.48C514.54 623.347 513.783 595.21 513.27 567.07C513.617 564.622 513.515 562.131 512.97 559.72C512.854 559.23 512.661 558.761 512.4 558.33C518.97 558.316 525.528 558.875 532 560C532.001 560.626 532.128 561.245 532.372 561.821C532.617 562.397 532.974 562.918 533.423 563.353C533.873 563.789 534.405 564.129 534.988 564.356C535.572 564.582 536.195 564.689 536.82 564.67C541.68 564.67 542.82 558.96 540.38 556.17C540.452 555.818 540.479 555.459 540.46 555.1C540.811 554.68 541.071 554.193 541.226 553.668C541.381 553.144 541.427 552.593 541.36 552.05C539.127 530.53 537.967 508.943 537.88 487.29C538.635 486.472 539.059 485.403 539.07 484.29L539.49 416.83C539.524 415.743 539.17 414.679 538.49 413.83C538.526 413.728 538.556 413.625 538.58 413.52C539.717 407.983 539.734 402.274 538.63 396.73C539.212 396.301 539.673 395.73 539.971 395.072C540.269 394.414 540.392 393.69 540.33 392.97C537.489 353.568 536.941 314.035 538.69 274.57C538.732 273.756 538.549 272.946 538.16 272.23C541.44 270.839 544.564 269.106 547.48 267.06C547.69 267.06 547.91 267.06 548.13 267.11C558.572 267.167 568.776 270.233 577.52 275.94C580.02 277.54 584.37 276.11 584.87 272.94C585.8 266.77 586.58 260.21 583.07 254.68ZM500.57 519.75C501.19 511.28 501.69 502.81 501.74 494.32C501.783 493.537 501.621 492.756 501.271 492.055C500.92 491.353 500.392 490.755 499.74 490.32C500.66 486.05 500.81 481.49 501.33 477.24C501.429 476.676 501.409 476.097 501.272 475.54C501.134 474.984 500.881 474.463 500.53 474.01C501.31 468.65 502.25 463.31 503.03 457.95C503.1 461.15 503.2 464.34 503.36 467.54C503.391 468.091 503.505 468.634 503.7 469.15C503.003 470.019 502.616 471.096 502.6 472.21C501.87 491.97 502.6 512.66 499.38 532.38C499.209 531.383 498.962 530.4 498.64 529.44C500.14 526.73 500.34 522.89 500.57 519.75V519.75ZM503.17 561.19C503.17 562.45 503.22 563.7 503.24 564.96C502.414 564.814 501.565 564.894 500.78 565.19C495.98 566.87 492.35 570.92 489.64 575.61C488.788 574.987 487.775 574.623 486.722 574.56C485.668 574.498 484.619 574.741 483.7 575.26C484.38 573.798 484.967 572.295 485.46 570.76C485.572 570.399 485.642 570.027 485.67 569.65C492.06 568.65 497.86 565.53 499.02 558.77C499.07 558.5 499.1 558.23 499.14 557.97C499.594 558.361 500.125 558.652 500.699 558.824C501.272 558.997 501.876 559.046 502.47 558.97L503.75 558.87C503.353 559.578 503.153 560.379 503.17 561.19V561.19ZM504.8 413.6C504.08 420.727 503.57 427.863 503.27 435.01C502.853 434.594 502.365 434.256 501.83 434.01C503.08 426.95 504.32 419.88 504.42 412.68C504.425 412.63 504.425 412.58 504.42 412.53C504.556 412.767 504.713 412.991 504.89 413.2C504.86 413.35 504.82 413.47 504.8 413.6ZM505.14 398.13C505.14 398.04 505.05 397.93 505 397.84C505.146 394.277 505.516 390.726 506.11 387.21C505.803 390.85 505.48 394.49 505.14 398.13ZM526.92 263.85C527.22 264.286 527.584 264.674 528 265L527 265.27C527 264.82 526.94 264.33 526.92 263.85ZM527.41 280.23C527.41 278.63 527.31 277.03 527.27 275.43L528.42 275.2C528.073 276.873 527.737 278.55 527.41 280.23Z" fill="#494949"/>
<path d="M577.09 193.49C575.715 188.835 572.965 184.704 569.2 181.64C565.61 178.56 561.28 174.83 556.47 174.17C547.02 172.86 538.37 184.17 533.89 191.17C530.4 196.6 539.05 201.62 542.53 196.17C542.98 195.47 543.46 194.8 543.95 194.17C544.815 194.581 545.788 194.706 546.729 194.527C547.669 194.347 548.528 193.871 549.18 193.17C551.78 191.8 557.18 193.87 559.58 194.61C563.132 195.723 566.544 197.24 569.75 199.13C570.611 199.6 571.59 199.809 572.567 199.733C573.545 199.657 574.479 199.298 575.257 198.701C576.035 198.103 576.622 197.293 576.947 196.368C577.273 195.442 577.322 194.443 577.09 193.49Z" fill="#494949"/>
<path d="M722.39 564.25C721.812 563.319 720.954 562.595 719.939 562.182C718.924 561.769 717.804 561.688 716.74 561.95C710 563.63 703.18 563.1 696.31 562.87C689.409 562.678 682.505 563.103 675.68 564.14C661.75 566.14 648.15 569.98 633.96 569.63C633.14 569.598 632.325 569.773 631.59 570.14C631.03 569.68 630.47 569.23 629.88 568.79C624.71 564.94 619.72 573.62 624.88 577.43C625.613 577.977 626.317 578.561 626.99 579.18C625.85 582.18 627.62 586.47 631.53 586.29C651.32 585.37 671.05 583.72 690.76 581.78C700.6 580.78 710.52 580.09 720.32 578.78C723.02 578.41 725.6 577.42 726.5 574.51C727.66 570.58 724.39 567.2 722.39 564.25Z" fill="#494949"/>
<path d="M607.89 656.88C607.12 657.41 606.22 658.11 605.27 658.88C602.7 660.31 599.57 660.19 596.61 660.09C594.61 660.03 592.75 659.97 590.85 660L590.1 659.69C590.63 659.242 591.05 658.678 591.327 658.041C591.605 657.405 591.732 656.713 591.7 656.02C591.613 645.44 591.527 634.853 591.44 624.26C591.99 623.825 592.424 623.26 592.701 622.616C592.979 621.972 593.092 621.269 593.03 620.57C591.903 602.197 591.607 583.813 592.14 565.42C592.31 559.67 584.37 559.06 582.53 563.57C581.731 563.395 580.903 563.406 580.108 563.602C579.314 563.798 578.576 564.174 577.95 564.7C577.379 564.474 576.78 564.326 576.17 564.26C566.71 563.26 562.02 572.26 560.89 580.26C559.31 591.49 558.4 602.86 557.79 614.19C557.503 619.637 557.307 625.093 557.2 630.56C557.11 635.56 556.41 641.22 557.46 646.11C559.59 656.11 570.07 657.61 578.61 656.64C579.724 656.537 580.789 656.133 581.69 655.47C581.69 655.64 581.69 655.82 581.69 655.99C581.69 656.16 581.69 656.32 581.69 656.48C576.82 656.11 575.14 664.34 580.53 666.48L580.85 666.6C581.161 667.873 581.921 668.992 582.99 669.75C586.973 672.454 591.801 673.623 596.58 673.04C601.04 674.68 606.5 670.38 610.58 667.26C611.805 666.557 612.937 665.703 613.95 664.72C618 660.89 612.65 653.61 607.89 656.88Z" fill="#494949"/>
<path d="M290.91 897.95L486.91 653.95" stroke="white" stroke-width="6" stroke-miterlimit="10"/>
<path d="M378.91 949.95L498.91 686.95" stroke="white" stroke-width="6" stroke-miterlimit="10"/>
<path d="M518.91 694.95L440.91 957.95" stroke="white" stroke-width="6" stroke-miterlimit="10"/>
<path d="M587.91 694.95L664.91 955.95" stroke="white" stroke-width="6" stroke-miterlimit="10"/>
<path d="M609.91 687.95L724.91 942.95" stroke="white" stroke-width="6" stroke-miterlimit="10"/>
<path d="M878.53 749C874.03 741 865.05 733 855.78 731.44C846.25 729.84 837.44 729.92 828.78 734.97C828.32 735.24 827.87 735.52 827.41 735.82C824.83 735.73 822.26 735.65 819.74 735.64L793.03 735.53C786.724 735.568 780.55 737.335 775.18 740.64C762.91 724.64 751 708.25 739.96 691.34C739.96 691.2 739.84 691.06 739.79 690.92L739.94 690.77C747.74 682.97 753.62 670.16 753.12 658.95C752.6 647.31 748.77 635.24 739.94 627.13L730.83 620.13C725.518 617.022 719.622 615.045 713.51 614.32C711.51 612.25 709.51 610.07 707.59 607.87C700.28 599.54 686.59 594.69 675.77 594.69C664.77 594.69 651.55 599.6 643.95 607.87C638.582 613.56 634.584 620.401 632.26 627.87C629.921 632.652 628.706 637.906 628.71 643.23C627.246 654.052 628.674 665.069 632.85 675.16C637.26 685.62 645.23 693.73 652.73 702.07C661.9 712.24 670.99 722.96 682.27 730.84C696.37 752.01 711.77 772.31 727.39 792.41C750 821.42 773 850.14 795.81 879C800.99 885.56 812.62 889.25 820.56 889.25C829.14 889.25 839.39 885.44 845.3 879C851.43 872.33 855.97 863.57 855.56 854.25C855.14 851.15 854.723 848.05 854.31 844.95C852.696 839.109 849.595 833.786 845.31 829.5C839.03 821.547 832.733 813.6 826.42 805.66L838.58 805.71C854.65 805.78 869.93 801.19 878.49 786.18C881.649 780.495 883.31 774.099 883.317 767.595C883.324 761.091 881.677 754.692 878.53 749V749Z" fill="#8E8E8E"/>
<path d="M563 1119C434.742 1118.91 310.458 1074.48 211.199 993.256C111.94 912.029 43.8074 798.99 18.341 673.285C-7.12543 547.58 11.6397 416.937 71.4582 303.482C131.277 190.027 228.471 100.735 346.58 50.73C482.324 -5.97418 635.006 -6.58444 771.199 49.0328C907.392 104.65 1016 211.964 1073.25 347.48C1130.5 482.996 1131.72 635.674 1076.65 772.089C1021.57 908.503 914.696 1017.54 779.41 1075.33C710.946 1104.3 637.34 1119.15 563 1119V1119ZM562.86 135.86C457.308 135.993 355.568 175.327 277.375 246.229C199.183 317.132 150.112 414.55 139.682 519.586C129.252 624.621 158.207 729.787 220.929 814.682C283.651 899.577 375.67 958.15 479.134 979.039C582.599 999.927 690.134 981.642 780.88 927.73C871.626 873.818 939.113 788.123 970.25 687.268C1001.39 586.413 993.955 477.588 949.395 381.903C904.834 286.217 826.323 210.494 729.09 169.42C676.498 147.169 619.956 135.761 562.85 135.88L562.86 135.86Z" fill="#494949"/>
<path d="M563 14C672.393 13.8097 779.323 46.4698 869.94 107.75C958.21 167.333 1027.3 251.24 1068.85 349.3C1104.46 433.438 1118.49 525.141 1109.65 616.077C1100.81 707.012 1069.38 794.297 1018.23 870C958.647 958.27 874.74 1027.36 776.68 1068.91C692.552 1104.51 600.863 1118.53 509.941 1109.69C419.019 1100.85 331.745 1069.44 256.05 1018.3C167.775 958.709 98.6802 874.791 57.14 776.72C21.5378 692.592 7.51913 600.903 16.3576 509.981C25.1961 419.059 56.6115 331.786 107.75 256.09C167.339 167.822 251.243 98.7257 349.3 57.17C416.904 28.5503 489.588 13.8672 563 14M562.86 997C670.138 996.858 773.539 956.877 853.007 884.812C932.475 812.747 982.345 713.735 992.942 606.982C1003.54 500.229 974.11 393.345 910.362 307.063C846.613 220.78 753.09 161.25 647.934 140.02C542.778 118.789 433.485 137.372 341.255 192.164C249.025 246.955 180.432 334.049 148.782 436.552C117.132 539.055 124.682 649.659 169.966 746.911C215.25 844.162 295.04 921.129 393.86 962.88C447.323 985.511 504.804 997.116 562.86 997ZM563 0C252.06 0 0 252.1 0 563C0 873.9 252.06 1126 563 1126C873.94 1126 1126 874 1126 563C1126 252 873.93 0 563 0ZM562.86 983C330.86 983 142.8 794.94 142.8 562.94C142.8 330.94 330.87 142.94 562.86 142.94C794.85 142.94 982.91 330.94 982.91 562.93C982.91 794.92 794.84 983 562.85 983H562.86Z" fill="#494949"/>
<path d="M562.85 156.88C663.192 157.003 759.913 194.391 834.248 261.792C908.583 329.193 955.235 421.802 965.152 521.653C975.07 621.504 947.546 721.48 887.921 802.186C828.296 882.892 740.82 938.575 642.462 958.434C544.105 978.292 441.877 960.91 355.61 909.659C269.343 858.408 205.186 776.942 175.587 681.065C145.987 585.188 153.053 481.734 195.415 390.772C237.778 299.81 312.415 227.824 404.85 188.78C454.851 167.622 508.607 156.772 562.9 156.88M562.9 142.88C330.9 142.88 142.84 330.94 142.84 562.93C142.84 794.92 330.86 983 562.85 983C794.84 983 982.91 794.93 982.91 562.93C982.91 330.93 794.84 142.93 562.85 142.93L562.9 142.88Z" fill="#494949"/>
<path d="M562.85 156.88C663.192 157.003 759.913 194.391 834.248 261.792C908.583 329.193 955.235 421.802 965.152 521.653C975.07 621.504 947.546 721.48 887.921 802.186C828.296 882.892 740.82 938.575 642.462 958.434C544.105 978.292 441.877 960.91 355.61 909.659C269.343 858.408 205.186 776.942 175.587 681.065C145.987 585.188 153.053 481.734 195.415 390.772C237.778 299.81 312.415 227.824 404.85 188.78C454.851 167.622 508.607 156.772 562.9 156.88M562.9 142.88C330.9 142.88 142.84 330.94 142.84 562.93C142.84 794.92 330.86 983 562.85 983C794.84 983 982.91 794.93 982.91 562.93C982.91 330.93 794.84 142.93 562.85 142.93L562.9 142.88Z" fill="#494949"/>
<path d="M410.47 1053.79L410.291 1063L418.253 1065.56L418.637 1029.57L408.928 1026.45L388.396 1055.95L396.067 1058.42L401.1 1050.77L410.47 1053.79ZM403.949 1045.58L408.125 1039.26C409.269 1037.54 410.551 1035.22 411.662 1033.44L411.759 1033.47C411.619 1035.56 411.421 1038.18 411.378 1040.31L411.183 1047.91L403.949 1045.58Z" fill="white"/>
<path d="M462.767 1075.95L470.214 1077.55L475.584 1043.47L465.638 1041.34L459.64 1051.76C457.737 1055.27 455.634 1059.48 453.849 1063.17L453.7 1063.14C453.796 1059.03 453.646 1054.61 453.432 1050.48L452.543 1038.53L442.397 1036.36L433.029 1069.58L440.076 1071.09L443.418 1058.43C444.567 1054.28 445.831 1049.11 447.006 1044.61L447.106 1044.63C446.963 1049.2 447.084 1054.24 447.338 1058.43L448.141 1072.24L454.089 1073.52L461.004 1061.25C463.149 1057.58 465.577 1053.08 467.548 1049.01L467.697 1049.04C466.648 1053.94 465.748 1058.87 465.031 1062.95L462.767 1075.95Z" fill="white"/>
<path d="M506.616 1047.96C496.568 1046.75 489.131 1053.58 487.895 1063.78C486.72 1073.47 491.703 1081.81 501.801 1083.04C511.747 1084.24 519.333 1078.3 520.686 1067.14C521.824 1057.75 517.067 1049.23 506.616 1047.96ZM505.673 1054.05C510.975 1054.69 513.267 1060.3 512.526 1066.41C511.725 1073.02 508.146 1077.61 502.945 1076.98C497.795 1076.35 495.234 1071.28 496.042 1064.61C496.844 1058 500.473 1053.42 505.673 1054.05Z" fill="white"/>
<path d="M542.337 1085.59L542.647 1075.23C542.815 1069.62 542.859 1064.77 542.791 1060.23L542.946 1060.18C544.508 1064.26 546.619 1068.77 548.548 1072.5L555.495 1085.98L563.655 1086.23L564.686 1051.85L557.546 1051.64L557.244 1061.68C557.09 1066.84 557.104 1071.48 557.477 1076.04L557.324 1076.03C555.911 1072.11 553.999 1067.76 552.068 1064.08L545.306 1051.27L536.228 1051L535.197 1085.37L542.337 1085.59Z" fill="white"/>
<path d="M609.239 1064.45L596.462 1065.23L596.834 1071.29L602.128 1070.96L602.57 1078.14C601.978 1078.48 600.565 1078.78 598.783 1078.89C592.42 1079.28 587.735 1075.38 587.3 1068.3C586.843 1060.87 591.504 1056.9 597.969 1056.5C601.736 1056.27 604.118 1056.79 606.051 1057.49L607.298 1051.18C605.568 1050.47 602.105 1049.81 597.676 1050.08C586.426 1050.78 578.53 1057.8 579.18 1069.21C579.439 1074.25 581.446 1078.62 584.783 1081.38C588.127 1084.24 592.755 1085.54 599.016 1085.16C603.546 1084.88 608.008 1083.48 610.35 1082.52L609.239 1064.45Z" fill="white"/>
<path d="M642.112 1045.62L645.755 1064.41C647.839 1075.16 653.748 1078.88 662.244 1077.24C671.041 1075.53 675.329 1069.57 673.314 1059.17L669.651 1040.28L662.054 1041.75L665.814 1061.14C666.967 1067.09 665.31 1070.32 661.312 1071.09C657.414 1071.85 654.643 1069.32 653.519 1063.53L649.759 1044.13L642.112 1045.62Z" fill="white"/>
<path d="M692.114 1068.56C694.263 1069.06 698.26 1068.99 702.03 1067.93C711.087 1065.39 714.025 1059.49 712.469 1053.95C711.161 1049.3 707.565 1047.04 701.133 1046.52C696.419 1046.11 694.297 1045.7 693.705 1043.59C693.223 1041.88 694.376 1039.97 697.608 1039.06C700.839 1038.15 703.451 1038.42 704.952 1038.69L704.923 1032.2C702.716 1031.87 699.754 1031.85 696.033 1032.9C688.249 1035.09 684.76 1040.72 686.344 1046.35C687.693 1051.15 692.121 1053.18 698.142 1053.55C702.507 1053.85 704.404 1054.58 704.982 1056.64C705.588 1058.8 704.176 1060.72 700.749 1061.69C697.567 1062.58 694.193 1062.42 691.896 1061.96L692.114 1068.56Z" fill="white"/>
<path d="M262.811 920.044L269.197 925.202L278.332 913.891L288.433 922.05L292.613 916.874L282.513 908.716L287.704 902.288L298.514 911.019L302.728 905.802L285.532 891.913L262.811 920.044Z" fill="white"/>
<path d="M327.888 922.835C318.981 917 308.779 919.976 302.856 929.018C297.225 937.612 298.034 947.801 306.986 953.666C315.804 959.443 325.731 957.374 332.212 947.482C337.666 939.157 337.153 928.905 327.888 922.835ZM324.161 928.134C328.861 931.213 328.407 937.569 324.859 942.985C321.017 948.848 315.503 951.505 310.893 948.484C306.327 945.493 306.279 939.513 310.15 933.604C313.991 927.741 319.551 925.114 324.161 928.134Z" fill="white"/>
<path d="M337.379 971.519L344.548 975.246L351.089 962.664L353.273 963.8C356.192 965.378 357.001 967.185 355.782 971.618C354.683 976.052 354.085 979.058 354.138 980.232L361.545 984.082C361.569 982.527 362.744 977.831 363.623 973.704C364.347 970.341 364.223 967.563 362.46 965.501L362.535 965.358C365.807 965.793 370.159 964.497 372.282 960.414C373.812 957.471 373.928 954.696 372.819 952.19C371.478 949.201 368.524 946.761 363.777 944.293C359.931 942.293 356.317 940.776 353.793 939.946L337.379 971.519ZM358.395 948.611C358.967 948.788 360.038 949.164 361.795 950.077C365.093 951.852 366.322 954.361 364.792 957.304C363.336 960.106 360.261 960.799 356.653 958.923L353.804 957.442L358.395 948.611Z" fill="white"/>
<path d="M401.651 1000.86L409.354 1003.63L419.255 976.145L428.519 979.482L430.84 973.038L404.762 963.644L402.441 970.088L411.553 973.371L401.651 1000.86Z" fill="white"/>
<path d="M443.195 976.875L434.318 1011.83L442.253 1013.85L445.967 999.221L458.985 1002.53L455.271 1017.15L463.154 1019.15L472.032 984.199L464.148 982.196L460.737 995.629L447.719 992.323L451.131 978.89L443.195 976.875Z" fill="white"/>
<path d="M506.528 1004.41L493.411 1002.4L494.547 994.998L508.458 997.131L509.472 990.52L487.469 987.145L482.001 1022.79L504.744 1026.28L505.758 1019.67L491.107 1017.42L492.405 1008.96L505.522 1010.97L506.528 1004.41Z" fill="white"/>
<path d="M566.145 1008.01L552.876 1007.79L553.002 1000.29L567.073 1000.53L567.185 993.843L544.928 993.47L544.324 1029.53L567.33 1029.92L567.442 1023.23L552.622 1022.98L552.765 1014.42L566.034 1014.64L566.145 1008.01Z" fill="white"/>
<path d="M613.237 1027.31L601.181 1009.7L610 991.385L600.715 992.083L598.167 998.875C597.417 1001.02 596.843 1002.68 596.162 1005.04L596.055 1005.04C595.049 1003.08 594.116 1001.38 592.885 999.272L589.243 992.945L579.905 993.647L591.273 1010.66L582.236 1029.64L591.52 1028.94L594.019 1022.21C594.951 1019.61 595.718 1017.68 596.308 1015.54L596.415 1015.53C597.585 1017.54 598.579 1019.34 600.102 1021.75L603.846 1028.01L613.237 1027.31Z" fill="white"/>
<path d="M629.532 1025.14L637.497 1023.78L635.331 1011.07C636.088 1011.05 637.046 1010.94 638.101 1010.76C642.848 1009.95 646.712 1008.1 649.015 1005.04C650.783 1002.68 651.441 999.529 650.847 996.048C650.254 992.566 648.221 989.873 645.647 988.466C642.95 986.971 639.254 986.624 634.295 987.469C629.39 988.305 625.962 989.215 623.555 990.059L629.532 1025.14ZM632.482 994.346C633.035 994.089 634.116 993.742 635.751 993.463C639.76 992.78 642.361 994.346 642.918 997.616C643.538 1001.26 641.269 1003.87 636.997 1004.6C635.836 1004.79 634.983 1004.88 634.27 1004.84L632.482 994.346Z" fill="white"/>
<path d="M671.619 1017.05L693.418 1011.37L691.689 1004.74L677.812 1008.36L670.438 980.09L662.516 982.156L671.619 1017.05Z" fill="white"/>
<path d="M710.103 967.264C700.086 970.878 696.335 980.821 700.004 990.989C703.491 1000.65 712.122 1006.13 722.189 1002.5C732.105 998.918 736.416 989.74 732.402 978.616C729.024 969.254 720.522 963.505 710.103 967.264ZM712.099 973.427C717.384 971.52 722.192 975.702 724.389 981.792C726.769 988.386 725.579 994.39 720.394 996.26C715.26 998.113 710.45 994.558 708.053 987.914C705.674 981.32 706.914 975.298 712.099 973.427Z" fill="white"/>
<path d="M754.718 988.92L762.001 985.421L755.861 972.639L758.08 971.574C761.093 970.185 763.025 970.622 765.84 974.257C768.728 977.797 770.774 980.079 771.744 980.74L779.269 977.126C778.039 976.173 774.987 972.415 772.213 969.236C769.957 966.639 767.66 965.071 764.953 965.244L764.883 965.099C767.194 962.742 768.769 958.483 766.777 954.335C765.34 951.345 763.19 949.588 760.519 948.971C757.323 948.25 753.599 949.149 748.776 951.466C744.869 953.343 741.487 955.324 739.309 956.845L754.718 988.92ZM749.002 958.362C749.486 958.011 750.43 957.38 752.214 956.522C755.614 954.949 758.358 955.471 759.795 958.461C761.162 961.307 759.872 964.182 756.206 965.943L753.312 967.334L749.002 958.362Z" fill="white"/>
<path d="M800.907 939.338L789.517 946.149L785.672 939.719L797.75 932.496L794.318 926.756L775.213 938.181L793.723 969.134L813.471 957.324L810.038 951.584L797.317 959.191L792.923 951.843L804.312 945.032L800.907 939.338Z" fill="white"/>
<path d="M828.064 947.537L834.609 942.77L826.243 931.284L828.236 929.832C830.955 927.917 832.938 927.999 836.371 931.071C839.858 934.037 842.288 935.916 843.364 936.392L850.126 931.467C848.742 930.751 845.053 927.6 841.743 924.969C839.049 922.818 836.502 921.688 833.865 922.349L833.77 922.219C835.621 919.477 836.402 914.994 833.687 911.267C831.73 908.579 829.292 907.237 826.548 907.113C823.268 906.981 819.76 908.541 815.426 911.698C811.915 914.255 808.941 916.82 807.07 918.714L828.064 947.537ZM816.898 918.454C817.311 918.02 818.127 917.227 819.731 916.059C822.796 913.892 825.595 913.91 827.553 916.597C829.415 919.155 828.665 922.222 825.37 924.622L822.77 926.516L816.898 918.454Z" fill="white"/>
<path d="M860.782 920.843C863.049 920.344 866.805 918.462 869.895 915.743C877.32 909.209 877.421 902.284 873.43 897.749C870.075 893.936 865.638 893.426 859.309 895.863C854.652 897.611 852.456 898.19 850.937 896.465C849.701 895.06 849.926 892.726 852.574 890.395C855.223 888.064 857.82 887.132 859.363 886.7L856.384 880.563C854.143 881.253 851.33 882.589 848.28 885.273C841.899 890.888 841.154 897.81 845.216 902.425C848.677 906.358 853.796 906.268 859.668 903.878C863.943 902.181 866.075 902.014 867.558 903.7C869.112 905.466 868.651 907.936 865.842 910.408C863.233 912.704 859.963 914.086 857.576 914.691L860.782 920.843Z" fill="white"/>
<path d="M170.264 334.554C174.81 332.23 181.759 326.137 186.824 318.63C198.993 300.594 195.356 285.797 184.34 278.364C175.078 272.116 165.35 273.497 153.233 282.204C144.293 288.515 139.941 290.97 135.749 288.142C132.337 285.84 131.517 280.747 135.858 274.312C140.2 267.878 145.209 264.448 148.253 262.671L138.498 251.265C134.112 253.981 128.868 258.388 123.869 265.797C113.411 281.299 115.675 296.446 126.887 304.011C136.441 310.457 147.287 307.418 158.456 299.064C166.612 293.075 171.056 291.534 175.151 294.297C179.441 297.191 179.834 302.706 175.23 309.53C170.954 315.867 164.763 320.628 160.019 323.244L170.264 334.554Z" fill="white"/>
<path d="M223.626 265.557L236.196 253.044L216.225 232.982C217.556 231.988 219.137 230.579 220.802 228.922C228.294 221.464 232.881 213.252 233.149 204.864C233.33 198.386 230.521 191.901 225.052 186.407C219.582 180.912 212.528 178.654 206.131 179.387C199.401 180.119 192.332 184.173 184.507 191.962C176.765 199.669 171.768 205.638 168.519 210.199L223.626 265.557ZM189.956 206.593C190.623 205.432 192.122 203.442 194.703 200.873C201.03 194.575 207.675 194.091 212.813 199.253C218.531 204.997 217.766 212.553 211.023 219.265C209.192 221.088 207.777 222.331 206.446 223.159L189.956 206.593Z" fill="white"/>
<path d="M303.882 168.064L320.316 181.487L336.281 170.706L271.631 118.835L252.162 131.981L276.414 211.133L291.794 200.747L285.095 180.751L303.882 168.064ZM279.743 168.208L274.237 151.658C272.744 147.138 270.365 141.517 268.709 136.965L268.903 136.834C272.506 140.07 276.961 144.149 280.759 147.254L294.247 158.413L279.743 168.208Z" fill="white"/>
<path d="M403.85 127.591C401.136 130.244 396.054 133.626 391.064 135.698C376.311 141.824 363.804 136.207 357.723 121.562C350.966 105.29 357.875 93.1369 371.001 87.6865C376.859 85.2541 382.064 84.6189 386.012 84.6327L383.925 70.1103C380.365 69.8078 373.136 70.7748 364.566 74.3333C342.436 83.5225 330.411 104.795 340.771 129.745C349.42 150.574 368.969 160.898 394.245 150.402C403.14 146.709 409.299 142.244 411.706 139.464L403.85 127.591Z" fill="white"/>
<path d="M482.751 74.4806L454.206 80.2932L450.925 64.1795L481.196 58.0154L478.266 43.6281L430.385 53.3783L446.182 130.954L495.675 120.876L492.745 106.489L460.863 112.981L457.113 94.5654L485.657 88.7528L482.751 74.4806Z" fill="white"/>
<path d="M684.886 133.59L692.028 110.84C695.898 98.5128 699.017 87.7961 701.7 77.6814L702.071 77.6749C702.99 87.6892 704.86 98.9871 706.809 108.463L713.799 142.667L731.73 148.297L755.444 72.7636L739.754 67.8378L732.823 89.915C729.269 101.234 726.404 111.537 724.393 121.863L724.057 121.758C723.369 112.185 721.842 101.364 719.857 91.9999L712.858 59.3937L692.91 53.1309L669.196 128.664L684.886 133.59Z" fill="white"/>
<path d="M831.438 146.476L806.005 132.273L814.022 117.916L840.994 132.977L848.152 120.158L805.49 96.3345L766.891 165.456L810.989 190.081L818.148 177.262L789.74 161.398L798.903 144.99L824.337 159.192L831.438 146.476Z" fill="white"/>
<path d="M860.526 230.541L889.049 210.461C895.824 205.831 901.848 201.152 908.909 195.512L909.083 195.67C903.677 202.982 899.64 209.317 895.38 216.244L877.35 245.91L891.66 258.981L960.143 214.312L946.701 202.033L920.067 221.612C912.515 227.441 904.956 233.104 898.147 238.817L897.974 238.658C903.048 231.362 907.798 224.246 912.755 216.206L930.57 187.299L916.521 174.465L889.713 193.886C881.664 199.737 873.859 205.495 867.122 210.954L866.949 210.796C871.382 204.027 877.06 195.373 882.096 187.247L899.696 159.097L885.56 146.184L846.042 217.312L860.526 230.541Z" fill="white"/>
<path d="M921.523 284.985C922.03 290.059 925.17 298.74 930.309 306.182C942.658 324.062 957.744 326.063 968.665 318.52C977.847 312.179 980.101 302.628 976.411 288.19C973.793 277.578 973.093 272.637 977.249 269.767C980.632 267.431 985.667 268.521 990.073 274.9C994.478 281.279 995.846 287.186 996.392 290.664L1010.55 285.74C1009.62 280.672 1007.43 274.192 1002.35 266.846C991.741 251.479 976.828 248.074 965.713 255.751C956.241 262.292 955.122 273.486 958.828 286.914C961.432 296.679 961.248 301.373 957.189 304.177C952.937 307.114 947.664 305.473 942.991 298.708C938.653 292.426 936.477 284.935 935.77 279.57L921.523 284.985Z" fill="white"/>
<path d="M555.41 176C557.02 176 562.97 177 571.67 190.44C572.91 192.35 574.14 194.44 575.34 196.61C568.75 191.61 562.08 189 555.68 189C549.28 189 542.68 191.82 535.81 197.41C536.863 195.477 537.927 193.647 539 191.92C546.3 180.17 552.4 176 555.41 176M555.41 170C542.23 170 524.9 198.07 514.41 235.87C527.1 211.29 542.92 195 555.68 195C568.59 195 583.44 209.21 595.59 231.72C585.24 195.18 569 170 555.41 170V170Z" fill="#494949"/>
<path d="M612.22 566.25L611.85 566.07L608.39 433.68L608.46 435.79C608.46 437.25 608.55 438.71 608.59 440.17L608.84 448.95C608.84 450.41 608.93 451.87 608.97 453.33L609.22 462.08L609.47 470.79L609.72 479.44C609.847 483.747 609.97 488.023 610.09 492.27C610.17 495.14 610.26 498 610.33 500.84L610.57 509.01C610.65 511.76 610.73 514.5 610.81 517.21L611.04 525.21C611.16 529.21 611.273 533.12 611.38 536.94L611.55 542.94L611.61 544.94L611.72 548.86L611.83 552.71L611.94 556.5C612 559.85 612.13 563.1 612.22 566.25Z" fill="white"/>
<path d="M608.39 433.68L611.85 566.07L612.22 566.25C612.13 563.1 612.04 559.85 611.94 556.54L611.83 552.75L611.72 548.9L611.61 544.98L611.55 542.98L611.38 536.98C611.267 533.14 611.153 529.23 611.04 525.25L610.81 517.25C610.73 514.54 610.65 511.8 610.57 509.05L610.33 500.88C610.26 498.04 610.17 495.18 610.09 492.31C609.97 488.07 609.847 483.793 609.72 479.48L609.47 470.83L609.22 462.12L608.97 453.37C608.97 451.91 608.89 450.45 608.84 448.99L608.59 440.21C608.59 438.75 608.51 437.29 608.46 435.83L608.39 433.72V433.68Z" fill="#494949"/>
<path d="M555.68 201C565.76 201 578.89 213.63 590 234C593.03 244.803 595.368 255.789 597 266.89C597.951 273.25 598.346 279.681 598.18 286.11V286.44C598.29 290.29 598.41 294.44 598.54 298.93L598.62 301.56C598.62 301.82 598.62 302.08 598.62 302.34C598.62 302.6 598.62 302.8 598.62 303.03L598.71 306.09L598.8 309.21L598.89 312.41V312.47V313.23C598.89 313.52 598.89 313.8 598.89 314.05L599.03 318.89C599.13 322.35 599.23 325.89 599.33 329.6L599.49 334.88V335.75C599.49 336.07 599.49 336.39 599.49 336.7L599.6 340.41C599.6 341.04 599.6 341.67 599.6 342.31V342.39L599.71 346.06L599.82 349.9L599.97 355.08C600.07 358.57 600.18 362.08 600.28 365.69L600.38 369.31C600.55 374.81 600.7 380.4 600.86 386.08L601.06 393.08L601.24 399.08C601.453 406.48 601.67 413.96 601.89 421.52L602.13 429.97L602.19 432.33V433.14V433.88L605.43 557.93C603.655 557.641 601.859 557.497 600.06 557.5H586.78C579.79 557.505 572.957 559.578 567.144 563.46C561.33 567.341 556.795 572.856 554.11 579.31C551.559 572.592 547.027 566.808 541.114 562.726C535.2 558.643 528.186 556.454 521 556.45H507.56C506.129 556.448 504.699 556.541 503.28 556.73L511.28 325.6L512.6 287.15C512.6 286.99 512.6 286.82 512.6 286.67C512.418 280.043 512.833 273.413 513.84 266.86C515.336 257.129 517.393 247.493 520 238C533.38 212.42 547.55 201 555.68 201ZM528.68 280.37C530.836 280.372 532.905 279.524 534.44 278.01C539.843 272.979 546.988 270.24 554.37 270.37C562.37 270.37 569.82 273.37 574.79 278.49C575.923 279.678 577.385 280.5 578.989 280.85C580.593 281.2 582.265 281.061 583.789 280.452C585.314 279.843 586.621 278.792 587.542 277.433C588.464 276.075 588.958 274.472 588.96 272.83V261.06C588.968 259.005 588.2 257.023 586.81 255.51C578.85 246.89 567 242 554.32 242C542.14 242 530.63 246.61 522.74 254.66C521.238 256.192 520.401 258.255 520.41 260.4V272.16C520.413 274.338 521.28 276.427 522.821 277.966C524.362 279.505 526.452 280.37 528.63 280.37M555.63 195C542.91 195 527.14 211.25 514.44 235.66L514.26 236.12C511.545 245.947 509.408 255.924 507.86 266C506.789 272.912 506.351 279.908 506.55 286.9V287L505.22 325.44L497.06 561.44C497.051 561.738 497.101 562.034 497.209 562.312C497.318 562.59 497.481 562.842 497.689 563.055C497.897 563.268 498.146 563.437 498.422 563.551C498.697 563.665 498.992 563.723 499.29 563.72C499.506 563.72 499.722 563.689 499.93 563.63C502.381 562.905 504.924 562.538 507.48 562.54H521C528.781 562.561 536.238 565.661 541.741 571.162C547.244 576.663 550.346 584.119 550.37 591.9V622.82C550.37 623.409 550.604 623.973 551.02 624.39C551.437 624.806 552.001 625.04 552.59 625.04H555.15C555.739 625.04 556.303 624.806 556.72 624.39C557.136 623.973 557.37 623.409 557.37 622.82V592.81C557.394 585.029 560.496 577.573 565.999 572.072C571.502 566.571 578.959 563.471 586.74 563.45H600.22C603.137 563.446 606.035 563.919 608.8 564.85C609.029 564.925 609.269 564.962 609.51 564.96C609.805 564.96 610.098 564.901 610.37 564.786C610.642 564.671 610.888 564.503 611.094 564.292C611.3 564.08 611.462 563.829 611.569 563.554C611.677 563.279 611.728 562.985 611.72 562.69L608.35 433.69V432.94V432.14L608.29 429.78C607.99 419.38 607.69 409.03 607.4 398.87L607.22 392.87C606.99 384.81 606.77 376.87 606.54 369.14L606.44 365.53C606.28 360.15 606.127 354.883 605.98 349.73L605.87 345.89L605.76 342.22C605.76 341.55 605.76 340.89 605.76 340.22L605.65 336.52C605.65 335.9 605.65 335.29 605.6 334.68L605.44 329.41C605.34 325.737 605.24 322.17 605.14 318.71L605 313.87C605 313.32 605 312.78 604.95 312.24L604.86 309.04L604.77 305.91L604.68 302.85C604.68 302.35 604.68 301.85 604.68 301.35L604.6 298.69C604.47 294.24 604.35 290.06 604.24 286.21C604.381 279.448 603.936 272.686 602.91 266C601.22 254.524 598.798 243.167 595.66 232C595.61 231.835 595.546 231.675 595.47 231.52C583.34 209.06 568.55 195 555.68 195H555.63ZM528.63 274.37C528.339 274.373 528.05 274.317 527.78 274.207C527.51 274.097 527.264 273.935 527.058 273.729C526.851 273.524 526.688 273.279 526.576 273.01C526.465 272.74 526.409 272.451 526.41 272.16V260.35C526.409 259.776 526.631 259.223 527.03 258.81C533.53 252.17 543.34 247.95 554.32 247.95C565.72 247.95 575.86 252.5 582.32 259.57C582.69 259.978 582.893 260.51 582.89 261.06V272.78C582.892 273.226 582.758 273.662 582.507 274.031C582.256 274.4 581.9 274.684 581.484 274.846C581.069 275.008 580.614 275.041 580.179 274.94C579.745 274.839 579.351 274.609 579.05 274.28C573.2 268.21 564.28 264.28 554.3 264.28C545.35 264.142 536.698 267.496 530.18 273.63C529.974 273.836 529.729 274 529.46 274.111C529.19 274.223 528.902 274.28 528.61 274.28L528.63 274.37Z" fill="#494949"/>
<path d="M608.35 432.13V432.93V433.68L611.81 566.07L612.18 566.25C612.09 563.1 612 559.85 611.9 556.54L611.79 552.75L611.68 548.9L611.57 544.98L611.51 542.98L611.34 536.98C611.227 533.14 611.113 529.23 611 525.25L610.77 517.25C610.69 514.54 610.61 511.8 610.53 509.05L610.29 500.88C610.22 498.04 610.13 495.18 610.05 492.31C609.93 488.07 609.807 483.793 609.68 479.48L609.43 470.83L609.18 462.12L608.93 453.37C608.93 451.91 608.85 450.45 608.8 448.99L608.55 440.21C608.55 438.75 608.47 437.29 608.42 435.83C608.42 434.77 608.37 433.7 608.33 432.64V432.17L608.35 432.13Z" fill="#494949"/>
<path d="M726.41 580.45C693.65 584.01 649.73 586.05 627.16 586.93C626.199 580.029 622.618 573.762 617.16 569.43V569.43C615.613 568.195 613.937 567.132 612.16 566.26L611.79 566.08L608.33 433.69V432.94V432.61V432.14L608.27 429.78L603.04 342.4C603.04 341.972 603.2 341.559 603.488 341.242C603.777 340.925 604.173 340.727 604.599 340.687C605.026 340.647 605.452 340.768 605.794 341.025C606.136 341.283 606.37 341.659 606.45 342.08C611.32 371.54 622.45 422.41 627.39 450.46C633.39 484.46 650.39 498.46 681.39 522.46C692.62 531.58 702.39 539.23 712.72 548.85C717.048 552.896 720.496 557.79 722.852 563.226C725.207 568.662 726.418 574.525 726.41 580.45V580.45Z" stroke="#494949" stroke-width="6" stroke-miterlimit="10"/>
<path d="M617.19 569.43C651.76 569.2 688.26 566.43 722.41 562.43" stroke="#494949" stroke-width="6" stroke-miterlimit="10"/>
<path d="M617.18 569.42C651.688 568.886 686.145 566.55 720.41 562.42" stroke="#494949" stroke-width="6" stroke-miterlimit="10"/>
<path d="M507.68 342.46L500 563.91C500.003 564.122 499.943 564.331 499.827 564.509C499.711 564.687 499.545 564.827 499.35 564.91C497.33 565.836 495.433 567.009 493.7 568.4" stroke="#494949" stroke-width="6" stroke-miterlimit="10"/>
<path d="M389.41 561.45C423.026 565.487 456.827 567.804 490.68 568.39" stroke="#494949" stroke-width="6" stroke-miterlimit="10"/>
<path d="M391.41 561.45C423.62 565.21 457.92 567.88 490.72 568.36" stroke="#494949" stroke-width="6" stroke-miterlimit="10"/>
<path d="M526.41 216.3V278.3" stroke="#494949" stroke-width="6" stroke-miterlimit="10"/>
<path d="M540.27 267.08L540.41 568.95" stroke="#494949" stroke-width="6" stroke-miterlimit="10"/>
<path d="M505.89 307.36H604.81" stroke="#494949" stroke-width="3" stroke-miterlimit="10"/>
<path d="M503.77 368.65H606.54" stroke="#494949" stroke-width="3" stroke-miterlimit="10"/>
<path d="M503.77 434.65H606.54" stroke="#494949" stroke-width="3" stroke-miterlimit="10"/>
<path d="M498.77 494.65H609.91" stroke="#494949" stroke-width="3" stroke-miterlimit="10"/>
<path d="M461.64 494.95V584.92" stroke="#494949" stroke-width="6" stroke-miterlimit="10"/>
<path d="M514.39 564.92L515.41 656.38" stroke="#494949" stroke-width="3" stroke-miterlimit="10"/>
<path d="M592.88 563.45V657.24" stroke="#494949" stroke-width="3" stroke-miterlimit="10"/>
<path d="M680.57 730.12C679.265 725.984 677.437 722.032 675.13 718.36C675.123 717.723 674.975 717.096 674.697 716.524C674.419 715.952 674.017 715.448 673.52 715.05C665.8 708.27 659.32 700.21 652.6 692.48C652.306 692.148 651.97 691.855 651.6 691.61C648.81 688.44 647.67 684.19 645.36 680.68C644.053 678.65 642.41 676.857 640.5 675.38C640.44 675.095 640.36 674.814 640.26 674.54C638.11 668.9 632.37 666.4 631.33 660.22C630.39 654.66 621.25 655.96 621.51 661.55C621.783 664.372 621.638 667.22 621.08 670C620.8 671.12 620.41 672.22 620.15 673.35C619.95 674.24 620.1 676.24 619.63 676.97C616.11 682.38 624.76 687.4 628.26 681.97C628.625 681.383 628.92 680.755 629.14 680.1C629.448 680.698 629.891 681.215 630.434 681.611C630.978 682.007 631.607 682.27 632.27 682.38C635.76 683.13 637.32 686.45 638.77 689.38C640.52 692.97 642.23 696.38 645.1 699.26C645.319 699.477 645.557 699.674 645.81 699.85C652.05 707.05 658.12 714.5 665.18 720.93C665.292 721.397 665.485 721.84 665.75 722.24C667.956 725.466 669.687 728.992 670.89 732.71C672.88 738.89 682.54 736.28 680.57 730.12Z" fill="white"/>
<path d="M544.2 687.06C543.362 680.964 543.168 674.797 543.62 668.66C544.01 662.71 535.62 662.33 533.8 667.33C533.399 668.423 532.942 669.494 532.43 670.54C531.614 670.109 530.718 669.85 529.798 669.78C528.877 669.709 527.952 669.828 527.08 670.13C523.2 671.47 521.01 674.69 516.47 674.85C511.93 675.01 508.15 672.52 505.4 668.97C504.889 668.191 504.113 667.624 503.216 667.372C502.32 667.12 501.362 667.201 500.52 667.6C499.416 665.588 498.687 663.393 498.37 661.12C497.67 654.8 487.66 654.73 488.37 661.12C489.2 668.7 493.1 675.4 497.37 681.57C501.37 687.35 506.67 692.49 513.83 693.83C521.38 695.24 527.94 691.89 533.1 686.67C533.92 688.38 534.6 689.98 535.02 690.91C537.62 696.53 544.93 692.13 544.2 687.06Z" fill="white"/>
<path d="M614.12 663C609.45 666.56 603.36 673.1 597.27 673.91C591.18 674.72 584.41 669.91 579.64 666.76C578.809 666.22 577.814 665.99 576.83 666.11C575.72 663.78 574.62 661.44 573.5 659.11C570.71 653.31 562.08 658.38 564.86 664.11C570.74 676.34 576 694 592 695.29C595.129 695.521 598.27 695.058 601.199 693.932C604.128 692.807 606.771 691.047 608.94 688.78C614.01 683.45 616.63 675.78 620.99 669.78C623.84 665.88 618 660 614.12 663Z" fill="white"/>
<path d="M550.41 589.6V653.6L549.96 653.71C548.4 654.08 546.83 654.43 545.25 654.71C525.98 658.55 505.81 657.86 486.52 653.85C484.52 653.42 482.44 652.96 480.41 652.46V589.6C480.409 588.319 480.499 587.039 480.68 585.77C481.675 578.914 485.253 572.696 490.68 568.39C492.604 566.845 494.731 565.57 497 564.6C497.977 564.185 498.979 563.831 500 563.54C502.451 562.815 504.994 562.448 507.55 562.45H523.25C530.446 562.468 537.342 565.335 542.431 570.422C547.52 575.509 550.389 582.404 550.41 589.6V589.6Z" stroke="#494949" stroke-width="6" stroke-miterlimit="10"/>
<path d="M486.52 653.84C487.27 667.62 492.09 679.64 499.14 687.09" stroke="#494949" stroke-width="6" stroke-miterlimit="10"/>
<path d="M533.19 686.55C539.81 679.23 544.37 667.8 545.25 654.7" stroke="#494949" stroke-width="6" stroke-miterlimit="10"/>
<path d="M499.14 687.09C503.9 692.09 509.68 695.09 515.91 695.09C522.36 695.09 528.33 691.93 533.19 686.56C539.81 679.24 544.37 667.81 545.25 654.71" stroke="#494949" stroke-width="6" stroke-miterlimit="10"/>
<path d="M496.65 655.62C498.359 660.546 501.05 665.074 504.56 668.93C508.73 673.34 513.79 675.93 519.24 675.93C524.88 675.93 530.1 673.16 534.36 668.46C537.715 664.617 540.284 660.152 541.92 655.32" stroke="#494949" stroke-width="6" stroke-miterlimit="10"/>
<path d="M574.05 656.67C575.743 661.201 578.293 665.363 581.56 668.93C585.73 673.34 590.79 675.93 596.24 675.93C601.88 675.93 607.1 673.16 611.36 668.46C614.472 664.906 616.905 660.812 618.54 656.38" stroke="#494949" stroke-width="6" stroke-miterlimit="10"/>
<path d="M550.91 653.45L550.41 653.57" stroke="#494949" stroke-width="6" stroke-miterlimit="10"/>
<path d="M627.16 586.93C626.199 580.029 622.618 573.762 617.16 569.43V569.43C615.613 568.195 613.937 567.132 612.16 566.26L611.79 566.08C608.171 564.352 604.211 563.456 600.2 563.46H584.5C577.306 563.481 570.412 566.348 565.325 571.435C560.238 576.522 557.371 583.416 557.35 590.61V653.46C559.35 653.96 561.41 654.46 563.46 654.85C582.75 658.85 602.92 659.55 622.19 655.71C623.77 655.41 625.34 655.06 626.9 654.71L627.35 654.6V590.6C627.373 589.374 627.309 588.147 627.16 586.93V586.93Z" stroke="#494949" stroke-width="6" stroke-miterlimit="10"/>
<path d="M563.52 654.84C564.27 668.62 569.09 680.64 576.14 688.09" stroke="#494949" stroke-width="6" stroke-miterlimit="10"/>
<path d="M610.19 687.55C616.81 680.23 621.37 668.8 622.25 655.7" stroke="#494949" stroke-width="6" stroke-miterlimit="10"/>
<path d="M563.52 654.84C564.27 668.62 569.09 680.64 576.14 688.09C580.9 693.09 586.68 696.09 592.91 696.09C599.36 696.09 605.33 692.93 610.19 687.56C616.81 680.24 621.37 668.81 622.25 655.71" stroke="#494949" stroke-width="6" stroke-miterlimit="10"/>
<path d="M525.14 666.45H522.35C521.024 666.45 519.752 666.977 518.814 667.914C517.877 668.852 517.35 670.124 517.35 671.45C517.35 672.776 517.877 674.048 518.814 674.986C519.752 675.923 521.024 676.45 522.35 676.45H525.14C526.466 676.45 527.738 675.923 528.676 674.986C529.613 674.048 530.14 672.776 530.14 671.45C530.14 670.124 529.613 668.852 528.676 667.914C527.738 666.977 526.466 666.45 525.14 666.45Z" fill="#494949"/>
<path d="M628.91 658.95L799.91 892.95" stroke="white" stroke-width="6" stroke-miterlimit="10"/>
<path d="M216.27 890.7C62.52 741.39 87.13 547.94 87.13 547.94" stroke="white" stroke-width="6" stroke-miterlimit="10"/>
<path d="M102.19 532.23C100.93 547.23 93.91 559.05 86.19 559.58C85.7908 559.615 85.3892 559.615 84.99 559.58C76.8 558.9 71.24 545.58 72.56 529.76C73.88 513.94 89.76 502.41 89.76 502.41C89.76 502.41 103.51 516.44 102.19 532.23Z" fill="white"/>
<path d="M73 583.17C61.49 572.28 41.94 574.25 41.94 574.25C41.94 574.25 41 593.88 52.51 604.77C64.02 615.66 77.93 619.65 83.57 613.68C89.21 607.71 84.46 594.06 73 583.17Z" fill="white"/>
<path d="M116.61 602.44C127.37 590.81 125.19 571.29 125.19 571.29C125.19 571.29 105.55 570.62 94.79 582.29C84.03 593.96 80.19 607.87 86.22 613.45C92.25 619.03 105.85 614.07 116.61 602.44Z" fill="white"/>
<path d="M126.53 653.1C137.29 641.47 135.11 621.95 135.11 621.95C135.11 621.95 115.47 621.28 104.71 632.95C93.95 644.62 90.11 658.52 96.14 664.1C102.17 669.68 115.77 664.73 126.53 653.1Z" fill="white"/>
<path d="M138.53 705.69C149.29 694.06 147.1 674.53 147.1 674.53C147.1 674.53 127.46 673.86 116.7 685.53C105.94 697.2 102.1 711.11 108.13 716.68C114.16 722.25 127.77 717.32 138.53 705.69Z" fill="white"/>
<path d="M181 796.15C191.76 784.52 189.58 764.99 189.58 764.99C189.58 764.99 169.94 764.32 159.18 775.99C148.42 787.66 144.58 801.57 150.6 807.15C156.62 812.73 170.21 807.78 181 796.15Z" fill="white"/>
<path d="M207.62 839.17C218.38 827.54 216.19 808.02 216.19 808.02C216.19 808.02 196.55 807.35 185.79 819.02C175.03 830.69 171.19 844.59 177.22 850.17C183.25 855.75 196.85 850.8 207.62 839.17Z" fill="white"/>
<path d="M157.25 751C168.01 739.37 165.82 719.85 165.82 719.85C165.82 719.85 146.19 719.18 135.43 730.85C124.67 742.52 120.83 756.42 126.85 762C132.87 767.58 146.49 762.64 157.25 751Z" fill="white"/>
<path d="M71.21 642.92C56.33 637.48 39.21 647.04 39.21 647.04C39.21 647.04 46.21 665.41 61.06 670.85C75.91 676.29 90.29 674.44 93.11 666.73C95.93 659.02 86.09 648.35 71.21 642.92Z" fill="white"/>
<path d="M81.16 698.68C65.44 696.68 50.8 709.75 50.8 709.75C50.8 709.75 61.63 726.14 77.35 728.17C93.07 730.2 106.65 725.25 107.71 717.1C108.77 708.95 96.87 700.71 81.16 698.68Z" fill="white"/>
<path d="M96.64 749.93C80.81 750.53 68.54 765.87 68.54 765.87C68.54 765.87 81.93 780.24 97.77 779.64C113.61 779.04 126.18 771.91 125.87 763.7C125.56 755.49 112.48 749.33 96.64 749.93Z" fill="white"/>
<path d="M117.93 797.37C102.43 800.64 92.93 817.84 92.93 817.84C92.93 817.84 108.57 829.74 124.07 826.47C139.57 823.2 150.77 814.04 149.07 806C147.37 797.96 133.44 794.1 117.93 797.37Z" fill="white"/>
<path d="M150.72 844.17C135.22 847.44 125.72 864.64 125.72 864.64C125.72 864.64 141.36 876.53 156.86 873.26C172.36 869.99 183.56 860.83 181.86 852.8C180.16 844.77 166.23 840.9 150.72 844.17Z" fill="white"/>
<path d="M916.27 892.7C1070 743.39 1045.41 549.94 1045.41 549.94" stroke="white" stroke-width="6" stroke-miterlimit="10"/>
<path d="M1030.34 534.23C1031.61 549.23 1038.63 561.05 1046.34 561.58C1046.74 561.615 1047.14 561.615 1047.54 561.58C1055.74 560.9 1061.29 547.58 1059.98 531.76C1058.67 515.94 1042.78 504.41 1042.78 504.41C1042.78 504.41 1029 518.44 1030.34 534.23Z" fill="white"/>
<path d="M1059.58 585.17C1071.09 574.28 1090.64 576.25 1090.64 576.25C1090.64 576.25 1091.53 595.88 1080.02 606.77C1068.51 617.66 1054.61 621.65 1048.96 615.68C1043.31 609.71 1048.08 596.06 1059.58 585.17Z" fill="white"/>
<path d="M1015.92 604.44C1005.16 592.81 1007.35 573.29 1007.35 573.29C1007.35 573.29 1026.98 572.62 1037.75 584.29C1048.52 595.96 1052.35 609.87 1046.32 615.45C1040.29 621.03 1026.68 616.07 1015.92 604.44Z" fill="white"/>
<path d="M1006 655.1C995.24 643.47 997.43 623.95 997.43 623.95C997.43 623.95 1017.06 623.28 1027.83 634.95C1038.6 646.62 1042.43 660.52 1036.4 666.1C1030.37 671.68 1016.76 666.73 1006 655.1Z" fill="white"/>
<path d="M994 707.69C983.24 696.06 985.42 676.53 985.42 676.53C985.42 676.53 1005.06 675.86 1015.82 687.53C1026.58 699.2 1030.42 713.11 1024.4 718.68C1018.38 724.25 1004.77 719.32 994 707.69Z" fill="white"/>
<path d="M951.56 798.15C940.8 786.52 943 767 943 767C943 767 962.64 766.33 973.4 778C984.16 789.67 988 803.53 982 809.11C976 814.69 962.32 809.78 951.56 798.15Z" fill="white"/>
<path d="M924.92 841.17C914.16 829.54 916.35 810.02 916.35 810.02C916.35 810.02 935.98 809.35 946.74 821.02C957.5 832.69 961.34 846.59 955.32 852.17C949.3 857.75 935.68 852.8 924.92 841.17Z" fill="white"/>
<path d="M975.28 753C964.52 741.37 966.71 721.85 966.71 721.85C966.71 721.85 986.35 721.18 997.11 732.85C1007.87 744.52 1011.71 758.42 1005.68 764C999.65 769.58 986 764.64 975.28 753Z" fill="white"/>
<path d="M1061.32 644.92C1076.21 639.48 1093.32 649.04 1093.32 649.04C1093.32 649.04 1086.32 667.41 1071.48 672.85C1056.64 678.29 1042.25 676.44 1039.48 668.73C1036.71 661.02 1046.44 650.35 1061.32 644.92Z" fill="white"/>
<path d="M1051.38 700.68C1067.09 698.68 1081.73 711.75 1081.73 711.75C1081.73 711.75 1070.9 728.14 1055.19 730.17C1039.48 732.2 1025.88 727.25 1024.83 719.1C1023.78 710.95 1035.66 702.71 1051.38 700.68Z" fill="white"/>
<path d="M1035.89 751.93C1051.72 752.53 1064 767.87 1064 767.87C1064 767.87 1050.6 782.24 1034.77 781.64C1018.94 781.04 1006.35 773.91 1006.66 765.7C1006.97 757.49 1020.06 751.33 1035.89 751.93Z" fill="white"/>
<path d="M1014.6 799.37C1030.1 802.64 1039.6 819.84 1039.6 819.84C1039.6 819.84 1023.97 831.74 1008.46 828.47C992.95 825.2 981.77 816 983.46 808C985.15 800 999.1 796.1 1014.6 799.37Z" fill="white"/>
<path d="M981.81 846.17C997.31 849.44 1006.81 866.64 1006.81 866.64C1006.81 866.64 991.18 878.53 975.67 875.26C960.16 871.99 948.98 862.83 950.67 854.8C952.36 846.77 966.31 842.9 981.81 846.17Z" fill="white"/>
<path d="M390 576.77C422.76 580.33 466.68 582.37 489.25 583.25C490.211 576.349 493.792 570.082 499.25 565.75V565.75C500.797 564.515 502.473 563.453 504.25 562.58L504.62 562.4L508.08 430.01V429.26V428.93V428.46L508.14 426.1L513.37 338.72C513.37 338.292 513.21 337.879 512.922 337.562C512.633 337.245 512.237 337.048 511.811 337.008C511.384 336.968 510.958 337.088 510.616 337.346C510.274 337.603 510.04 337.979 509.96 338.4C505.09 367.86 493.96 418.73 489.02 446.78C483.02 480.78 466.02 494.78 435.02 518.78C423.79 527.9 414.02 535.55 403.69 545.17C399.362 549.216 395.914 554.11 393.558 559.546C391.203 564.983 389.992 570.846 390 576.77V576.77Z" stroke="#494949" stroke-width="6" stroke-miterlimit="10"/>
</g>
<defs>
<clipPath id="clip0_4_348">
<rect width="1126" height="1126" fill="white"/>
</clipPath>
</defs>
</svg>
