<svg width="702" height="797" viewBox="0 0 702 797" fill="none" xmlns="http://www.w3.org/2000/svg">
<g clip-path="url(#clip0_1_178)">
<path d="M363.419 669.947C518.022 669.947 643.351 544.662 643.351 390.114C643.351 235.567 518.022 110.281 363.419 110.281C208.817 110.281 83.4871 235.567 83.4871 390.114C83.4871 544.662 208.817 669.947 363.419 669.947Z" fill="#8E8E8E"/>
<path d="M117.154 375.157C151.242 375.157 178.876 347.532 178.876 313.456C178.876 279.38 151.242 251.756 117.154 251.756C83.0655 251.756 55.4316 279.38 55.4316 313.456C55.4316 347.532 83.0655 375.157 117.154 375.157Z" fill="white"/>
<path d="M263.043 422.523C297.131 422.523 324.765 394.898 324.765 360.822C324.765 326.746 297.131 299.122 263.043 299.122C228.954 299.122 201.32 326.746 201.32 360.822C201.32 394.898 228.954 422.523 263.043 422.523Z" fill="white"/>
<path d="M420.777 435.61C454.866 435.61 482.5 407.986 482.5 373.91C482.5 339.834 454.866 312.21 420.777 312.21C386.689 312.21 359.055 339.834 359.055 373.91C359.055 407.986 386.689 435.61 420.777 435.61Z" fill="white"/>
<path d="M576.642 368.301C610.73 368.301 638.364 340.677 638.364 306.601C638.364 272.525 610.73 244.9 576.642 244.9C542.553 244.9 514.919 272.525 514.919 306.601C514.919 340.677 542.553 368.301 576.642 368.301Z" fill="white"/>
<path d="M178.564 403.202C202.151 403.202 221.271 384.089 221.271 360.511C221.271 336.933 202.151 317.819 178.564 317.819C154.978 317.819 135.857 336.933 135.857 360.511C135.857 384.089 154.978 403.202 178.564 403.202Z" fill="white"/>
<path d="M507.75 398.84C531.336 398.84 550.456 379.726 550.456 356.148C550.456 332.57 531.336 313.456 507.75 313.456C484.163 313.456 465.043 332.57 465.043 356.148C465.043 379.726 484.163 398.84 507.75 398.84Z" fill="white"/>
<path d="M300.806 424.137C300.182 410.631 289.851 399.207 275.867 399.207C267.981 399.207 260.281 403.408 255.599 409.703C253.23 407.994 250.591 406.694 247.793 405.857C247.17 405.664 246.546 405.452 245.923 405.234C240.018 402.28 234.594 398.491 228.977 395.025C220.995 390.149 212.399 386.357 203.415 383.751C190.379 379.943 176.669 378.622 163.888 373.96C161.543 372.805 159.279 371.494 157.111 370.034L151.151 367.541C147.936 366.504 144.502 366.349 141.207 367.092L140.764 367.161C140.845 365.951 140.945 364.736 141.07 363.527L141.201 362.698C142.36 355.917 142.279 349.61 138.707 343.49C135.677 338.317 129.748 333.387 123.8 332.035C117.416 330.577 110.252 330.894 104.585 334.528C99.4414 337.844 94.1981 343.135 93.1258 349.423C90.8377 362.854 89.8838 376.222 91.3676 389.765C92.7551 403.309 95.4889 416.681 99.5287 429.684C107.291 454.177 119.037 477.211 130.577 500.109C136.188 511.178 141.668 522.29 146.618 533.658C148.002 536.975 149.128 540.395 149.985 543.885C149.985 543.935 149.985 543.985 149.985 544.035C149.823 544.565 149.655 545.094 149.449 545.624C149.63 545.206 149.804 544.789 149.985 544.378C149.985 544.415 149.985 544.452 149.985 544.484C148.214 549.438 147.491 554.337 149.025 559.859C150.621 565.642 155.091 571.906 160.484 574.754C166.276 577.814 173.284 579.347 179.705 577.247C185.491 575.377 192.012 571.588 194.606 565.786C195.423 563.96 196.177 562.127 196.85 560.289C215.76 546.397 228.285 525.6 241.883 506.821L264.433 475.66C268.399 473.535 271.762 470.441 274.209 466.666C276.399 464.831 278.259 462.635 279.708 460.172C281.665 457.543 283.212 454.633 284.296 451.54C286.562 449.559 288.461 447.194 289.907 444.554C296.554 440.004 301.18 432.451 300.806 424.137Z" fill="white"/>
<path d="M614.242 364.593C609.255 355.687 599.84 350.769 589.853 350.52C583.543 350.358 577.147 350.907 570.843 351.143C562.651 351.405 554.633 351.592 546.497 352.857C537.358 354.278 528.81 359.445 522.451 366.051C519.333 369.261 516.783 372.907 513.635 376.023C512.199 376.445 510.743 376.793 509.271 377.064C506.422 377.332 503.572 377.519 500.736 377.849C492.506 378.809 486.041 380.03 478.622 384.007C470.087 388.581 464.164 395.973 458.434 403.464C454.575 408.322 450.246 412.787 445.51 416.795L445.086 417.094C444.145 415.659 443.061 414.322 441.85 413.105C439.856 410.788 437.739 408.579 435.51 406.487C430.759 402.018 424.474 399.182 417.878 399.182C415.082 399.061 412.295 399.564 409.717 400.653C406.494 390.463 397.485 382.804 386.026 382.804C385.471 382.804 384.922 382.804 384.374 382.872C384.817 381.078 384.979 379.226 384.854 377.382C384.143 367.921 383.183 358.466 382.167 348.999C384.663 348.724 387.06 347.87 389.168 346.506C397.529 341.115 401.363 329.841 395.883 320.923C394.276 318.274 392.823 315.536 391.531 312.721C389.444 307.059 387.95 301.196 387.073 295.227C386.213 288.047 385.54 280.842 384.286 273.719C383.013 266.786 380.82 260.054 377.765 253.7C377.933 251.874 378.114 250.055 378.332 248.228C378.825 244.009 376.936 238.88 374.355 234.829C374.646 222.295 374.307 209.754 373.338 197.254C373.077 193.972 372.775 190.696 372.434 187.426C371.855 181.954 371.711 176.313 368.893 171.415C368.117 170.061 367.182 168.806 366.106 167.675L366.512 163.581C366.948 159.087 364.105 153.434 361.031 150.356C357.789 147.115 352.465 144.672 347.808 144.884C342.97 145.102 337.951 146.685 334.578 150.356C331.043 154.213 329.59 158.383 329.104 163.581L327.234 182.807C326.673 188.522 330.351 194.188 334.603 197.491C335.071 197.846 335.538 198.17 336.012 198.476C336.781 208.751 337.122 219.044 337.035 229.357C336.604 229.75 336.18 230.155 335.788 230.603L331.891 235.645C329.654 239.461 328.479 243.806 328.487 248.228C324.266 284.108 329.385 319.901 333.082 355.618H332.128C318.337 356.241 307.533 366.568 307.19 380.548L306.566 405.284C306.442 406.622 306.409 407.967 306.466 409.31C306.772 415.891 309.041 422.211 313.773 426.941C318.1 431.267 325.195 434.52 331.405 434.239C337.288 434.028 342.934 431.871 347.459 428.107C351.318 429.652 355.115 431.435 358.806 432.906C363.17 434.632 369.267 433.934 374.13 432.176C375.639 432.463 377.171 432.607 378.706 432.606C379.92 432.606 381.131 432.508 382.329 432.314C383.579 432.507 384.842 432.605 386.107 432.606C388.353 432.596 390.587 432.267 392.74 431.628C393.853 435.741 395.672 439.629 398.115 443.12C396.58 442.651 394.961 442.519 393.371 442.734C391.78 442.949 390.255 443.506 388.9 444.367C383.488 447.851 380.571 455.585 384.43 461.419L399.935 484.778C403.539 490.2 411.114 493.042 416.993 489.252C422.405 485.762 425.329 478.034 421.469 472.194C418.036 467.022 414.603 461.851 411.17 456.682C413.564 459.096 415.871 461.589 418.09 464.161C420.491 468.468 423.31 472.528 426.507 476.283C426.823 476.88 427.179 477.454 427.573 478.003C450.549 509.352 473.52 540.703 496.484 572.055C498.978 575.508 501.665 578.799 505.43 580.999C510.247 583.742 515.847 584.785 521.328 583.959C531.347 582.613 538.966 575.683 542.065 566.104C542.202 565.667 542.358 565.244 542.507 564.813C544.417 561.107 546.627 557.564 549.116 554.218C556.597 544.87 564.702 535.983 571.486 526.048C579.129 514.892 584.902 502.789 589.884 490.243C591.897 488.584 593.55 486.531 594.74 484.21C606.836 459.904 609.535 432.812 613.899 406.374C614.959 399.974 616.106 393.586 617.054 387.166C618.232 379.201 618.332 371.928 614.242 364.593Z" fill="white"/>
<path d="M245.48 184.428C241.471 184.428 241.465 190.66 245.48 190.66C249.495 190.66 249.501 184.428 245.48 184.428Z" fill="white"/>
<path d="M204.176 246.371C200.161 246.371 200.155 252.604 204.176 252.604C208.197 252.604 208.191 246.371 204.176 246.371Z" fill="white"/>
<path d="M281.285 228.478C277.27 228.478 277.264 234.711 281.285 234.711C285.306 234.711 285.3 228.478 281.285 228.478Z" fill="white"/>
<path d="M417.598 167.912C413.589 167.912 413.583 174.144 417.598 174.144C421.613 174.144 421.619 167.912 417.598 167.912Z" fill="white"/>
<path d="M409.337 247.749C405.328 247.749 405.322 253.981 409.337 253.981C413.352 253.981 413.352 247.749 409.337 247.749Z" fill="white"/>
<path d="M467.169 221.591C463.16 221.591 463.147 227.824 467.169 227.824C471.19 227.824 471.19 221.591 467.169 221.591Z" fill="white"/>
<path d="M522.245 235.359C518.236 235.359 518.23 241.591 522.245 241.591C526.26 241.591 526.266 235.359 522.245 235.359Z" fill="white"/>
<path d="M119.024 488.274C144.332 488.274 164.848 467.765 164.848 442.466C164.848 417.167 144.332 396.658 119.024 396.658C93.7162 396.658 73.2001 417.167 73.2001 442.466C73.2001 467.765 93.7162 488.274 119.024 488.274Z" fill="#8E8E8E"/>
<path d="M196.021 484.846C221.329 484.846 241.845 464.337 241.845 439.038C241.845 413.739 221.329 393.23 196.021 393.23C170.713 393.23 150.197 413.739 150.197 439.038C150.197 464.337 170.713 484.846 196.021 484.846Z" fill="#8E8E8E"/>
<path d="M252.132 429.378C277.44 429.378 297.956 408.869 297.956 383.57C297.956 358.271 277.44 337.763 252.132 337.763C226.824 337.763 206.308 358.271 206.308 383.57C206.308 408.869 226.824 429.378 252.132 429.378Z" fill="#8E8E8E"/>
<path d="M606.567 447.483C606.569 437.761 603.476 428.291 597.736 420.443C591.995 412.596 583.906 406.777 574.639 403.83C565.371 400.883 555.406 400.96 546.185 404.051C536.964 407.141 528.966 413.085 523.348 421.021C519.307 414.075 513.509 408.315 506.536 404.318C499.564 400.321 491.662 398.227 483.624 398.248C475.587 398.268 467.696 400.401 460.743 404.433C453.791 408.465 448.022 414.255 444.015 421.22C440.008 428.185 437.905 436.082 437.915 444.116C437.926 452.151 440.051 460.042 444.076 466.996C448.102 473.951 453.886 479.725 460.849 483.739C467.812 487.752 475.709 489.864 483.746 489.863C484.47 489.863 485.193 489.863 485.91 489.807C485.355 494.494 486.228 499.854 488.678 503.655C494.701 513.004 508.473 518.389 518.535 511.477C524.745 507.214 530.98 503.001 537.239 498.838C535.487 500.614 533.71 502.359 531.94 504.092C531.678 504.353 531.422 504.615 531.179 504.883C515.655 517.298 502.431 531.807 492.263 549.133C486.471 558.98 489.688 573.483 500.087 578.98C510.487 584.477 523.779 581.666 529.945 571.152C532.43 566.924 535.134 562.828 538.043 558.88C544.554 550.863 551.942 543.601 560.07 537.229C561.051 536.543 561.973 535.775 562.826 534.936C569.01 528.89 576.336 522.321 580.582 514.736C585.463 506.011 585.145 496.127 584.79 486.466C591.448 482.368 596.944 476.633 600.757 469.809C604.569 462.985 606.569 455.299 606.567 447.483Z" fill="#8E8E8E"/>
<path d="M427.635 434.364C452.943 434.364 473.459 413.855 473.459 388.556C473.459 363.257 452.943 342.748 427.635 342.748C402.327 342.748 381.811 363.257 381.811 388.556C381.811 413.855 402.327 434.364 427.635 434.364Z" fill="#8E8E8E"/>
<path d="M114.997 486.847C114.061 498.719 119.51 511.851 124.199 522.533C126.541 528.023 129.951 532.993 134.23 537.154C139.093 541.748 144.929 545.169 150.409 548.915L145.995 545.506C146.803 546.144 147.544 546.862 148.208 547.65L144.792 543.231C146.394 545.306 147.909 547.45 149.492 549.526C151.363 551.906 153.551 553.502 155.465 555.758L152.049 551.345L152.491 552.106L150.297 546.895C151.456 549.868 152.017 552.505 153.614 555.49C154.38 556.923 155.384 558.188 156.107 559.628L153.907 554.418C154.885 557.534 155.353 560.47 157.41 563.336C162.647 570.635 169.88 575.003 179.157 573.751C187.417 572.641 195.279 566.54 197.299 558.126C197.554 557.026 197.881 555.943 198.278 554.885L196.077 560.102C196.51 559.116 197.051 558.181 197.692 557.316L194.282 561.728C194.856 561.072 195.481 560.461 196.152 559.902C200.211 556.468 202.542 549.607 202.542 544.477C202.542 539.13 200.167 532.742 196.152 529.058C191.994 525.238 186.532 522.409 180.721 522.664C174.668 522.938 169.917 525.157 165.291 529.058C160.135 533.421 156.781 540.046 155.228 546.509L195.13 541.299L194.631 540.607L196.825 545.817C195.691 542.776 195.684 541.025 193.82 537.591C193.047 536.163 192.037 534.898 191.326 533.452L193.521 538.663C192.081 534.555 190.759 530.598 188.053 527.095C186.183 524.683 184.088 523.088 182.087 520.863L185.497 525.282C181.47 519.99 178.115 514.98 172.461 511.228C168.976 508.916 165.528 506.647 162.161 504.135L166.581 507.551C165.109 506.339 163.773 504.97 162.598 503.468L166.014 507.881C164.374 505.581 162.998 503.103 161.912 500.496L164.106 505.706C161.488 499.311 158.975 492.418 157.99 485.563L158.77 491.359C158.591 489.855 158.555 488.338 158.664 486.828C159.081 481.518 155.933 475.061 152.273 471.403C148.489 467.62 142.298 464.772 136.843 465.015C124.255 465.582 115.982 474.613 115.022 486.828L114.997 486.847Z" fill="#8E8E8E"/>
<path d="M143.819 474.5C143.819 483.431 144.499 492.68 143.314 501.543L144.093 495.746C142.846 503.649 139.106 511.751 141.93 519.797C144.255 526.385 148.059 531.19 154.561 533.938C160.403 536.4 168.552 536.868 173.982 532.835C177.065 530.674 179.954 528.249 182.617 525.587C184.115 523.935 185.721 522.384 187.424 520.944L183.003 524.353C187.037 521.449 191.52 519.261 195.678 516.556C199.55 514.063 203.34 511.446 207.293 509.077C216.714 503.362 225.442 496.856 234.033 489.957C237.52 487.152 240.929 484.258 244.258 481.275C247.762 478.115 250.973 474.569 254.614 471.559C258.821 468.142 262.407 464.024 265.212 459.387C267.463 455.585 269.608 451.665 272.239 448.106L268.828 452.519C270.699 450.294 273.124 448.779 275.169 446.735C277.214 444.691 279.059 442.429 281.291 440.503L276.877 443.918C280.362 441.226 284.421 439.188 287.389 435.854C289.268 433.834 290.853 431.56 292.096 429.098C292.677 427.691 293.396 426.344 294.241 425.078L290.824 429.49C292.219 427.805 293.784 426.268 295.494 424.903L291.08 428.312L291.79 427.826L258.959 408.992C258.99 409.526 258.959 410.061 258.866 410.588L259.645 404.785C259.391 405.929 259.039 407.049 258.591 408.132L260.792 402.922C256.048 413.847 250.854 425.981 254.595 438.11C256.852 445.445 262.326 451.279 269.838 453.348C277.214 455.379 285.724 453.348 291.067 447.739C292.744 445.981 294.184 444.03 295.936 442.329C304.116 434.345 304.546 419.381 295.936 411.479C287.071 403.346 273.885 403.04 265.075 411.479C263.292 413.186 261.334 414.751 259.62 416.508C257.089 419.088 255.187 422.173 253.117 425.109L256.528 420.69C255.965 421.385 255.339 422.026 254.657 422.604L259.071 419.188C254.676 422.572 251.197 424.922 248.279 429.721C247.25 431.598 246.124 433.42 244.906 435.18L248.323 430.768C243.173 437.156 238.217 443.625 233.323 450.207L236.733 445.794C230.891 453.111 224.725 460.316 218.416 467.246C215.342 470.63 212.262 474.02 208.964 477.218C204.595 481.522 200.576 486.168 196.944 491.11L200.354 486.697C197.443 490.436 194.506 494.12 191.626 497.884L195.042 493.465C194.493 494.128 193.888 494.743 193.234 495.304L197.636 491.92L196.956 492.356L223.397 495.771L223.272 495.659L226.683 500.072L226.602 499.916L228.802 505.126L228.765 504.933L229.544 510.735V510.505L228.765 516.301C228.839 515.871 228.967 515.452 229.145 515.054L226.938 520.271C227.738 518.67 228.705 517.16 229.825 515.765L226.408 520.177C227.981 518.103 229.79 516.221 231.801 514.568L227.387 517.977C227.939 517.555 228.537 517.197 229.17 516.912L223.958 519.112C224.144 519.039 224.339 518.991 224.538 518.968L218.74 519.747H218.995L197.174 497.934V498.557L197.954 492.755C197.806 493.506 197.584 494.241 197.293 494.949L199.494 489.738C198.597 491.805 197.511 493.785 196.252 495.653L199.662 491.234C197.231 494.095 193.945 496.046 191.451 498.888C187.848 503.001 185.404 507.482 182.199 511.776L185.609 507.357C182.405 511.39 179.499 515.596 176.413 519.685L179.83 515.272C177.579 518.096 175.129 520.819 173.209 523.879C171.208 527.083 170.241 530.685 168.982 534.181L171.183 528.971C170.917 529.604 170.551 530.189 170.098 530.704L173.508 526.291C169.505 530.604 166.313 535.471 162.76 540.146L166.17 535.727C162.906 540.069 159.108 543.982 154.867 547.375L159.281 543.966C158.215 544.751 157.124 545.493 155.995 546.191C146.3 552.205 141.656 565.954 148.171 576.038C154.437 585.754 167.648 590.298 178.022 583.866C189.375 576.823 197.63 566.702 205.024 555.758L201.607 560.177C203.796 557.36 206.476 554.954 208.397 551.9C210.317 548.846 211.021 545.256 212.381 541.928L210.18 547.201C210.797 546.079 211.501 545.008 212.287 543.997L208.858 548.391C211.869 544.652 214.519 540.676 217.399 536.855L213.983 541.274C216.358 538.301 218.971 535.415 221.003 532.212C222.188 530.342 223.216 528.473 224.557 526.721L221.14 531.134C224.519 526.983 228.94 524.129 232.207 519.916C237.082 513.608 240.542 506.017 240.823 497.953C241.228 486.223 230.492 476.058 219.002 476.139C209.382 476.202 201.302 482.104 195.56 489.346C191.981 493.858 188.789 497.884 187.062 503.481C184.662 511.253 186.202 521.006 192.536 526.634C199.544 532.866 210.579 535.484 218.983 530.049C224.638 526.391 227.936 521.555 231.951 516.338L228.541 520.757C231.377 517.46 233.971 513.982 236.614 510.53L233.198 514.942C236.315 511.047 240.205 507.831 243.628 504.198C247.051 500.564 250.592 496.719 253.946 492.855C261.509 484.16 268.529 475.105 275.487 465.937L272.077 470.35C276.846 464.205 281.94 458.458 285.942 451.758L282.532 456.177C283.037 455.532 283.612 454.945 284.246 454.426L279.826 457.841C282.32 455.972 284.995 454.264 287.065 451.927C289.083 449.528 290.947 447.003 292.644 444.367L289.234 448.779C291.154 446.38 293.717 444.467 295.936 442.341L265.075 411.491C263.33 413.193 261.889 415.143 260.206 416.901L296.678 426.53C296.467 425.979 296.329 425.403 296.267 424.816L297.046 430.612C296.981 429.678 296.993 428.74 297.083 427.808L296.304 433.61C296.761 430.301 297.598 427.055 298.798 423.937L296.597 429.148C299.515 422.423 302.607 416.539 302.601 409.005C302.57 393.349 283.754 380.647 269.764 390.17C266.123 392.522 262.83 395.373 259.982 398.64C258.23 400.747 256.378 402.922 255.168 405.408C254.574 406.788 253.893 408.128 253.13 409.422L256.54 405.01C256.177 405.475 255.759 405.894 255.293 406.256L259.707 402.847C255.617 405.963 251.203 408.574 247.593 412.295C245.218 414.738 242.924 417.001 240.349 419.232C233.603 425.065 230.629 433.635 225.349 440.553L228.765 436.134C226.857 438.365 224.438 439.954 222.294 441.918C219.694 444.292 217.262 446.86 214.662 449.241C209.569 453.902 204.244 458.29 198.789 462.516L203.203 459.106C194.519 465.775 185.061 471.016 176.07 477.218C171.607 480.334 166.762 482.74 162.267 485.762C159.057 487.85 156.075 490.269 153.37 492.979C151.77 494.736 150.071 496.4 148.283 497.965L152.703 494.55L151.93 495.123L183.988 508.161L183.857 507.794L184.637 513.59C184.574 513.053 184.574 512.512 184.637 511.975L183.857 517.778C184.269 515.58 184.791 513.404 185.422 511.259C186.499 506.69 187.152 502.031 187.374 497.342C187.798 489.77 187.455 482.091 187.461 474.507C187.461 463.095 177.423 452.164 165.64 452.693C153.857 453.223 143.819 462.279 143.819 474.507V474.5Z" fill="#8E8E8E"/>
<path d="M134.442 468.979C133.195 471.721 131.699 474.588 131.026 477.536C130.526 479.854 130.199 482.205 130.047 484.572C129.996 485.33 130.011 486.091 130.091 486.847C130.332 492.581 132.596 498.046 136.481 502.272C138.395 504.356 140.815 505.911 143.507 506.784C146.093 508.143 148.994 508.788 151.912 508.654C157.56 508.404 163.408 506.547 167.342 502.266L170.759 497.853C172.712 494.512 173.739 490.71 173.733 486.84C173.633 485.946 173.633 485.043 173.733 484.148L172.953 489.95C173.154 488.82 173.482 487.716 173.932 486.66L171.737 491.876C171.862 491.577 171.987 491.253 172.124 490.991C173.69 488.568 174.583 485.771 174.711 482.889C175.22 480.058 175.1 477.149 174.359 474.369C173.617 471.589 172.273 469.006 170.422 466.803C168.893 464.443 166.785 462.512 164.3 461.194C159.237 458.521 153.077 457.181 147.466 459.001L142.254 461.194C139.018 463.092 136.322 465.787 134.424 469.022L134.442 468.979Z" fill="#8E8E8E"/>
<path d="M309.116 406.387C308.586 394.546 299.527 384.574 287.295 384.574C275.88 384.574 264.944 394.608 265.474 406.387C266.004 418.166 275.063 428.2 287.295 428.2C298.711 428.2 309.646 418.191 309.116 406.387Z" fill="#8E8E8E"/>
<path d="M213.634 545.331C208.359 554.96 198.615 561.211 192.436 570.261C190.522 573.034 191.919 577.178 194.668 578.786C197.785 580.594 201.283 579.335 203.203 576.549C209.438 567.493 219.058 561.454 224.401 551.62C228.26 544.608 217.493 538.307 213.634 545.331Z" fill="white"/>
<path d="M308.817 448.779C308.416 447.734 307.952 446.714 307.427 445.726C307.308 445.495 307.196 445.264 307.077 445.04C309.222 438.633 298.623 434.233 295.6 440.497L292.065 447.82C291.394 448.303 290.854 448.946 290.493 449.689C290.059 450.59 289.561 451.458 289.003 452.288L288.804 452.594L288.492 452.911C288.143 453.273 287.806 453.641 287.445 453.983L287.083 454.314C285.392 454.709 283.856 455.596 282.669 456.863C280.93 457.754 279.97 459.804 279.882 461.849C279.504 463.033 279.224 464.246 279.047 465.476C278.664 465.595 278.291 465.743 277.931 465.918C275.993 466.905 274.296 468.306 272.961 470.021C271.626 471.737 270.685 473.726 270.206 475.847C270.203 475.892 270.203 475.938 270.206 475.984C269.879 476.197 269.571 476.436 269.283 476.7C266.306 479.446 263.562 482.433 261.079 485.631C260.437 486.45 259.948 487.376 259.632 488.367C257.533 491.499 255.266 494.516 252.843 497.404C251.962 497.95 251.233 498.709 250.723 499.611C250.349 500.234 249.963 500.857 249.588 501.48C248.478 502.035 247.532 502.871 246.845 503.905C243.605 508.722 240.028 513.304 236.141 517.616C235.855 517.932 235.6 518.274 235.38 518.638C235.237 518.8 235.099 518.974 234.968 519.155C231.053 524.557 226.965 529.81 222.705 534.917C222.605 535.029 222.524 535.147 222.437 535.266C221.096 535.855 219.996 536.884 219.32 538.183C219.008 538.407 218.665 538.681 218.559 538.756C217.038 539.715 215.741 540.991 214.756 542.495C212.574 546.035 213.041 549.974 215.691 553.09C216.266 553.692 216.963 554.164 217.735 554.476C218.507 554.787 219.336 554.931 220.168 554.898C216.094 559.895 211.599 564.535 206.732 568.765C206.169 569.251 205.719 569.855 205.413 570.533C205.108 571.211 204.953 571.947 204.961 572.691C199.606 570.934 193.739 578.157 198.615 583.068C208.875 593.337 221.477 600.962 235.336 605.286C238.048 606.14 240.947 604.701 242.381 602.426C247.469 594.479 251.079 585.735 254.888 577.141C258.89 568.121 262.891 559.107 266.889 550.099L290.855 496.095C291.425 494.846 291.66 493.469 291.535 492.101C294.272 488.423 296.585 484.497 297.239 479.985C299.59 476.471 301.722 472.816 303.623 469.041C305.718 464.828 308.05 460.21 309.11 455.604C309.666 453.348 309.564 450.98 308.817 448.779V448.779Z" fill="white"/>
<path d="M414.655 617.265L377.397 491.259C377.672 490.185 377.649 489.055 377.329 487.993C376.015 483.307 374.698 478.618 373.376 473.927C372.129 469.564 371.505 463.993 369.012 460.154C366.898 456.906 362.509 456.071 359.66 453.529C357.231 451.375 355.37 448.657 354.242 445.613C353.72 444.121 352.718 442.843 351.393 441.98C351.284 440.293 350.998 438.621 350.539 436.994C348.357 429.291 336.324 432.563 338.518 440.31C339.393 443.376 339.024 446.663 337.49 449.459C336.876 449.605 336.283 449.829 335.725 450.126C334.718 450.657 333.795 451.335 332.988 452.139C330.552 454.029 328.273 456.113 326.174 458.371C323.755 458.371 321.429 459.699 320.65 462.833L306.809 518.432C305.699 518.907 304.801 519.772 304.284 520.863C300.094 529.884 297.865 539.692 297.744 549.638C296.374 550.889 295.535 552.617 295.4 554.468C295.126 557.112 294.689 559.737 294.091 562.327C293.05 565.63 292.139 568.97 291.379 572.373C290.281 575.988 289.134 579.578 288.149 583.124C286.154 590.254 284.161 597.384 282.17 604.514C281.284 605.043 280.553 605.796 280.051 606.698C279.549 607.599 279.293 608.617 279.309 609.649C279.365 610.497 279.415 611.344 279.471 612.192C277.401 615.345 277.95 620.512 282.65 622.026C303.106 628.627 324.522 633.725 346.149 633.245C356.811 633.008 367.172 631.038 377.522 628.633C387.871 626.227 398.015 623.952 408.639 625.155C412.728 625.616 415.702 620.805 414.655 617.265Z" fill="white"/>
<path d="M497.294 576.917C493.593 573.691 490.159 570.17 487.026 566.39C486.652 565.935 485.897 564.932 485.86 564.882C485.237 563.991 484.563 563.093 483.946 562.177C482.674 560.291 481.475 558.355 480.349 556.369C478.179 552.53 476.521 548.447 474.426 544.577C471.729 539.479 467.79 535.143 462.973 531.969C462.836 531.882 462.699 531.813 462.561 531.732L426.806 484.129C425.495 482.377 423.856 480.895 421.981 479.767C421.264 475.404 419.206 471.534 415.852 467.857C414.605 466.461 413.078 465.308 411.731 463.993L411.425 463.681C411.125 461.781 410.411 459.97 409.334 458.376C408.256 456.783 406.842 455.445 405.191 454.457C404.761 453.915 404.312 453.385 403.863 452.855C403.831 452.252 403.615 451.672 403.242 451.196C402.869 450.72 402.359 450.37 401.781 450.194C400.534 448.094 399.38 445.969 398.271 443.806C396.444 440.235 391.063 443.382 392.884 446.922C393.015 447.184 393.158 447.44 393.289 447.695C393.057 447.965 392.882 448.281 392.777 448.621C392.671 448.961 392.636 449.32 392.674 449.674C392.712 450.029 392.822 450.371 392.997 450.682C393.173 450.992 393.41 451.263 393.694 451.478C394.409 452.089 395.112 452.712 395.802 453.348C390.552 454.875 386.612 459.431 386.581 465.264C386.55 470.811 388.838 475.635 392.354 479.729C392.596 480.478 392.902 481.203 393.27 481.898C403.72 501.738 413.535 521.889 422.716 542.352C424.965 547.379 427.176 552.424 429.35 557.484C429.892 558.731 430.428 559.977 430.958 561.224L431.775 563.168C432.839 565.711 433.893 568.256 434.936 570.803C439.259 581.36 443.415 591.989 447.405 602.688C449.176 607.449 452.53 610.914 457.773 611.612C462.667 612.273 466.876 610.116 469.75 606.277H469.787C468.659 607.929 469.313 606.938 469.868 606.24C470.211 606.053 470.554 605.835 470.878 605.617C473.434 604.881 475.978 604.208 478.566 603.61C485.48 602.008 492.182 599.571 497.269 594.448C501.827 590.011 502.382 581.373 497.294 576.917ZM465.76 581.217C465.28 579.971 464.793 578.724 464.307 577.515C465.124 578.656 465.959 579.79 466.801 580.899C466.456 580.999 466.109 581.105 465.76 581.217V581.217Z" fill="white"/>
<path d="M391.076 389.809C390.889 386.511 389.511 383.393 387.198 381.034C386.746 380.534 386.13 380.211 385.462 380.124C384.793 380.037 384.115 380.192 383.551 380.56C381.337 379.314 377.84 380.934 378.937 383.901C379.561 385.558 380.334 387.017 380.994 388.5C380.531 388.542 380.081 388.678 379.671 388.898C379.261 389.118 378.9 389.419 378.608 389.782C378.317 390.145 378.103 390.563 377.977 391.011C377.851 391.459 377.817 391.928 377.877 392.389C378.515 396.88 379.503 401.315 380.832 405.652C381.849 408.949 382.796 414.034 385.907 415.985C387.952 417.231 390.571 415.592 390.602 413.292C390.689 405.839 390.781 398.383 390.876 390.925C391.028 390.573 391.096 390.191 391.076 389.809V389.809Z" fill="white"/>
<path d="M448.047 370.252C442.417 364.436 436.385 359.021 429.998 354.048C426.885 351.63 423.699 349.313 420.441 347.099C417.467 345.092 414.437 342.493 410.665 343.858C407.41 345.029 404.43 347.977 401.712 350.09C398.657 352.381 395.764 354.88 393.052 357.569C387.896 362.81 383.351 369.161 382.753 376.684C382.522 379.632 385.87 380.392 387.74 378.983C388.199 379.236 388.713 379.371 389.237 379.376C398.885 379.605 408.538 379.341 418.159 378.584C427.373 377.849 436.607 375.78 445.84 375.549C446.445 375.529 447.031 375.336 447.529 374.992C448.027 374.648 448.415 374.168 448.648 373.61C448.88 373.052 448.947 372.438 448.841 371.843C448.734 371.247 448.459 370.695 448.047 370.252V370.252Z" fill="white"/>
<path d="M285.718 367.547C285.811 366.649 285.874 365.789 285.955 365.054C286.578 359.208 286.734 353.474 285.749 347.653C285.647 347.091 285.366 346.576 284.948 346.185C284.531 345.795 283.998 345.549 283.43 345.484C283.592 343.11 280.369 340.848 278.043 342.991L248.279 370.027C246.409 371.748 247.774 375.637 250.48 375.35C256.02 374.771 261.588 374.508 267.158 374.565C272.22 374.639 277.713 374.565 282.276 376.995C283.617 377.718 285.861 377.475 286.541 375.88C287.975 372.533 286.74 370.258 285.718 367.547Z" fill="white"/>
<path d="M363.519 183.032C361.474 179.816 357.821 178.57 354.23 178.046C345.651 176.843 337.109 178.245 329.167 181.536L328.425 181.841C328.396 181.854 328.368 181.871 328.344 181.891C328.244 178.376 328.15 174.874 328.082 171.377C328.013 167.881 322.732 167.015 321.959 170.548C320.988 174.914 320.584 179.386 320.756 183.855C317.685 194.351 316.925 205.389 318.53 216.207C318.575 216.521 318.674 216.824 318.823 217.104C318.396 217.634 318.161 218.293 318.156 218.974C317.816 231.763 317.167 244.531 316.211 257.278C314.908 254.785 310.768 255.377 310.363 258.743C309.59 265.131 307.944 271.943 309.116 278.35C309.172 278.616 309.262 278.873 309.384 279.116C309.019 279.392 308.724 279.75 308.524 280.162C308.323 280.574 308.223 281.027 308.231 281.484C308.112 289.904 305.5 298.038 305.026 306.414C304.477 306.512 303.968 306.769 303.564 307.154C303.159 307.538 302.876 308.033 302.751 308.576C302.564 309.256 302.395 309.935 302.215 310.614C299.353 320.324 292.719 328.364 288.436 337.457C288.185 338.069 288.097 338.735 288.181 339.39C288.265 340.046 288.518 340.669 288.916 341.197C289.047 347.018 287.763 352.783 287.582 358.604C287.376 365.01 289.072 371.498 288.124 377.83C288.081 378.098 288.037 378.373 287.987 378.653C286.634 377.98 284.988 377.974 283.505 377.774C281.067 377.45 278.629 377.151 276.185 376.871C271.304 376.328 266.403 375.911 261.497 375.674C257.207 375.468 252.182 374.739 247.955 375.674C244.707 376.397 242.095 379.526 243.497 382.904C243.716 383.446 244.076 383.919 244.54 384.275C245.004 384.631 245.554 384.857 246.135 384.929C246.528 385.279 247.005 385.523 247.519 385.64C255.735 387.66 264.22 388.359 272.656 387.709C278.058 388.158 283.482 388.269 288.898 388.039C289.135 388.029 289.371 387.996 289.602 387.939C290.711 388.625 291.988 388.992 293.293 388.999C296.348 388.999 298.53 387.459 300.107 385.259C300.107 385.259 300.107 385.322 300.107 385.359C299.874 396.752 299.646 408.147 299.421 419.544C299.34 423.813 298.405 428.686 303.031 430.762C306.348 432.27 310.232 432.968 314.017 433.255C312.184 434.065 311.055 436.489 312.95 438.241C316.124 441.164 319.316 445.159 324.11 444.523L324.372 444.473C324.718 444.812 325.149 445.051 325.619 445.165C326.36 445.33 327.129 445.33 327.87 445.165C328.085 445.111 328.293 445.036 328.493 444.94C328.653 444.887 328.81 444.822 328.961 444.747L330.831 443.787C331.472 443.404 331.955 442.806 332.196 442.1C332.437 441.393 332.42 440.624 332.147 439.93C333.238 438.951 334.285 437.954 335.301 437.069C337.384 435.268 335.675 431.728 333.094 431.753C328.938 431.786 324.802 431.973 320.688 432.314C321.169 431.767 321.429 431.06 321.417 430.332C320.794 412.798 320.322 395.262 320.002 377.724C320.218 376.199 320.154 374.647 319.815 373.144C319.742 372.838 319.622 372.546 319.459 372.277C323.555 372.269 327.644 372.617 331.679 373.318C331.68 373.708 331.759 374.094 331.911 374.453C332.064 374.812 332.286 375.137 332.567 375.408C332.847 375.679 333.178 375.892 333.542 376.033C333.906 376.174 334.294 376.24 334.684 376.229C337.714 376.229 338.425 372.67 336.904 370.931C336.948 370.712 336.965 370.488 336.954 370.264C337.172 370.003 337.335 369.699 337.431 369.372C337.528 369.045 337.556 368.702 337.515 368.363C336.122 354.951 335.399 341.498 335.345 328.003C335.816 327.493 336.08 326.827 336.087 326.133L336.349 284.09C336.37 283.412 336.149 282.749 335.725 282.22C335.748 282.157 335.766 282.092 335.781 282.027C336.49 278.576 336.501 275.018 335.813 271.563C336.175 271.295 336.463 270.939 336.649 270.529C336.834 270.119 336.911 269.668 336.873 269.219C335.101 244.663 334.76 220.024 335.85 195.428C335.876 194.921 335.762 194.416 335.52 193.97C337.564 193.103 339.512 192.023 341.33 190.748C341.461 190.748 341.598 190.748 341.735 190.779C348.245 190.814 354.607 192.725 360.059 196.282C361.618 197.279 364.33 196.388 364.641 194.412C365.221 190.567 365.707 186.478 363.519 183.032ZM312.084 348.233C312.47 342.954 312.782 337.675 312.813 332.384C312.84 331.896 312.739 331.409 312.521 330.972C312.302 330.535 311.973 330.162 311.566 329.891C312.14 327.23 312.233 324.388 312.558 321.739C312.62 321.387 312.607 321.027 312.521 320.68C312.435 320.333 312.278 320.008 312.059 319.726C312.545 316.386 313.131 313.058 313.618 309.717C313.661 311.711 313.724 313.699 313.823 315.694C313.842 316.037 313.914 316.375 314.035 316.697C313.601 317.239 313.359 317.91 313.349 318.604C312.894 330.919 313.349 343.814 311.342 356.104C311.235 355.483 311.081 354.87 310.881 354.272C311.816 352.583 311.94 350.19 312.084 348.233V348.233ZM313.705 374.06C313.705 374.845 313.736 375.624 313.748 376.409C313.234 376.319 312.704 376.368 312.215 376.553C309.222 377.6 306.959 380.124 305.269 383.047C304.738 382.659 304.107 382.431 303.45 382.393C302.793 382.354 302.139 382.505 301.566 382.829C301.99 381.918 302.356 380.981 302.663 380.024C302.733 379.799 302.777 379.567 302.794 379.332C306.778 378.709 310.394 376.765 311.117 372.552C311.149 372.383 311.167 372.215 311.192 372.053C311.475 372.297 311.806 372.478 312.164 372.585C312.522 372.693 312.898 372.724 313.268 372.676L314.066 372.614C313.819 373.055 313.694 373.554 313.705 374.06V374.06ZM314.721 282.076C314.272 286.518 313.954 290.966 313.767 295.42C313.507 295.161 313.203 294.95 312.869 294.797C313.649 290.397 314.422 285.99 314.484 281.503C314.487 281.472 314.487 281.441 314.484 281.41C314.569 281.557 314.667 281.697 314.777 281.827C314.758 281.921 314.734 281.995 314.721 282.076ZM314.933 272.435C314.933 272.379 314.877 272.31 314.846 272.254C314.937 270.034 315.168 267.821 315.538 265.629C315.347 267.898 315.145 270.166 314.933 272.435ZM328.512 188.747C328.699 189.019 328.926 189.26 329.185 189.464L328.562 189.632C328.562 189.351 328.524 189.046 328.512 188.747ZM328.817 198.956C328.817 197.958 328.755 196.961 328.73 195.964L329.447 195.821C329.231 196.864 329.021 197.909 328.817 198.956Z" fill="#494949"/>
<path d="M359.791 144.896C358.934 141.995 357.219 139.42 354.872 137.511C352.633 135.591 349.934 133.266 346.935 132.855C341.043 132.039 335.651 139.088 332.857 143.45C330.682 146.834 336.074 149.963 338.244 146.566C338.525 146.13 338.824 145.713 339.129 145.32C339.669 145.576 340.275 145.654 340.862 145.542C341.448 145.43 341.984 145.134 342.39 144.697C344.011 143.843 347.378 145.133 348.874 145.594C351.088 146.288 353.216 147.233 355.215 148.411C355.751 148.704 356.361 148.834 356.971 148.787C357.581 148.739 358.163 148.516 358.648 148.144C359.133 147.771 359.499 147.266 359.702 146.689C359.905 146.113 359.936 145.49 359.791 144.896Z" fill="#494949"/>
<path d="M450.379 375.967C450.018 375.387 449.483 374.936 448.851 374.678C448.218 374.421 447.52 374.37 446.857 374.534C442.654 375.581 438.402 375.25 434.119 375.107C429.817 374.987 425.513 375.252 421.257 375.898C412.573 377.145 404.094 379.538 395.247 379.32C394.735 379.3 394.227 379.409 393.769 379.638C393.42 379.351 393.071 379.071 392.703 378.796C389.48 376.397 386.369 381.807 389.586 384.181C390.043 384.522 390.482 384.886 390.901 385.272C390.191 387.142 391.294 389.815 393.732 389.703C406.07 389.13 418.371 388.101 430.659 386.892C436.794 386.269 442.979 385.839 449.089 385.023C450.772 384.792 452.38 384.175 452.941 382.361C453.665 379.912 451.626 377.806 450.379 375.967Z" fill="#494949"/>
<path d="M378.993 433.697C378.513 434.028 377.952 434.464 377.36 434.944C375.758 435.835 373.806 435.76 371.961 435.698C370.714 435.66 369.554 435.623 368.37 435.642L367.902 435.449C368.232 435.169 368.494 434.818 368.667 434.421C368.84 434.024 368.92 433.593 368.899 433.161C368.845 426.567 368.791 419.969 368.737 413.367C369.08 413.096 369.351 412.744 369.524 412.343C369.697 411.941 369.767 411.503 369.729 411.068C369.026 399.617 368.841 388.159 369.174 376.696C369.28 373.112 364.33 372.732 363.182 375.543C362.684 375.434 362.168 375.441 361.673 375.563C361.178 375.685 360.717 375.919 360.327 376.247C359.971 376.107 359.598 376.014 359.217 375.973C353.319 375.35 350.395 380.959 349.691 385.945C348.706 392.944 348.138 400.03 347.758 407.091C347.579 410.486 347.457 413.887 347.39 417.294C347.334 420.41 346.898 423.937 347.552 426.985C348.88 433.217 355.414 434.152 360.738 433.548C361.433 433.484 362.097 433.232 362.659 432.818C362.659 432.924 362.659 433.037 362.659 433.143C362.659 433.249 362.659 433.348 362.659 433.448C359.622 433.217 358.575 438.347 361.935 439.68L362.135 439.755C362.329 440.549 362.803 441.246 363.469 441.718C365.952 443.404 368.963 444.132 371.942 443.769C374.723 444.791 378.127 442.111 380.67 440.166C381.434 439.728 382.14 439.196 382.771 438.583C385.296 436.196 381.961 431.659 378.993 433.697Z" fill="#494949"/>
<path d="M181.37 583.941L303.567 431.871" stroke="white" stroke-width="6" stroke-miterlimit="10"/>
<path d="M236.234 616.349L311.049 452.438" stroke="white" stroke-width="6" stroke-miterlimit="10"/>
<path d="M323.518 457.424L274.888 621.335" stroke="white" stroke-width="6" stroke-miterlimit="10"/>
<path d="M366.537 457.424L414.543 620.088" stroke="white" stroke-width="6" stroke-miterlimit="10"/>
<path d="M380.253 453.061L451.95 611.986" stroke="white" stroke-width="6" stroke-miterlimit="10"/>
<path d="M547.726 491.11C544.92 486.124 539.321 481.138 533.542 480.166C527.6 479.168 522.108 479.218 516.709 482.366C516.422 482.534 516.141 482.708 515.854 482.895C514.246 482.839 512.644 482.789 511.073 482.783L494.42 482.715C490.489 482.738 486.639 483.84 483.291 485.899C475.641 475.928 468.216 465.713 461.333 455.174C461.333 455.087 461.258 454.999 461.227 454.912L461.321 454.819C466.184 449.957 469.85 441.974 469.538 434.987C469.214 427.733 466.826 420.21 461.321 415.156L455.641 410.793C452.329 408.856 448.653 407.624 444.843 407.172C443.596 405.882 442.349 404.523 441.152 403.152C436.594 397.961 428.059 394.938 421.313 394.938C414.455 394.938 406.213 397.998 401.475 403.152C398.128 406.699 395.636 410.962 394.187 415.617C392.728 418.598 391.971 421.872 391.974 425.19C391.061 431.935 391.951 438.801 394.555 445.09C397.304 451.609 402.273 456.663 406.949 461.861C412.666 468.199 418.333 474.881 425.366 479.792C434.157 492.986 443.758 505.637 453.496 518.164C467.593 536.244 481.932 554.144 496.153 572.13C499.383 576.219 506.634 578.518 511.584 578.518C516.933 578.518 523.323 576.144 527.008 572.13C530.83 567.973 533.66 562.514 533.405 556.705C533.143 554.773 532.883 552.841 532.625 550.909C531.619 547.269 529.686 543.951 527.014 541.28C523.099 536.323 519.173 531.371 515.237 526.422L522.818 526.453C532.837 526.497 542.364 523.636 547.701 514.281C549.67 510.738 550.706 506.752 550.71 502.699C550.714 498.645 549.687 494.657 547.726 491.11V491.11Z" fill="#8E8E8E"/>
<path d="M351.006 721.707C271.043 721.648 193.557 693.962 131.673 643.339C69.7898 592.715 27.3121 522.265 11.4348 443.921C-4.44239 365.578 7.25687 284.156 44.5511 213.447C81.8453 142.738 142.442 87.0881 216.078 55.9229C300.708 20.5829 395.899 20.2025 480.809 54.8652C565.72 89.5278 633.433 156.409 669.124 240.868C704.815 325.326 705.577 420.481 671.242 505.499C636.907 590.518 570.273 658.474 485.929 694.49C443.244 712.543 397.354 721.8 351.006 721.707V721.707ZM350.919 108.979C285.112 109.062 221.681 133.576 172.931 177.765C124.182 221.954 93.5884 282.668 87.0859 348.13C80.5833 413.592 98.6352 479.135 137.74 532.045C176.844 584.955 234.214 621.46 298.72 634.478C363.225 647.496 430.269 636.1 486.845 602.501C543.421 568.901 585.496 515.493 604.909 452.636C624.322 389.78 619.688 321.956 591.907 262.321C564.125 202.687 515.177 155.493 454.556 129.895C421.767 116.027 386.516 108.917 350.913 108.991L350.919 108.979Z" fill="#494949"/>
<path d="M351.006 33.0315C419.208 32.9129 485.874 53.2678 542.37 91.4598C597.403 128.594 640.48 180.888 666.382 242.002C688.585 294.44 697.328 351.593 691.817 408.267C686.305 464.941 666.714 519.341 634.823 566.521C597.675 621.534 545.363 664.597 484.226 690.489C431.777 712.678 374.612 721.414 317.926 715.906C261.24 710.398 206.829 690.818 159.636 658.947C104.601 621.808 61.5228 569.507 35.6243 508.386C13.4279 455.954 4.68785 398.81 10.1983 342.144C15.7087 285.478 35.2948 231.087 67.1775 183.911C104.329 128.899 156.639 85.8356 217.773 59.9365C259.922 42.0997 305.237 32.9487 351.006 33.0315M350.919 645.672C417.802 645.584 482.268 620.666 531.813 575.753C581.358 530.839 612.449 469.131 619.057 402.599C625.664 336.067 607.316 269.453 567.571 215.678C527.827 161.904 469.519 124.803 403.959 111.571C338.399 98.3399 270.259 109.921 212.758 144.069C155.256 178.217 112.491 232.497 92.7592 296.381C73.0269 360.264 77.7336 429.197 105.966 489.808C134.199 550.418 183.945 598.386 245.555 624.407C278.887 638.512 314.724 645.745 350.919 645.672ZM351.006 24.3062C157.149 24.3062 0 181.424 0 375.188C0 568.952 157.149 726.069 351.006 726.069C544.864 726.069 702.012 569.014 702.012 375.188C702.012 181.362 544.858 24.3062 351.006 24.3062ZM350.919 636.947C206.277 636.947 89.0296 519.741 89.0296 375.15C89.0296 230.56 206.283 113.391 350.919 113.391C495.555 113.391 612.802 230.56 612.802 375.144C612.802 519.729 495.548 636.947 350.913 636.947H350.919Z" fill="#494949"/>
<path d="M350.913 122.079C413.472 122.156 473.773 145.458 520.118 187.464C566.463 229.471 595.548 287.188 601.731 349.419C607.914 411.65 590.754 473.958 553.581 524.257C516.407 574.556 461.87 609.26 400.548 621.636C339.226 634.012 275.491 623.179 221.707 591.238C167.924 559.297 127.925 508.524 109.471 448.77C91.0164 389.016 95.4221 324.54 121.833 267.849C148.244 211.158 194.778 166.294 252.407 141.961C283.58 128.774 317.095 122.012 350.944 122.079M350.944 113.354C206.302 113.354 89.0546 230.56 89.0546 375.144C89.0546 519.729 206.277 636.947 350.913 636.947C495.549 636.947 612.802 519.735 612.802 375.144C612.802 230.553 495.549 113.385 350.913 113.385L350.944 113.354Z" fill="#494949"/>
<path d="M350.913 122.079C413.472 122.156 473.773 145.458 520.118 187.464C566.463 229.471 595.548 287.188 601.731 349.419C607.914 411.65 590.754 473.958 553.581 524.257C516.407 574.556 461.87 609.26 400.548 621.636C339.226 634.012 275.491 623.179 221.707 591.238C167.924 559.297 127.925 508.524 109.471 448.77C91.0164 389.016 95.4221 324.54 121.833 267.849C148.244 211.158 194.778 166.294 252.407 141.961C283.58 128.774 317.095 122.012 350.944 122.079M350.944 113.354C206.302 113.354 89.0546 230.56 89.0546 375.144C89.0546 519.729 206.277 636.947 350.913 636.947C495.549 636.947 612.802 519.735 612.802 375.144C612.802 230.553 495.549 113.385 350.913 113.385L350.944 113.354Z" fill="#494949"/>
<path d="M346.274 133.996C347.278 133.996 350.988 134.619 356.412 142.995C357.185 144.186 357.952 145.488 358.7 146.841C354.591 143.724 350.433 142.098 346.443 142.098C342.452 142.098 338.338 143.855 334.054 147.339C334.711 146.134 335.374 144.994 336.043 143.918C340.595 136.595 344.398 133.996 346.274 133.996M346.274 130.256C338.057 130.256 327.253 147.75 320.712 171.309C328.624 155.99 338.487 145.837 346.443 145.837C354.491 145.837 363.75 154.693 371.325 168.722C364.872 145.949 354.747 130.256 346.274 130.256V130.256Z" fill="#494949"/>
<path d="M381.693 377.213L381.462 377.101L379.305 294.591L379.349 295.906C379.349 296.816 379.405 297.726 379.43 298.636L379.586 304.108C379.586 305.018 379.642 305.928 379.667 306.838L379.822 312.291L379.978 317.719L380.134 323.11C380.213 325.794 380.29 328.46 380.365 331.106C380.415 332.895 380.471 334.677 380.514 336.447L380.664 341.539C380.714 343.253 380.764 344.961 380.814 346.65L380.957 351.636C381.032 354.129 381.103 356.566 381.169 358.946L381.275 362.686L381.312 363.932L381.381 366.375L381.45 368.775L381.518 371.137C381.556 373.225 381.637 375.25 381.693 377.213Z" fill="white"/>
<path d="M379.305 294.591L381.462 377.101L381.693 377.213C381.637 375.25 381.581 373.225 381.518 371.162L381.45 368.8L381.381 366.4L381.312 363.957L381.275 362.711L381.169 358.971C381.098 356.578 381.028 354.141 380.957 351.661L380.814 346.675C380.764 344.986 380.714 343.278 380.664 341.564L380.514 336.472C380.471 334.702 380.415 332.92 380.365 331.131C380.29 328.489 380.213 325.823 380.134 323.135L379.978 317.744L379.822 312.316L379.667 306.862C379.667 305.953 379.617 305.043 379.586 304.133L379.43 298.661C379.43 297.751 379.38 296.841 379.349 295.931L379.305 294.616V294.591Z" fill="#494949"/>
<path d="M346.443 149.577C352.727 149.577 360.913 157.448 367.84 170.143C369.729 176.876 371.186 183.723 372.204 190.642C372.797 194.606 373.043 198.614 372.939 202.62V202.826C373.008 205.225 373.083 207.812 373.164 210.61L373.214 212.249C373.214 212.411 373.214 212.573 373.214 212.735C373.214 212.897 373.214 213.022 373.214 213.165L373.27 215.072L373.326 217.017L373.382 219.011V219.049V219.522C373.382 219.703 373.382 219.878 373.382 220.033L373.469 223.05C373.532 225.206 373.594 227.412 373.656 229.725L373.756 233.015V233.558C373.756 233.757 373.756 233.956 373.756 234.15L373.825 236.462C373.825 236.854 373.825 237.247 373.825 237.646V237.696L373.893 239.983L373.962 242.376L374.055 245.605C374.118 247.78 374.186 249.967 374.249 252.217L374.311 254.473C374.417 257.901 374.511 261.385 374.61 264.925L374.735 269.288L374.847 273.027C374.98 277.639 375.115 282.301 375.252 287.012L375.402 292.279L375.44 293.75V294.255V294.716L377.46 372.028C376.353 371.848 375.233 371.758 374.112 371.76H365.832C361.474 371.763 357.214 373.055 353.59 375.474C349.965 377.893 347.138 381.33 345.464 385.353C343.873 381.166 341.048 377.561 337.361 375.017C333.674 372.473 329.301 371.108 324.821 371.106H316.442C315.549 371.104 314.658 371.162 313.773 371.28L318.761 227.232L319.584 203.268C319.584 203.169 319.584 203.063 319.584 202.969C319.47 198.839 319.729 194.707 320.357 190.623C321.29 184.558 322.572 178.553 324.198 172.636C332.539 156.694 341.374 149.577 346.443 149.577ZM329.609 199.043C330.953 199.044 332.244 198.516 333.2 197.572C336.569 194.436 341.023 192.729 345.626 192.81C350.613 192.81 355.258 194.68 358.357 197.871C359.063 198.612 359.975 199.124 360.975 199.342C361.975 199.56 363.017 199.473 363.967 199.094C364.918 198.714 365.733 198.059 366.307 197.213C366.882 196.366 367.19 195.367 367.191 194.344V187.008C367.196 185.728 366.717 184.492 365.851 183.549C360.888 178.177 353.5 175.129 345.595 175.129C338.001 175.129 330.825 178.002 325.906 183.019C324.969 183.974 324.448 185.26 324.453 186.597V193.926C324.455 195.284 324.996 196.585 325.956 197.544C326.917 198.504 328.22 199.043 329.578 199.043M346.411 145.837C338.481 145.837 328.649 155.965 320.731 171.178L320.619 171.465C318.927 177.589 317.594 183.807 316.629 190.087C315.961 194.395 315.688 198.755 315.812 203.113V203.175L314.983 227.132L309.895 374.216C309.89 374.401 309.921 374.586 309.989 374.759C310.056 374.932 310.158 375.09 310.288 375.222C310.417 375.355 310.573 375.46 310.744 375.531C310.916 375.603 311.1 375.638 311.286 375.637C311.421 375.636 311.555 375.617 311.685 375.581C313.213 375.129 314.798 374.9 316.392 374.901H324.821C329.672 374.914 334.321 376.846 337.752 380.275C341.183 383.703 343.117 388.35 343.132 393.199V412.47C343.132 412.837 343.278 413.189 343.537 413.448C343.797 413.708 344.149 413.853 344.516 413.853H346.112C346.479 413.853 346.831 413.708 347.091 413.448C347.35 413.189 347.496 412.837 347.496 412.47V393.767C347.511 388.917 349.445 384.27 352.876 380.842C356.307 377.413 360.956 375.481 365.807 375.468H374.211C376.03 375.466 377.837 375.761 379.561 376.341C379.703 376.387 379.853 376.411 380.003 376.409C380.187 376.409 380.37 376.373 380.539 376.301C380.709 376.23 380.863 376.125 380.991 375.993C381.119 375.861 381.22 375.705 381.287 375.533C381.354 375.362 381.386 375.179 381.381 374.995L379.28 294.597V294.13V293.631L379.243 292.16C379.056 285.679 378.869 279.228 378.688 272.896L378.575 269.157C378.432 264.134 378.295 259.185 378.152 254.367L378.089 252.118C377.989 248.765 377.894 245.482 377.802 242.27L377.734 239.877L377.665 237.59C377.665 237.172 377.665 236.761 377.665 236.343L377.597 234.037C377.597 233.651 377.597 233.271 377.565 232.891L377.466 229.606C377.403 227.317 377.341 225.094 377.279 222.938L377.191 219.921C377.191 219.578 377.191 219.242 377.16 218.905L377.104 216.911L377.048 214.96L376.992 213.053C376.992 212.742 376.992 212.43 376.992 212.118L376.942 210.46C376.861 207.687 376.786 205.082 376.718 202.682C376.805 198.468 376.528 194.254 375.888 190.087C374.835 182.935 373.325 175.857 371.368 168.897C371.337 168.794 371.297 168.694 371.25 168.598C363.687 154.6 354.466 145.837 346.443 145.837H346.411ZM329.578 195.303C329.396 195.305 329.216 195.271 329.048 195.202C328.88 195.133 328.727 195.032 328.598 194.904C328.469 194.776 328.367 194.623 328.298 194.456C328.228 194.288 328.193 194.108 328.194 193.926V186.566C328.193 186.208 328.332 185.863 328.581 185.606C332.633 181.468 338.749 178.837 345.595 178.837C352.702 178.837 359.024 181.673 363.051 186.079C363.282 186.334 363.409 186.665 363.407 187.008V194.312C363.408 194.59 363.325 194.862 363.168 195.092C363.012 195.322 362.789 195.499 362.53 195.6C362.271 195.701 361.988 195.722 361.717 195.659C361.446 195.596 361.201 195.452 361.013 195.247C357.366 191.464 351.804 189.015 345.582 189.015C340.002 188.929 334.608 191.019 330.544 194.842C330.416 194.971 330.263 195.073 330.095 195.142C329.927 195.212 329.747 195.247 329.566 195.247L329.578 195.303Z" fill="#494949"/>
<path d="M379.28 293.625V294.124V294.591L381.437 377.101L381.668 377.213C381.612 375.25 381.556 373.225 381.493 371.162L381.425 368.8L381.356 366.4L381.288 363.957L381.25 362.711L381.144 358.971C381.074 356.578 381.003 354.141 380.932 351.661L380.789 346.675C380.739 344.986 380.689 343.278 380.639 341.564L380.489 336.472C380.446 334.702 380.39 332.92 380.34 331.131C380.265 328.489 380.188 325.823 380.109 323.135L379.953 317.744L379.797 312.316L379.642 306.863C379.642 305.953 379.592 305.043 379.561 304.133L379.405 298.661C379.405 297.751 379.355 296.841 379.324 295.931C379.324 295.27 379.292 294.603 379.268 293.943V293.65L379.28 293.625Z" fill="#494949"/>
<path d="M452.885 386.063C432.461 388.282 405.079 389.553 391.007 390.102C390.408 385.801 388.175 381.895 384.773 379.195V379.195C383.808 378.426 382.763 377.763 381.655 377.22L381.425 377.107L379.268 294.597V294.13V293.924V293.631L379.23 292.16L375.969 237.702C375.969 237.435 376.069 237.178 376.249 236.98C376.429 236.783 376.676 236.66 376.942 236.635C377.208 236.61 377.473 236.685 377.687 236.845C377.9 237.006 378.046 237.24 378.095 237.503C381.132 255.863 388.071 287.567 391.151 305.049C394.891 326.239 405.49 334.964 424.817 349.922C431.819 355.606 437.91 360.374 444.35 366.369C447.048 368.891 449.198 371.941 450.667 375.329C452.135 378.717 452.89 382.371 452.885 386.063V386.063Z" stroke="#494949" stroke-width="6" stroke-miterlimit="10"/>
<path d="M384.791 379.195C406.344 379.052 429.1 377.326 450.392 374.833" stroke="#494949" stroke-width="6" stroke-miterlimit="10"/>
<path d="M384.785 379.189C406.3 378.856 427.782 377.4 449.145 374.826" stroke="#494949" stroke-width="6" stroke-miterlimit="10"/>
<path d="M316.517 237.739L311.728 375.755C311.73 375.887 311.693 376.017 311.621 376.128C311.549 376.239 311.445 376.326 311.323 376.378C310.064 376.955 308.881 377.686 307.801 378.553" stroke="#494949" stroke-width="6" stroke-miterlimit="10"/>
<path d="M242.78 374.222C263.739 376.738 284.812 378.182 305.918 378.547" stroke="#494949" stroke-width="6" stroke-miterlimit="10"/>
<path d="M244.027 374.222C264.109 376.565 285.493 378.229 305.943 378.528" stroke="#494949" stroke-width="6" stroke-miterlimit="10"/>
<path d="M328.194 159.112V197.753" stroke="#494949" stroke-width="6" stroke-miterlimit="10"/>
<path d="M336.835 190.76L336.922 378.896" stroke="#494949" stroke-width="6" stroke-miterlimit="10"/>
<path d="M315.401 215.864H377.073" stroke="#494949" stroke-width="3" stroke-miterlimit="10"/>
<path d="M314.079 254.062H378.152" stroke="#494949" stroke-width="3" stroke-miterlimit="10"/>
<path d="M314.079 295.196H378.152" stroke="#494949" stroke-width="3" stroke-miterlimit="10"/>
<path d="M310.962 332.59H380.253" stroke="#494949" stroke-width="3" stroke-miterlimit="10"/>
<path d="M287.813 332.777V388.849" stroke="#494949" stroke-width="6" stroke-miterlimit="10"/>
<path d="M320.7 376.384L321.336 433.386" stroke="#494949" stroke-width="3" stroke-miterlimit="10"/>
<path d="M369.635 375.468V433.922" stroke="#494949" stroke-width="3" stroke-miterlimit="10"/>
<path d="M424.306 479.343C423.493 476.765 422.353 474.302 420.914 472.014C420.91 471.617 420.818 471.226 420.645 470.869C420.471 470.513 420.22 470.199 419.911 469.951C415.098 465.725 411.058 460.702 406.868 455.884C406.685 455.677 406.475 455.495 406.244 455.342C404.505 453.366 403.794 450.718 402.354 448.53C401.539 447.265 400.515 446.148 399.324 445.227C399.287 445.049 399.237 444.874 399.175 444.704C397.834 441.188 394.255 439.63 393.607 435.779C393.021 432.314 387.323 433.124 387.485 436.608C387.655 438.367 387.564 440.141 387.217 441.874C387.042 442.572 386.799 443.258 386.637 443.962C386.512 444.517 386.606 445.763 386.313 446.218C384.118 449.59 389.511 452.718 391.693 449.334C391.92 448.968 392.104 448.577 392.242 448.169C392.434 448.541 392.71 448.864 393.049 449.111C393.388 449.357 393.779 449.521 394.193 449.59C396.369 450.057 397.342 452.126 398.246 453.952C399.337 456.19 400.403 458.315 402.192 460.11C402.329 460.245 402.477 460.368 402.635 460.478C406.525 464.965 410.309 469.608 414.711 473.615C414.781 473.906 414.901 474.183 415.066 474.432C416.442 476.442 417.521 478.64 418.271 480.957C419.512 484.809 425.534 483.182 424.306 479.343Z" fill="white"/>
<path d="M339.285 452.506C338.763 448.707 338.642 444.863 338.924 441.039C339.167 437.331 333.936 437.094 332.801 440.21C332.551 440.891 332.266 441.559 331.947 442.211C331.438 441.942 330.88 441.781 330.306 441.737C329.732 441.693 329.156 441.767 328.612 441.955C326.193 442.79 324.827 444.797 321.997 444.897C319.166 444.996 316.81 443.445 315.095 441.232C314.776 440.747 314.293 440.393 313.734 440.236C313.175 440.079 312.577 440.13 312.053 440.378C311.364 439.125 310.91 437.756 310.712 436.34C310.276 432.401 304.035 432.357 304.478 436.34C304.995 441.064 307.427 445.239 310.089 449.085C312.583 452.687 315.887 455.891 320.351 456.726C325.058 457.604 329.148 455.517 332.365 452.263C332.876 453.329 333.3 454.326 333.562 454.906C335.183 458.408 339.74 455.666 339.285 452.506Z" fill="white"/>
<path d="M382.877 437.511C379.966 439.73 376.169 443.806 372.372 444.311C368.575 444.816 364.354 441.818 361.381 439.855C360.862 439.518 360.242 439.375 359.629 439.45C358.937 437.997 358.251 436.539 357.553 435.087C355.813 431.472 350.433 434.632 352.166 438.203C355.832 445.825 359.111 456.832 369.086 457.636C371.037 457.78 372.996 457.491 374.822 456.789C376.648 456.088 378.296 454.991 379.648 453.578C382.809 450.257 384.442 445.476 387.161 441.737C388.937 439.306 385.296 435.642 382.877 437.511Z" fill="white"/>
<path d="M343.157 391.766V431.653L342.876 431.722C341.904 431.952 340.925 432.17 339.94 432.345C327.926 434.738 315.351 434.308 303.324 431.809C302.077 431.541 300.781 431.254 299.515 430.942V391.766C299.514 390.967 299.57 390.17 299.683 389.379C300.304 385.106 302.534 381.231 305.918 378.547C307.118 377.584 308.443 376.789 309.858 376.185C310.467 375.926 311.092 375.705 311.728 375.524C313.257 375.073 314.842 374.844 316.436 374.845H326.224C330.71 374.857 335.01 376.643 338.182 379.813C341.355 382.984 343.144 387.281 343.157 391.766V391.766Z" stroke="#494949" stroke-width="6" stroke-miterlimit="10"/>
<path d="M303.324 431.803C303.792 440.391 306.797 447.882 311.192 452.525" stroke="#494949" stroke-width="6" stroke-miterlimit="10"/>
<path d="M332.421 452.189C336.548 447.626 339.391 440.503 339.94 432.339" stroke="#494949" stroke-width="6" stroke-miterlimit="10"/>
<path d="M311.192 452.525C314.16 455.641 317.764 457.511 321.648 457.511C325.669 457.511 329.391 455.542 332.421 452.195C336.548 447.633 339.391 440.509 339.94 432.345" stroke="#494949" stroke-width="6" stroke-miterlimit="10"/>
<path d="M309.64 432.912C310.706 435.982 312.383 438.804 314.571 441.207C317.171 443.956 320.326 445.57 323.724 445.57C327.24 445.57 330.495 443.844 333.15 440.914C335.242 438.519 336.844 435.737 337.864 432.725" stroke="#494949" stroke-width="6" stroke-miterlimit="10"/>
<path d="M357.895 433.566C358.951 436.39 360.541 438.984 362.578 441.207C365.177 443.956 368.332 445.57 371.73 445.57C375.246 445.57 378.501 443.843 381.157 440.914C383.097 438.699 384.614 436.148 385.633 433.386" stroke="#494949" stroke-width="6" stroke-miterlimit="10"/>
<path d="M343.469 431.559L343.157 431.634" stroke="#494949" stroke-width="6" stroke-miterlimit="10"/>
<path d="M391.007 390.102C390.408 385.801 388.175 381.895 384.773 379.195V379.195C383.808 378.426 382.763 377.763 381.655 377.22L381.425 377.107C379.168 376.03 376.699 375.472 374.199 375.474H364.411C359.925 375.488 355.628 377.275 352.456 380.445C349.284 383.615 347.497 387.912 347.484 392.395V431.566C348.731 431.877 350.015 432.189 351.293 432.432C363.32 434.925 375.895 435.361 387.909 432.968C388.894 432.781 389.873 432.563 390.845 432.345L391.126 432.276V392.389C391.14 391.625 391.1 390.861 391.007 390.102V390.102Z" stroke="#494949" stroke-width="6" stroke-miterlimit="10"/>
<path d="M351.33 432.426C351.798 441.014 354.803 448.505 359.198 453.148" stroke="#494949" stroke-width="6" stroke-miterlimit="10"/>
<path d="M380.427 452.812C384.554 448.25 387.397 441.126 387.946 432.962" stroke="#494949" stroke-width="6" stroke-miterlimit="10"/>
<path d="M351.33 432.426C351.798 441.014 354.803 448.505 359.198 453.148C362.166 456.265 365.77 458.134 369.654 458.134C373.675 458.134 377.397 456.165 380.427 452.818C384.554 448.256 387.397 441.132 387.946 432.968" stroke="#494949" stroke-width="6" stroke-miterlimit="10"/>
<path d="M327.402 439.662H325.663C324.836 439.662 324.043 439.99 323.458 440.574C322.874 441.159 322.545 441.951 322.545 442.778C322.545 443.604 322.874 444.397 323.458 444.981C324.043 445.566 324.836 445.894 325.663 445.894H327.402C328.229 445.894 329.022 445.566 329.606 444.981C330.191 444.397 330.519 443.604 330.519 442.778C330.519 441.951 330.191 441.159 329.606 440.574C329.022 439.99 328.229 439.662 327.402 439.662Z" fill="#494949"/>
<path d="M392.098 434.987L498.709 580.824" stroke="white" stroke-width="6" stroke-miterlimit="10"/>
<path d="M243.148 383.77C263.573 385.989 290.955 387.26 305.026 387.808C305.626 383.507 307.858 379.602 311.261 376.902V376.902C312.225 376.132 313.271 375.47 314.378 374.926L314.609 374.814L316.766 292.304V291.836V291.631V291.338L316.803 289.867L320.064 235.409C320.064 235.142 319.964 234.884 319.785 234.687C319.605 234.489 319.358 234.366 319.092 234.341C318.826 234.316 318.56 234.391 318.347 234.552C318.134 234.712 317.988 234.947 317.938 235.209C314.902 253.57 307.963 285.274 304.883 302.755C301.142 323.945 290.543 332.671 271.216 347.628C264.215 353.312 258.124 358.08 251.683 364.076C248.985 366.597 246.835 369.647 245.367 373.035C243.898 376.423 243.143 380.077 243.148 383.77V383.77Z" stroke="#494949" stroke-width="6" stroke-miterlimit="10"/>
<path d="M308.923 673.597C176.534 655.683 117.256 549.582 117.256 549.582" stroke="white" stroke-width="6" stroke-miterlimit="10"/>
<path d="M388 679.844C520.389 661.929 579.667 555.828 579.667 555.828" stroke="white" stroke-width="6" stroke-miterlimit="10"/>
<path d="M118.993 536.128C123.914 544.115 124.77 552.641 121.094 555.765C120.907 555.931 120.705 556.08 120.492 556.21C116.133 558.902 108.413 554.283 103.218 545.863C98.0231 537.443 101.719 525.781 101.719 525.781C101.719 525.781 113.809 527.722 118.993 536.128Z" fill="white"/>
<path d="M577.93 542.374C573.008 550.361 572.153 558.887 575.829 562.012C576.016 562.177 576.217 562.326 576.43 562.456C580.79 565.149 588.51 560.53 593.705 552.11C598.9 543.689 595.204 532.027 595.204 532.027C595.204 532.027 583.114 533.969 577.93 542.374Z" fill="white"/>
<path d="M123.213 572.478C113.408 571.281 104.333 579.509 104.333 579.509C104.333 579.509 111.129 589.698 120.933 590.895C130.737 592.092 139.191 588.941 139.809 583.859C140.428 578.777 132.992 573.693 123.213 572.478Z" fill="white"/>
<path d="M573.71 578.724C583.515 577.527 592.59 585.755 592.59 585.755C592.59 585.755 585.794 595.945 575.99 597.142C566.185 598.339 557.732 595.187 557.113 590.106C556.495 585.024 563.931 579.939 573.71 578.724Z" fill="white"/>
<path d="M152.219 565.987C153.309 556.171 144.989 547.192 144.989 547.192C144.989 547.192 134.891 554.13 133.815 563.966C132.739 573.802 135.963 582.198 141.053 582.762C146.143 583.327 151.128 575.803 152.219 565.987Z" fill="white"/>
<path d="M544.704 572.234C543.613 562.418 551.933 553.439 551.933 553.439C551.933 553.439 562.032 560.377 563.108 570.213C564.183 580.048 560.959 588.444 555.869 589.009C550.779 589.573 545.795 582.049 544.704 572.234Z" fill="white"/>
<path d="M175.949 587.712C177.04 577.896 168.72 568.917 168.72 568.917C168.72 568.917 158.622 575.855 157.546 585.691C156.47 595.527 159.69 603.918 164.78 604.482C169.87 605.046 174.859 597.528 175.949 587.712Z" fill="white"/>
<path d="M520.973 593.958C519.883 584.142 528.203 575.163 528.203 575.163C528.203 575.163 538.301 582.101 539.377 591.937C540.453 601.773 537.232 610.164 532.142 610.728C527.052 611.293 522.064 603.774 520.973 593.958Z" fill="white"/>
<path d="M201.438 609.634C202.529 599.818 194.2 590.838 194.2 590.838C194.2 590.838 184.102 597.775 183.026 607.611C181.95 617.447 185.174 625.843 190.26 626.402C195.347 626.962 200.347 619.449 201.438 609.634Z" fill="white"/>
<path d="M495.485 615.88C494.394 606.064 502.723 597.084 502.723 597.084C502.723 597.084 512.821 604.022 513.897 613.858C514.973 623.694 511.749 632.09 506.662 632.649C501.576 633.208 496.575 625.696 495.485 615.88Z" fill="white"/>
<path d="M256.229 639.257C257.319 629.441 248.996 620.457 248.996 620.457C248.996 620.457 238.897 627.395 237.822 637.231C236.746 647.067 239.97 655.463 245.055 656.031C250.14 656.599 255.123 649.084 256.229 639.257Z" fill="white"/>
<path d="M440.694 645.503C439.603 635.688 447.927 626.704 447.927 626.704C447.927 626.704 458.025 633.641 459.101 643.477C460.177 653.313 456.953 661.709 451.868 662.277C446.783 662.845 441.8 655.33 440.694 645.503Z" fill="white"/>
<path d="M285.507 650.966C286.597 641.15 278.272 632.175 278.272 632.175C278.272 632.175 268.174 639.113 267.098 648.949C266.022 658.785 269.242 667.176 274.333 667.74C279.423 668.304 284.411 660.786 285.507 650.966Z" fill="white"/>
<path d="M411.416 657.213C410.325 647.397 418.65 638.422 418.65 638.422C418.65 638.422 428.749 645.36 429.825 655.195C430.9 665.031 427.68 673.422 422.59 673.987C417.5 674.551 412.512 667.032 411.416 657.213Z" fill="white"/>
<path d="M227.602 625.417C228.692 615.601 220.367 606.626 220.367 606.626C220.367 606.626 210.274 613.56 209.198 623.396C208.122 633.232 211.342 641.623 216.428 642.191C221.513 642.759 226.515 635.238 227.602 625.417Z" fill="white"/>
<path d="M469.321 631.663C468.23 621.848 476.555 612.872 476.555 612.872C476.555 612.872 486.649 619.806 487.725 629.642C488.8 639.478 485.58 647.869 480.495 648.437C475.41 649.005 470.408 641.484 469.321 631.663Z" fill="white"/>
<path d="M144.436 603.096C134.959 605.88 129.912 617.013 129.912 617.013C129.912 617.013 140.224 623.631 149.686 620.858C159.147 618.086 165.675 611.832 164.234 606.923C162.794 602.013 153.909 600.308 144.436 603.096Z" fill="white"/>
<path d="M552.487 609.343C561.964 612.126 567.01 623.26 567.01 623.26C567.01 623.26 556.699 629.877 547.237 627.105C537.775 624.332 531.248 618.079 532.688 613.169C534.128 608.259 543.014 606.554 552.487 609.343Z" fill="white"/>
<path d="M170.07 627.367C161.445 632.186 158.942 644.161 158.942 644.161C158.942 644.161 170.441 648.367 179.077 643.563C187.713 638.758 192.691 631.247 190.205 626.769C187.719 622.29 178.7 622.566 170.07 627.367Z" fill="white"/>
<path d="M526.853 633.613C535.477 638.432 537.981 650.407 537.981 650.407C537.981 650.407 526.481 654.613 517.846 649.809C509.21 645.005 504.232 637.494 506.718 633.015C509.203 628.536 518.222 628.812 526.853 633.613Z" fill="white"/>
<path d="M196.808 647.328C189.091 653.491 188.616 665.726 188.616 665.726C188.616 665.726 200.652 667.972 208.374 661.804C216.096 655.637 219.76 647.407 216.565 643.406C213.37 639.405 204.53 641.16 196.808 647.328Z" fill="white"/>
<path d="M500.115 653.574C507.832 659.738 508.307 671.973 508.307 671.973C508.307 671.973 496.271 674.218 488.549 668.051C480.827 661.884 477.162 653.654 480.357 649.652C483.552 645.651 492.393 647.407 500.115 653.574Z" fill="white"/>
<path d="M225.049 663.227C218.486 670.607 220.089 682.749 220.089 682.749C220.089 682.749 232.339 682.922 238.902 675.542C245.465 668.162 247.691 659.422 243.862 656.021C240.032 652.619 231.617 655.843 225.049 663.227Z" fill="white"/>
<path d="M471.874 669.473C478.437 676.853 476.834 688.995 476.834 688.995C476.834 688.995 464.584 689.169 458.021 681.789C451.458 674.409 449.232 665.668 453.061 662.267C456.89 658.866 465.306 662.09 471.874 669.473Z" fill="white"/>
<path d="M258.821 674.546C252.258 681.926 253.861 694.068 253.861 694.068C253.861 694.068 266.107 694.237 272.67 686.857C279.233 679.477 281.459 670.736 277.633 667.34C273.808 663.944 265.389 667.163 258.821 674.546Z" fill="white"/>
<path d="M438.102 680.793C444.665 688.173 443.062 700.315 443.062 700.315C443.062 700.315 430.816 700.483 424.253 693.103C417.69 685.723 415.464 676.983 419.289 673.587C423.115 670.19 431.534 673.409 438.102 680.793Z" fill="white"/>
</g>
<defs>
<clipPath id="clip0_1_178">
<rect width="702" height="797" fill="white"/>
</clipPath>
</defs>
</svg>
